<svg xmlns="http://www.w3.org/2000/svg" xmlns:xlink="http://www.w3.org/1999/xlink" width="559" height="364.834" viewBox="0 0 559 364.834">
  <defs>
    <clipPath id="clip-path">
      <rect id="SVGID" width="67.267" height="20.33" rx="2" fill="none"/>
    </clipPath>
  </defs>
  <g id="Group_2490" data-name="Group 2490" transform="translate(-72 -572.01)">
    <g id="Group_2043" data-name="Group 2043" transform="translate(72 597.85)">
      <g id="Group_1810" data-name="Group 1810" transform="translate(0)">
        <rect id="Rectangle_2051" data-name="Rectangle 2051" width="443" height="278" rx="16" transform="translate(0 32.15)" fill="#4070f4"/>
        <text id="Happy" transform="translate(38 158.15)" fill="#fff" font-size="169" font-family="Rubik-Medium, Rubik" font-weight="500" opacity="0.09"><tspan x="0" y="0">Happy</tspan></text>
        <g id="Group_1773" data-name="Group 1773" transform="translate(239.192 40.185)">
          <g id="Shape" transform="translate(0 22.635)" opacity="0.29" style="isolation: isolate">
            <path id="Path_568" data-name="Path 568" d="M11127.822,5684.642c-10.054,14.688-6.984,35.449,6.853,46.373a29.527,29.527,0,0,0,26.409,5.46l.024-.011q.987-.278,1.957-.626c6.313-1.785,27.185-5.869,53.676,8.311a38.084,38.084,0,0,0,9.684,3.92c24.124,11.229,51.969-.5,62.192-26.191,8.614-21.655,2.063-46.974-15.806-61.073-3.746-2.957-7.56-6.171-11.713-7.812,0,0-52.056-32.771-122.706,21.949A31,31,0,0,0,11127.822,5684.642Z" transform="translate(-11121.906 -5643.26)" fill="#accaf0"/>
          </g>
          <g id="Group_1732" data-name="Group 1732" transform="translate(19.047 107.408)">
            <ellipse id="Ellipse_425" data-name="Ellipse 425" cx="74.141" cy="4.396" rx="74.141" ry="4.396" fill="#573ccb"/>
          </g>
          <g id="Shape-2" data-name="Shape" transform="translate(19.047 13.062)" opacity="0.97" style="isolation: isolate">
            <g id="Group_1733" data-name="Group 1733">
              <path id="Path_569" data-name="Path 569" d="M11386.056,5614.316c-.814-.035-1.65-.11-2.478-.222l.105-.792c.806.109,1.614.182,2.407.216Zm2.491-.011-.044-.8a23.418,23.418,0,0,0,2.4-.253l.125.788A23.906,23.906,0,0,1,11388.547,5614.305Zm-7.414-.647c-.8-.178-1.605-.392-2.4-.637l.232-.763c.775.239,1.564.448,2.341.62Zm12.331-.146-.213-.77a19.907,19.907,0,0,0,2.269-.783l.309.737A20.95,20.95,0,0,1,11393.464,5613.512Zm-17.074-1.312c-.763-.3-1.528-.631-2.273-.988l.343-.719c.729.348,1.477.672,2.223.964Zm21.681-.611-.4-.691c.319-.185.636-.381.941-.584l.039-.029c.342-.229.68-.473,1.006-.725l.49.631c-.333.257-.679.508-1.031.743l-.038.028C11398.752,5611.181,11398.413,5611.392,11398.07,5611.59Zm-26.153-1.523c-.713-.4-1.424-.841-2.112-1.3l.44-.666c.674.445,1.368.872,2.066,1.267Zm30.262-1.136-.39-.7c.7-.389,1.442-.767,2.208-1.126l.341.723C11403.588,5608.18,11402.861,5608.551,11402.179,5608.931Zm-34.393-1.6c-.653-.5-1.3-1.026-1.919-1.569l.526-.6c.607.531,1.237,1.047,1.876,1.536Zm38.78-.464-.294-.743c.755-.3,1.536-.583,2.326-.845l.251.757C11408.075,5606.3,11407.306,5606.578,11406.566,5606.872Zm50.486-.622c-.739,0-1.491-.021-2.241-.063l.045-.8c.811.045,1.629.066,2.427.061l0,.8Zm2.708-.1-.056-.8c.81-.058,1.621-.144,2.407-.256l.113.791C11461.418,5606.006,11460.588,5606.094,11459.761,5606.154Zm-7.415-.18c-.412-.047-.829-.1-1.246-.161-.354.024-.73.035-1.125.035h-.022v-.8h.023c.39,0,.766-.013,1.112-.037l.043,0,.041.006c.424.062.85.117,1.264.165Zm-4.881-.256c-.761-.074-1.587-.178-2.454-.312l.12-.789c.854.131,1.665.234,2.411.3Zm17.2-.262-.169-.779c.794-.172,1.581-.374,2.344-.6l.229.766C11466.287,5605.075,11465.477,5605.282,11464.666,5605.457Zm-53.491-.12-.21-.771c.783-.215,1.588-.417,2.395-.6l.176.778C11412.739,5604.925,11411.946,5605.124,11411.175,5605.336Zm31.406-.355-.119-.023c-.76-.149-1.53-.29-2.282-.418l.134-.787c.759.13,1.534.271,2.3.422l.116.023Zm-26.66-.713-.139-.786c.8-.142,1.619-.27,2.438-.379l.106.792C11417.518,5604,11416.709,5604.128,11415.921,5604.268Zm21.846-.106c-.807-.115-1.621-.219-2.42-.31l.09-.793c.806.092,1.63.2,2.441.313Zm-73.709-.088c-.582-.583-1.152-1.192-1.692-1.81l.6-.525c.527.6,1.087,1.2,1.657,1.77Zm105.358-.034-.286-.745c.754-.291,1.5-.616,2.217-.964l.348.718C11470.957,5603.408,11470.193,5603.741,11469.416,5604.04Zm-48.671-.417-.072-.795c.808-.074,1.637-.135,2.46-.178l.044.8C11422.362,5603.49,11421.544,5603.549,11420.745,5603.623Zm12.174-.009c-.814-.068-1.631-.124-2.433-.165l.041-.8c.808.042,1.637.1,2.457.166Zm-4.87-.25c-.433-.007-.866-.012-1.292-.012h-.007c-.379,0-.763,0-1.138.01l-.015-.8c.382-.006.775-.007,1.159-.009.43,0,.868,0,1.3.012Zm45.834-1.5-.41-.685c.69-.413,1.369-.86,2.016-1.328l.469.646C11475.292,5600.984,11474.594,5601.444,11473.883,5601.869Zm-113.085-1.524c-.5-.659-.983-1.339-1.432-2.023l.667-.439c.438.67.909,1.335,1.4,1.979Zm117.1-1.392-.523-.6c.605-.528,1.189-1.089,1.742-1.669l.578.55C11479.13,5597.83,11478.525,5598.408,11477.9,5598.953Zm-119.821-2.753c-.407-.726-.784-1.469-1.128-2.211l.727-.335c.333.724.7,1.449,1.1,2.157Zm123.247-.846-.626-.494c.5-.628.968-1.287,1.4-1.96l.672.434C11482.325,5594.028,11481.838,5594.707,11481.327,5595.354ZM11356,5591.7c-.291-.784-.545-1.58-.762-2.366l.77-.211c.21.765.459,1.539.741,2.3Zm128.029-.508-.706-.372c.373-.706.718-1.441,1.027-2.185l.737.307C11484.772,5589.705,11484.415,5590.462,11484.03,5591.188Zm-129.34-4.284c-.146-.823-.253-1.654-.315-2.469l.793-.062c.063.789.165,1.593.308,2.391Zm131.257-.3-.762-.243c.241-.759.455-1.543.636-2.332l.778.179C11486.415,5585.022,11486.193,5585.828,11485.947,5586.608Zm-130.841-4.641-.8-.022a22.042,22.042,0,0,1,.208-2.488l.012-.085.791.113-.012.083A21.161,21.161,0,0,0,11355.106,5581.968Zm131.949-.194-.79-.116c.115-.788.2-1.6.26-2.406l.8.057C11487.265,5580.136,11487.174,5580.965,11487.056,5581.773Zm-131.252-4.64-.771-.208a19.056,19.056,0,0,1,.812-2.367l.736.309A18.253,18.253,0,0,0,11355.8,5577.133Zm130.8-.3c0-.8-.034-1.613-.091-2.423l.8-.055c.058.828.09,1.661.09,2.477Zm-128.951-4.1-.687-.408a17.817,17.817,0,0,1,1.427-2.06l.622.5A17.107,17.107,0,0,0,11357.655,5572.727Zm128.615-.729c-.106-.792-.241-1.6-.4-2.39l.785-.156c.16.811.3,1.631.406,2.439Zm-125.934-3.369-.689-.4c.417-.708.843-1.417,1.269-2.107l.681.418C11361.175,5567.223,11360.75,5567.927,11360.337,5568.629Zm124.99-1.385c-.2-.772-.427-1.557-.676-2.329l.759-.245c.253.786.486,1.584.691,2.372Zm-122.426-2.771-.671-.435c.447-.69.905-1.379,1.361-2.049l.659.45C11363.8,5563.1,11363.345,5563.789,11362.9,5564.474Zm120.943-1.849c-.288-.749-.6-1.5-.931-2.246l.729-.325c.335.754.652,1.522.944,2.285Zm-118.194-2.186-.648-.465c.477-.666.968-1.333,1.457-1.981l.639.481C11366.61,5559.116,11366.124,5559.778,11365.65,5560.438Zm116.22-2.255c-.361-.715-.75-1.435-1.151-2.139l.694-.395c.409.715.8,1.446,1.169,2.172Zm-113.279-1.639-.624-.5c.511-.642,1.036-1.283,1.558-1.906l.611.514C11369.618,5555.271,11369.1,5555.907,11368.591,5556.544Zm110.878-2.582c-.432-.679-.885-1.359-1.352-2.021l.655-.459c.472.674.932,1.364,1.367,2.053Zm-107.74-1.155-.6-.529c.544-.615,1.1-1.227,1.658-1.819l.584.546C11372.822,5551.592,11372.271,5552.2,11371.729,5552.808Zm104.949-2.825c-.491-.638-1.006-1.274-1.526-1.892l.609-.516c.529.626,1.049,1.272,1.549,1.919Zm-101.609-.732-.566-.563c.576-.581,1.169-1.16,1.762-1.721l.548.58C11376.228,5548.1,11375.638,5548.676,11375.068,5549.25Zm98.474-2.983c-.546-.592-1.113-1.182-1.687-1.752l.563-.565c.581.578,1.156,1.176,1.712,1.777Zm-94.937-.373-.533-.6c.612-.546,1.239-1.088,1.865-1.611l.511.612C11379.83,5544.816,11379.211,5545.354,11378.605,5545.895Zm91.487-3.057c-.6-.543-1.213-1.082-1.834-1.6l.511-.613c.63.525,1.255,1.07,1.86,1.622Zm-87.751-.077-.5-.626c.646-.507,1.307-1.009,1.963-1.493l.472.644C11383.632,5541.764,11382.979,5542.259,11382.342,5542.761Zm3.926-2.888-.452-.659c.674-.462,1.366-.92,2.054-1.36l.431.672C11387.619,5538.96,11386.936,5539.413,11386.268,5539.873Zm80.089-.152c-.643-.491-1.3-.974-1.964-1.436l.455-.654c.671.468,1.343.958,2,1.455Zm-75.982-2.473-.405-.687c.7-.417,1.424-.828,2.141-1.219l.384.7C11391.784,5536.428,11391.072,5536.834,11390.374,5537.248Zm71.992-.309c-.686-.433-1.389-.855-2.086-1.256l.4-.693c.709.406,1.42.834,2.115,1.274Zm-67.717-2.033-.358-.712c.73-.369,1.477-.729,2.22-1.071l.333.724C11396.11,5534.185,11395.372,5534.542,11394.649,5534.905Zm63.491-.381c-.72-.371-1.457-.727-2.188-1.06l.332-.728c.743.339,1.49.7,2.221,1.077Zm-59.065-1.662-.312-.736c.755-.318,1.524-.626,2.289-.917l.283.746C11400.582,5532.242,11399.82,5532.548,11399.075,5532.862Zm54.64-.355c-.558-.223-1.128-.439-1.689-.641l-.594-.214.271-.75.592.212c.571.206,1.15.425,1.719.652Zm-50.086-1.381-.26-.756c.774-.265,1.564-.519,2.348-.757l.232.763C11405.175,5530.612,11404.393,5530.864,11403.629,5531.126Zm45.5-.3c-.9-.318-1.63-.569-2.312-.79l.247-.76c.688.224,1.429.478,2.329.8Zm-40.835-1.117-.206-.771c.791-.211,1.595-.412,2.391-.6l.183.777C11409.87,5529.3,11409.075,5529.5,11408.293,5529.706Zm36.2-.366c-.848-.225-1.618-.4-2.358-.526l.138-.787c.762.133,1.554.31,2.426.541Zm-31.445-.734-.153-.783c.8-.157,1.62-.3,2.427-.433l.127.788C11414.645,5528.306,11413.836,5528.451,11413.043,5528.606Zm26.656-.2c-.5-.1-1.322-.265-2.393-.43l.123-.789c1.089.168,1.924.331,2.434.438Zm-21.84-.58-.1-.792c.812-.1,1.635-.195,2.45-.271l.076.794C11419.476,5527.636,11418.66,5527.727,11417.859,5527.829Zm17.031-.17c-.794-.088-1.61-.165-2.426-.226l.061-.8c.824.063,1.651.138,2.456.229Zm-12.175-.286-.049-.8c.818-.05,1.647-.086,2.465-.108l.021.8C11424.344,5527.286,11423.525,5527.323,11422.716,5527.373Zm7.313-.078c-.806-.034-1.626-.052-2.437-.057l0-.8c.82.006,1.648.025,2.465.057Z" transform="translate(-11354.309 -5526.438)" fill="#accaf0"/>
            </g>
          </g>
          <g id="Group_1734" data-name="Group 1734" transform="translate(19.255 21.694)" opacity="0.97" style="isolation: isolate">
            <path id="Path_570" data-name="Path 570" d="M11360.179,5638.443a3.335,3.335,0,1,1,3.332-3.335A3.337,3.337,0,0,1,11360.179,5638.443Zm0-5.872a2.537,2.537,0,1,0,2.534,2.537A2.538,2.538,0,0,0,11360.179,5632.571Z" transform="translate(-11356.847 -5631.772)" fill="#accaf0"/>
          </g>
          <g id="Group_1735" data-name="Group 1735" transform="translate(148.748 7.455)" opacity="0.97" style="isolation: isolate">
            <path id="Path_571" data-name="Path 571" d="M12940.621,5465.4l-3.689-3.691,3.689-3.69,3.691,3.69Zm-2.561-3.691,2.561,2.563,2.564-2.562-2.564-2.561Z" transform="translate(-12936.932 -5458.021)" fill="#accaf0"/>
          </g>
          <g id="Group_1738" data-name="Group 1738" transform="translate(121.825 43.868)">
            <g id="Group_1736" data-name="Group 1736" transform="translate(0)">
              <path id="Path_572" data-name="Path 572" d="M12631.6,5941.446l5.113,5.333a53.343,53.343,0,0,0,5.08-5.88,56.612,56.612,0,0,0,7.113-12.966l-5.264-2.719,6.422-.452a73.108,73.108,0,0,0,3.838-22.419s-18.506,5.183-31.154,19.962l1.906,4.759-3.6-2.671c-.182.237-.363.476-.541.716-12.566,16.935-12.109,38.558-12.109,38.558a73.071,73.071,0,0,0,25.615-14.352Z" transform="translate(-12608.399 -5902.342)" fill="#573ccb"/>
            </g>
            <g id="Group_1737" data-name="Group 1737" transform="translate(12.832 0.543)">
              <path id="Path_573" data-name="Path 573" d="M12765.34,5953.583a.355.355,0,0,1-.148-.032.366.366,0,0,1-.189-.486c5.445-12.373,18.967-31.283,31.455-43.984a.368.368,0,1,1,.525.516c-12.432,12.648-25.893,31.462-31.307,43.766A.366.366,0,0,1,12765.34,5953.583Z" transform="translate(-12764.97 -5908.97)" fill="#fff"/>
            </g>
          </g>
          <g id="Group_1743" data-name="Group 1743" transform="translate(5.291 47.033)">
            <g id="Group_1741" data-name="Group 1741">
              <g id="Group_1739" data-name="Group 1739" transform="translate(0.654 0.49)">
                <path id="Path_574" data-name="Path 574" d="M11234,5968.475l5.232-5.216a53.423,53.423,0,0,0-5.979-4.966,56.631,56.631,0,0,0-13.1-6.856l-2.617,5.314-.577-6.412a73.11,73.11,0,0,0-22.49-3.395s5.546,18.4,20.57,30.756l4.721-2-2.6,3.652q.36.267.728.527c17.176,12.23,38.787,11.35,38.787,11.35a73.065,73.065,0,0,0-14.852-25.328Z" transform="translate(-11194.461 -5946.93)" fill="#fff"/>
              </g>
              <g id="Group_1740" data-name="Group 1740">
                <path id="Path_575" data-name="Path 575" d="M11248.41,5986.252a73.147,73.147,0,0,1-12.106-1.108,72.266,72.266,0,0,1-12.616-3.352,57.273,57.273,0,0,1-13.42-6.994c-.237-.169-.478-.343-.734-.533l-.387-.287,1.869-2.631-3.393,1.437-.23-.188a60.383,60.383,0,0,1-9.632-10.1,74.023,74.023,0,0,1-6.408-10.06,67.3,67.3,0,0,1-4.688-10.834l-.184-.608.634-.025a74.387,74.387,0,0,1,22.66,3.418l.312.1.45,4.994,2.037-4.143.419.155a57.286,57.286,0,0,1,13.217,6.917,54.4,54.4,0,0,1,6.031,5.012l.363.349-4.119,4.108,6.152-2.024.216.234a72.91,72.91,0,0,1,11.53,17.163,63.047,63.047,0,0,1,3.428,8.357l.184.608-.634.026C11249.345,5986.239,11249.015,5986.252,11248.41,5986.252Zm-37.9-12.492c.112.081.219.159.33.238,8.788,6.259,18.777,8.985,25.608,10.173a71.6,71.6,0,0,0,12.221,1.1,67.434,67.434,0,0,0-3.177-7.61,72.167,72.167,0,0,0-11.15-16.673l-9.484,3.119,6.342-6.322a53.114,53.114,0,0,0-5.561-4.573,55.884,55.884,0,0,0-12.574-6.641l-3.192,6.487-.705-7.83a74.719,74.719,0,0,0-21.355-3.286,69.99,69.99,0,0,0,4.424,10.056,66.411,66.411,0,0,0,15.554,19.651l6.048-2.56Z" transform="translate(-11186.48 -5940.956)" fill="#3c58a4"/>
              </g>
            </g>
            <g id="Group_1742" data-name="Group 1742" transform="translate(1.126 1.002)">
              <path id="Path_576" data-name="Path 576" d="M11245.232,5984.76a.534.534,0,0,1-.2-.041c-12.5-5.208-31.687-18.371-44.645-30.619a.533.533,0,0,1,.731-.774c12.877,12.172,31.931,25.246,44.319,30.41a.532.532,0,0,1-.2,1.024Z" transform="translate(-11200.217 -5953.181)" fill="#accaf0"/>
            </g>
          </g>
          <g id="Group_1746" data-name="Group 1746" transform="translate(35.352 81.291)">
            <g id="Group_1744" data-name="Group 1744" transform="translate(0.492 0.492)">
              <rect id="Rectangle_2054" data-name="Rectangle 2054" width="115.152" height="30.174" rx="4" fill="#fff"/>
            </g>
            <g id="Group_1745" data-name="Group 1745" transform="translate(0 0)">
              <path id="Path_577" data-name="Path 577" d="M11665.406,6390.122h-108.155a3.993,3.993,0,0,1-3.991-3.988v-23.179a4,4,0,0,1,3.991-3.989h108.155a3.994,3.994,0,0,1,3.989,3.989v23.179A3.993,3.993,0,0,1,11665.406,6390.122Zm-108.155-30.173a3.01,3.01,0,0,0-3.008,3.006v23.179a3.009,3.009,0,0,0,3.008,3h108.155a3.009,3.009,0,0,0,3.006-3v-23.179a3.01,3.01,0,0,0-3.006-3.006Z" transform="translate(-11553.26 -6358.965)" fill="#3c58a4"/>
            </g>
          </g>
          <g id="Group_1749" data-name="Group 1749" transform="translate(43.008 51.055)">
            <g id="Group_1747" data-name="Group 1747" transform="translate(0.492 0.492)">
              <rect id="Rectangle_2055" data-name="Rectangle 2055" width="99.838" height="30.174" rx="3" fill="#fff"/>
            </g>
            <g id="Group_1748" data-name="Group 1748" transform="translate(0 0)">
              <path id="Path_578" data-name="Path 578" d="M11743.767,6021.2h-93.324a3.753,3.753,0,0,1-3.748-3.749v-23.659a3.753,3.753,0,0,1,3.748-3.749h93.324a3.754,3.754,0,0,1,3.749,3.749v23.659A3.754,3.754,0,0,1,11743.767,6021.2Zm-93.324-30.174a2.769,2.769,0,0,0-2.766,2.766v23.659a2.768,2.768,0,0,0,2.766,2.765h93.324a2.769,2.769,0,0,0,2.766-2.765v-23.659a2.77,2.77,0,0,0-2.766-2.766Z" transform="translate(-11646.694 -5990.046)" fill="#3c58a4"/>
            </g>
          </g>
          <g id="Group_1752" data-name="Group 1752" transform="translate(59.293 30.774)">
            <g id="Group_1750" data-name="Group 1750" transform="translate(0.492 0.492)">
              <rect id="Rectangle_2056" data-name="Rectangle 2056" width="67.267" height="20.573" rx="2" fill="#fff"/>
            </g>
            <g id="Group_1751" data-name="Group 1751" transform="translate(0 0)">
              <path id="Path_579" data-name="Path 579" d="M11910.971,5767.087h-62.878a2.706,2.706,0,0,1-2.687-2.718v-16.123a2.7,2.7,0,0,1,2.687-2.716h62.878a2.705,2.705,0,0,1,2.687,2.716v16.123A2.707,2.707,0,0,1,11910.971,5767.087Zm-62.878-20.562a1.713,1.713,0,0,0-1.7,1.721v16.123a1.714,1.714,0,0,0,1.7,1.722h62.878a1.715,1.715,0,0,0,1.7-1.722v-16.123a1.714,1.714,0,0,0-1.7-1.721Z" transform="translate(-11845.406 -5745.53)" fill="#3c58a4"/>
            </g>
          </g>
          <g id="Group_1753" data-name="Group 1753" transform="translate(35.986 25.28)">
            <g id="Path_174" data-name="Path 174" transform="translate(0 2.023)">
              <path id="Path_580" data-name="Path 580" d="M11576.1,5714.154a57.707,57.707,0,0,1,3.4,7.05s-2.493,1.494-2.994,1.8c-2.016,1.233-5.465-.728-7.7-4.381s-2.421-7.619-.405-8.854c.492-.3,3.033-1.827,3.033-1.827A59.165,59.165,0,0,1,11576.1,5714.154Z" transform="translate(-11566.506 -5707.312)" fill="#fff"/>
              <path id="Path_581" data-name="Path 581" d="M11569.615,5716.759a5.387,5.387,0,0,1-2.629-.793,13.129,13.129,0,0,1-5.983-9.762c-.085-1.859.493-3.266,1.628-3.961.487-.3,2.935-1.766,3.039-1.829l.354-.213.271.314a59.76,59.76,0,0,1,4.707,6.258l.016.026a58.028,58.028,0,0,1,3.431,7.109l.154.389-.358.216c-.024.015-2.494,1.5-2.991,1.8A3.1,3.1,0,0,1,11569.615,5716.759Zm-3.8-15.288c-.718.431-2.3,1.381-2.676,1.611-1.75,1.072-1.489,4.817.569,8.177a11.09,11.09,0,0,0,3.76,3.853c1.293.735,2.453.865,3.269.366.39-.24,1.927-1.163,2.637-1.59a57.113,57.113,0,0,0-3.206-6.587A58.833,58.833,0,0,0,11565.818,5701.471Z" transform="translate(-11560.995 -5700.201)" fill="#e9b640"/>
            </g>
            <g id="Ellipse_315" data-name="Ellipse 315" transform="translate(1.909 0)">
              <ellipse id="Ellipse_426" data-name="Ellipse 426" cx="4.279" cy="7.761" rx="4.279" ry="7.761" transform="matrix(0.853, -0.522, 0.522, 0.853, 0, 4.472)" fill="#fff"/>
              <path id="Path_582" data-name="Path 582" d="M11614.258,5707.226a5.4,5.4,0,0,1-2.627-.793,12.059,12.059,0,0,1-4.111-4.194c-2.42-3.945-2.525-8.131-.244-9.529,1.135-.694,2.65-.571,4.268.349a12.106,12.106,0,0,1,4.113,4.194h0a12.1,12.1,0,0,1,1.867,5.568c.088,1.859-.49,3.267-1.625,3.962A3.1,3.1,0,0,1,11614.258,5707.226Zm-5.338-13.977a2.127,2.127,0,0,0-1.131.3c-1.75,1.072-1.49,4.817.566,8.177a11.14,11.14,0,0,0,3.76,3.854c1.293.734,2.455.864,3.27.365s1.225-1.593,1.158-3.077a12.155,12.155,0,0,0-5.486-8.953A4.438,4.438,0,0,0,11608.92,5693.249Z" transform="translate(-11603.883 -5690.893)" fill="#e9b640"/>
            </g>
          </g>
          <g id="Group_1754" data-name="Group 1754" transform="translate(121.856 44.775)">
            <g id="Path_174-2" data-name="Path 174" transform="translate(0 0)">
              <path id="Path_583" data-name="Path 583" d="M12622.51,5927.188a48.161,48.161,0,0,1-4.578,4.668s-1.879-1.534-2.264-1.842c-1.543-1.234-.979-4.5,1.262-7.295s5.3-4.059,6.844-2.825c.373.3,2.291,1.868,2.291,1.868A49.1,49.1,0,0,1,12622.51,5927.188Z" transform="translate(-12614.307 -5918.928)" fill="#fff"/>
              <path id="Path_584" data-name="Path 584" d="M12612.427,5926.972l-.324-.264c-.021-.016-1.883-1.537-2.262-1.841a3.533,3.533,0,0,1-.963-3.529,10.168,10.168,0,0,1,2.148-4.456c2.447-3.052,5.754-4.326,7.533-2.9.375.3,2.219,1.808,2.3,1.872l.324.262-.207.362a50.271,50.271,0,0,1-3.592,5.48l-.02.023a48.684,48.684,0,0,1-4.621,4.713Zm4.352-12.592c-1.441,0-3.439,1.19-4.986,3.117a9.175,9.175,0,0,0-1.945,4.009,2.633,2.633,0,0,0,.607,2.594c.289.23,1.387,1.125,1.943,1.58a47.848,47.848,0,0,0,4.209-4.328,48.98,48.98,0,0,0,3.307-5c-.562-.458-1.691-1.381-1.967-1.6A1.826,1.826,0,0,0,12616.778,5914.379Z" transform="translate(-12608.787 -5913.397)" fill="#e9b640"/>
            </g>
            <g id="Ellipse_315-2" data-name="Ellipse 315" transform="translate(1.375 0.977)">
              <ellipse id="Ellipse_427" data-name="Ellipse 427" cx="6.482" cy="3.575" rx="6.482" ry="3.575" transform="translate(0 10.119) rotate(-51.306)" fill="#fff"/>
              <path id="Path_585" data-name="Path 585" d="M12645.815,5952.839a2.8,2.8,0,0,1-1.781-.583c-1.779-1.426-1.26-4.933,1.188-7.985a10.158,10.158,0,0,1,3.879-3.07,3.544,3.544,0,0,1,3.656.169c1.779,1.426,1.258,4.934-1.187,7.985h0C12649.8,5951.561,12647.583,5952.839,12645.815,5952.839Zm5.16-11.069a3.987,3.987,0,0,0-1.5.34,9.175,9.175,0,0,0-3.488,2.776c-2.029,2.534-2.645,5.558-1.34,6.6s4.121-.215,6.152-2.748,2.643-5.559,1.34-6.6A1.833,1.833,0,0,0,12650.976,5941.77Z" transform="translate(-12641.551 -5939.519)" fill="#e9b640"/>
            </g>
          </g>
          <g id="Group_1756" data-name="Group 1756" transform="translate(51.084 81.954)" opacity="0.15" style="isolation: isolate">
            <g id="Group_1755" data-name="Group 1755" transform="translate(0 0)">
              <path id="Path_586" data-name="Path 586" d="M11835.16,6392.855l-85.67,0c-2.351,0-4.258-.571-4.258-1.274v-23.251c0-.705,1.907-1.276,4.258-1.276l85.67.164c2.353,0,4.258.57,4.258,1.273v23.084C11839.418,6392.285,11837.513,6392.855,11835.16,6392.855Z" transform="translate(-11745.232 -6367.059)" fill="#accaf0"/>
            </g>
          </g>
          <g id="Group_1758" data-name="Group 1758" transform="translate(55.023 55.228)" opacity="0.15" style="isolation: isolate">
            <g id="Group_1757" data-name="Group 1757" transform="translate(0 0)">
              <path id="Path_587" data-name="Path 587" d="M11872.5,6066.737l-75.456,0c-2.074,0-3.752-.57-3.752-1.274v-23.252c0-.7,1.678-1.274,3.752-1.274l75.456.161c2.071,0,3.748.57,3.748,1.276v23.083C11876.249,6066.167,11874.572,6066.737,11872.5,6066.737Z" transform="translate(-11793.293 -6040.941)" fill="#accaf0"/>
            </g>
          </g>
          <g id="Group_1760" data-name="Group 1760" transform="translate(69.601 33.36)" opacity="0.15" style="isolation: isolate">
            <g id="Group_1759" data-name="Group 1759">
              <path id="Path_588" data-name="Path 588" d="M12021.22,5790.891l-47.676,0c-1.308,0-2.368-.369-2.368-.827v-15.119c0-.458,1.061-.829,2.368-.829l47.676.105c1.308,0,2.367.371,2.367.829v15.009C12023.587,5790.52,12022.527,5790.891,12021.22,5790.891Z" transform="translate(-11971.176 -5774.118)" fill="#accaf0"/>
            </g>
          </g>
          <g id="Group_1763" data-name="Group 1763" transform="translate(86.291 13.272)">
            <g id="Group_1761" data-name="Group 1761" transform="translate(0.492 0.492)">
              <rect id="Rectangle_2057" data-name="Rectangle 2057" width="5.554" height="17.702" fill="#fff"/>
            </g>
            <g id="Group_1762" data-name="Group 1762">
              <path id="Path_589" data-name="Path 589" d="M12181.36,5547.686h-6.536V5529h6.536Zm-5.554-.983h4.57v-16.719h-4.57Z" transform="translate(-12174.824 -5529)" fill="#3c58a4"/>
            </g>
          </g>
          <g id="Group_1766" data-name="Group 1766" transform="translate(97.745 10.369)">
            <g id="Group_1764" data-name="Group 1764" transform="translate(0.492 0.492)">
              <rect id="Rectangle_2058" data-name="Rectangle 2058" width="5.554" height="20.604" fill="#fff"/>
            </g>
            <g id="Group_1765" data-name="Group 1765" transform="translate(0 0)">
              <path id="Path_590" data-name="Path 590" d="M12321.125,5515.176h-6.537v-21.588h6.537Zm-5.553-.983h4.568v-19.621h-4.568Z" transform="translate(-12314.588 -5493.588)" fill="#3c58a4"/>
            </g>
          </g>
          <g id="Group_1767" data-name="Group 1767" transform="translate(87.303 3.775)">
            <path id="Path_591" data-name="Path 591" d="M12191.3,5419.173c-.644,2.556-1.634,2.373-1.956,2.333-1.158-.145-2.17-1.251-2.17-3.568a5.531,5.531,0,0,1,2.17-4.819C12188.909,5416.2,12192.159,5415.768,12191.3,5419.173Z" transform="translate(-12187.176 -5413.118)" fill="#e9b640"/>
          </g>
          <g id="Group_1768" data-name="Group 1768" transform="translate(98.356 0)">
            <path id="Path_592" data-name="Path 592" d="M12322.2,5373.115c.642,2.557,1.633,2.374,1.957,2.333,1.157-.146,2.169-1.25,2.169-3.568a5.533,5.533,0,0,0-2.169-4.82C12324.594,5370.145,12321.344,5369.71,12322.2,5373.115Z" transform="translate(-12322.058 -5367.061)" fill="#e9b640"/>
          </g>
          <g id="Group_1769" data-name="Group 1769" transform="translate(139.128 95.015)">
            <g id="Path_174-3" data-name="Path 174" transform="translate(0 0)">
              <path id="Path_593" data-name="Path 593" d="M12834.63,6541.664a56.985,56.985,0,0,1-4.637,6.307s-2.486-1.5-3-1.8c-2.033-1.2-1.918-5.166.262-8.858s5.6-5.709,7.631-4.507c.5.293,3.035,1.825,3.035,1.825A59.379,59.379,0,0,1,12834.63,6541.664Z" transform="translate(-12825.054 -6531.965)" fill="#fff"/>
              <path id="Path_594" data-name="Path 594" d="M12824.588,6543.074l-.357-.217c-.023-.016-2.492-1.5-2.992-1.8-1.145-.676-1.746-2.073-1.689-3.935a13.1,13.1,0,0,1,5.82-9.859c1.6-.946,3.113-1.1,4.258-.418.5.29,2.936,1.764,3.041,1.827l.355.213-.15.386a60.011,60.011,0,0,1-3.324,7.093l-.014.025a58.289,58.289,0,0,1-4.676,6.361Zm3.457-15.658c-1.8,0-4.234,1.834-5.873,4.612-2,3.393-2.2,7.141-.434,8.186.393.231,1.93,1.156,2.641,1.584a57.151,57.151,0,0,0,4.316-5.919,59.359,59.359,0,0,0,3.109-6.576l-2.674-1.609A2.126,2.126,0,0,0,12828.045,6527.416Z" transform="translate(-12819.545 -6526.43)" fill="#e9b640"/>
            </g>
            <g id="Ellipse_315-3" data-name="Ellipse 315" transform="translate(1.964 0.85)">
              <ellipse id="Ellipse_428" data-name="Ellipse 428" cx="7.761" cy="4.279" rx="7.761" ry="4.279" transform="matrix(0.508, -0.861, 0.861, 0.508, 0, 13.366)" fill="#fff"/>
              <path id="Path_595" data-name="Path 595" d="M12867.939,6568.125a3.064,3.064,0,0,1-1.592-.418c-2.3-1.36-2.268-5.547.086-9.531s6-6.042,8.3-4.682,2.268,5.547-.084,9.532h0C12872.787,6566.18,12870.115,6568.125,12867.939,6568.125Zm5.213-14.062c-1.8,0-4.232,1.833-5.873,4.612-2,3.394-2.2,7.141-.432,8.185s4.953-.94,6.955-4.334,2.2-7.142.434-8.186A2.1,2.1,0,0,0,12873.152,6554.063Z" transform="translate(-12862.912 -6551.742)" fill="#e9b640"/>
            </g>
          </g>
          <g id="Group_1772" data-name="Group 1772" transform="translate(59.785 31.508)">
            <g id="Group_1771" data-name="Group 1771" transform="translate(0 0)" clip-path="url(#clip-path)">
              <g id="Group_1770" data-name="Group 1770" transform="translate(-2.94 -7.868)">
                <path id="Path_596" data-name="Path 596" d="M11915.961,5663.631h-.092a3.956,3.956,0,0,1-3.957-3.958v-.187a3.959,3.959,0,0,0-3.959-3.958h-.279a3.959,3.959,0,0,0-3.959,3.958v.187a3.956,3.956,0,0,1-7.859.648,4,4,0,0,0,.039-.555v-.279a3.957,3.957,0,0,0-3.957-3.958h-.373a3.956,3.956,0,0,0-3.957,3.958v.279a3.72,3.72,0,0,0,.039.555,3.958,3.958,0,0,1-7.863-.648v-.187a3.957,3.957,0,0,0-3.955-3.958h-.279a3.959,3.959,0,0,0-3.959,3.958v.187a3.866,3.866,0,1,1-7.73,0v-.187a3.957,3.957,0,0,0-3.957-3.958h-.279a3.957,3.957,0,0,0-3.957,3.958v.187a3.958,3.958,0,0,1-7.863.648,3.72,3.72,0,0,0,.041-.555v-.279a3.958,3.958,0,0,0-3.959-3.958h-.373a3.959,3.959,0,0,0-3.957,3.958v.279a4.325,4.325,0,0,0,.039.555,3.957,3.957,0,0,1-7.861-.648v-.187a3.958,3.958,0,0,0-3.959-3.958h-.277a3.956,3.956,0,0,0-3.957,3.958v.187a3.959,3.959,0,0,1-3.959,3.958h-.092a3.958,3.958,0,0,0-3.959,3.958v.279a3.958,3.958,0,0,0,3.959,3.958h.277a3.959,3.959,0,0,0,3.959-3.958v-.187a3.957,3.957,0,1,1,7.914,0v.187a3.959,3.959,0,0,0,3.959,3.958h.279a3.956,3.956,0,0,0,3.957-3.958v-.187a3.865,3.865,0,1,1,7.729,0v.187a3.959,3.959,0,0,0,3.959,3.958h.279a3.959,3.959,0,0,0,3.959-3.958v-.187a3.956,3.956,0,0,1,7.859-.648,4.346,4.346,0,0,0-.039.556v.279a3.958,3.958,0,0,0,3.959,3.958h.371a3.958,3.958,0,0,0,3.959-3.958v-.279a4.346,4.346,0,0,0-.039-.556,3.956,3.956,0,0,1,7.859.648v.187a3.959,3.959,0,0,0,3.959,3.958h.279a3.959,3.959,0,0,0,3.959-3.958v-.187a3.866,3.866,0,1,1,7.73,0v.187a3.956,3.956,0,0,0,3.955,3.958h.281a3.959,3.959,0,0,0,3.957-3.958v-.187a3.957,3.957,0,1,1,7.914,0v.187a3.959,3.959,0,0,0,3.959,3.958h.277a3.958,3.958,0,0,0,3.959-3.958v-.279A3.958,3.958,0,0,0,11915.961,5663.631Z" transform="translate(-11815.529 -5655.529)" fill="#573ccb"/>
              </g>
            </g>
          </g>
        </g>
        <text id="Happy_Birthday_" data-name="Happy 
Birthday!" transform="translate(38 94.15)" fill="#fff" font-size="26" font-family="Rubik-Medium, Rubik" font-weight="500"><tspan x="0" y="0">Happy </tspan><tspan x="0" y="31">Birthday!</tspan></text>
      </g>
    </g>
    <text id="It_is_a_long_established_fact_that_a_reader_will_be_distracted_by_the_readable_content._It_is_a_long_established_fact_that_a_reader_will_be_distracted_by_the_readable_content." data-name="It is a long established fact that a reader will be distracted by the readable content. It is a long established fact that a reader will be distracted by the readable content." transform="translate(113 789)" fill="#fff" font-size="13" font-family="Rubik-Regular, Rubik"><tspan x="0" y="12">It is a long established fact that a reader will be distracted </tspan><tspan x="0" y="32">by the readable content. It is a long established fact that a </tspan><tspan x="0" y="52">reader will be distracted by the readable content.</tspan></text>
    <g id="Group_2044" data-name="Group 2044" transform="translate(76.681 479.265)">
      <g id="Group_1734-2" data-name="Group 1734" transform="translate(418.954 105.138)" opacity="0.97" style="isolation: isolate">
        <path id="Path_570-2" data-name="Path 570" d="M11360.179,5638.443a3.335,3.335,0,1,1,3.332-3.335A3.337,3.337,0,0,1,11360.179,5638.443Zm0-5.872a2.537,2.537,0,1,0,2.534,2.537A2.538,2.538,0,0,0,11360.179,5632.571Z" transform="translate(-11356.847 -5631.772)" fill="none" stroke="#4070f4" stroke-width="1"/>
      </g>
      <g id="Group_1815" data-name="Group 1815" transform="translate(41.004 93.245)" opacity="0.97" style="isolation: isolate">
        <path id="Path_570-3" data-name="Path 570" d="M11360.179,5638.443a3.335,3.335,0,1,1,3.332-3.335A3.337,3.337,0,0,1,11360.179,5638.443Zm0-5.872a2.537,2.537,0,1,0,2.534,2.537A2.538,2.538,0,0,0,11360.179,5632.571Z" transform="translate(-11356.847 -5631.772)" fill="none" stroke="#4070f4" stroke-width="1"/>
      </g>
      <g id="Group_1816" data-name="Group 1816" transform="translate(44.968 295.435)" opacity="0.97" style="isolation: isolate">
        <path id="Path_570-4" data-name="Path 570" d="M11360.179,5638.443a3.335,3.335,0,1,1,3.332-3.335A3.337,3.337,0,0,1,11360.179,5638.443Zm0-5.872a2.537,2.537,0,1,0,2.534,2.537A2.538,2.538,0,0,0,11360.179,5632.571Z" transform="translate(-11356.847 -5631.772)" fill="none" stroke="#4070f4" stroke-width="1"/>
      </g>
      <g id="Group_1819" data-name="Group 1819" transform="translate(141.438 369.439)" opacity="0.97" style="isolation: isolate">
        <path id="Path_570-5" data-name="Path 570" d="M11360.179,5638.443a3.335,3.335,0,1,1,3.332-3.335A3.337,3.337,0,0,1,11360.179,5638.443Zm0-5.872a2.537,2.537,0,1,0,2.534,2.537A2.538,2.538,0,0,0,11360.179,5632.571Z" transform="translate(-11356.847 -5631.772)" fill="none" stroke="#4070f4" stroke-width="1"/>
      </g>
      <g id="Group_1735-2" data-name="Group 1735" transform="translate(0.023 283.838)" opacity="0.97" style="isolation: isolate">
        <path id="Path_571-2" data-name="Path 571" d="M12940.621,5465.4l-3.689-3.691,3.689-3.69,3.691,3.69Zm-2.561-3.691,2.561,2.563,2.564-2.562-2.564-2.561Z" transform="translate(-12936.932 -5458.021)" fill="none" stroke="#4070f4" stroke-width="1"/>
      </g>
      <g id="Group_1814" data-name="Group 1814" transform="translate(409.689 291.767)" opacity="0.97" style="isolation: isolate">
        <path id="Path_571-3" data-name="Path 571" d="M12940.621,5465.4l-3.689-3.691,3.689-3.69,3.691,3.69Zm-2.561-3.691,2.561,2.563,2.564-2.562-2.564-2.561Z" transform="translate(-12936.932 -5458.021)" fill="none" stroke="#4070f4" stroke-width="1"/>
      </g>
      <g id="Group_1820" data-name="Group 1820" transform="translate(334.363 127.466)" opacity="0.97" style="isolation: isolate">
        <path id="Path_571-4" data-name="Path 571" d="M12940.621,5465.4l-3.689-3.691,3.689-3.69,3.691,3.69Zm-2.561-3.691,2.561,2.563,2.564-2.562-2.564-2.561Z" transform="translate(-12936.932 -5458.021)" fill="none" stroke="#4070f4" stroke-width="1"/>
      </g>
      <rect id="Rectangle_2067" data-name="Rectangle 2067" width="5.286" height="14.537" transform="translate(7.41 457.578) rotate(-140)" fill="#4070f4"/>
      <rect id="Rectangle_2077" data-name="Rectangle 2077" width="5.286" height="14.537" transform="translate(86.616 440.368) rotate(-40)" fill="#4070f4"/>
      <rect id="Rectangle_2075" data-name="Rectangle 2075" width="5.286" height="14.537" transform="translate(119.653 268.238) rotate(-40)" fill="#573ccb"/>
      <rect id="Rectangle_2068" data-name="Rectangle 2068" width="5.286" height="14.537" transform="matrix(0.602, 0.799, -0.799, 0.602, 216.462, 162.545)" fill="#573ccb"/>
      <rect id="Rectangle_2069" data-name="Rectangle 2069" width="5.286" height="14.537" transform="matrix(0.602, 0.799, -0.799, 0.602, 269.322, 266.944)" fill="#eaba4b"/>
      <rect id="Rectangle_2076" data-name="Rectangle 2076" width="5.286" height="14.537" transform="matrix(0.602, 0.799, -0.799, 0.602, 298.395, 110)" fill="#eaba4b"/>
      <rect id="Rectangle_2070" data-name="Rectangle 2070" width="5.286" height="14.537" transform="translate(7.703 324.01) rotate(32)" fill="#eaba4b"/>
      <rect id="Rectangle_2074" data-name="Rectangle 2074" width="5.286" height="14.537" transform="translate(447.764 300.223) rotate(32)" fill="#eaba4b"/>
      <rect id="Rectangle_2073" data-name="Rectangle 2073" width="5.286" height="14.537" transform="matrix(-0.848, 0.53, -0.53, -0.848, 395.422, 399.789)" fill="#eaba4b"/>
      <rect id="Rectangle_2071" data-name="Rectangle 2071" width="5.286" height="14.537" transform="matrix(-0.848, 0.53, -0.53, -0.848, 446.96, 234.582)" fill="#eaba4b"/>
      <rect id="Rectangle_2072" data-name="Rectangle 2072" width="5.286" height="14.537" transform="translate(174.828 128.662) rotate(59)" fill="#eaba4b"/>
    </g>
    <g id="Group_2485" data-name="Group 2485" transform="translate(72 597.85)">
      <g id="Group_1810-2" data-name="Group 1810" transform="translate(0)">
        <rect id="Rectangle_2051-2" data-name="Rectangle 2051" width="443" height="278" rx="16" transform="translate(0 32.15)" fill="#4070f4"/>
        <text id="Happy-2" data-name="Happy" transform="translate(38 158.15)" fill="#fff" font-size="169" font-family="Rubik-Medium, Rubik" font-weight="500" opacity="0.09"><tspan x="0" y="0">Happy</tspan></text>
        <g id="Group_1773-2" data-name="Group 1773" transform="translate(239.192 40.185)">
          <g id="Shape-3" data-name="Shape" transform="translate(0 22.635)" opacity="0.29" style="isolation: isolate">
            <path id="Path_568-2" data-name="Path 568" d="M11127.822,5684.642c-10.054,14.688-6.984,35.449,6.853,46.373a29.527,29.527,0,0,0,26.409,5.46l.024-.011q.987-.278,1.957-.626c6.313-1.785,27.185-5.869,53.676,8.311a38.084,38.084,0,0,0,9.684,3.92c24.124,11.229,51.969-.5,62.192-26.191,8.614-21.655,2.063-46.974-15.806-61.073-3.746-2.957-7.56-6.171-11.713-7.812,0,0-52.056-32.771-122.706,21.949A31,31,0,0,0,11127.822,5684.642Z" transform="translate(-11121.906 -5643.26)" fill="#accaf0"/>
          </g>
          <g id="Group_1732-2" data-name="Group 1732" transform="translate(19.047 107.408)">
            <ellipse id="Ellipse_425-2" data-name="Ellipse 425" cx="74.141" cy="4.396" rx="74.141" ry="4.396" fill="#573ccb"/>
          </g>
          <g id="Shape-4" data-name="Shape" transform="translate(19.047 13.062)" opacity="0.97" style="isolation: isolate">
            <g id="Group_1733-2" data-name="Group 1733">
              <path id="Path_569-2" data-name="Path 569" d="M11386.056,5614.316c-.814-.035-1.65-.11-2.478-.222l.105-.792c.806.109,1.614.182,2.407.216Zm2.491-.011-.044-.8a23.418,23.418,0,0,0,2.4-.253l.125.788A23.906,23.906,0,0,1,11388.547,5614.305Zm-7.414-.647c-.8-.178-1.605-.392-2.4-.637l.232-.763c.775.239,1.564.448,2.341.62Zm12.331-.146-.213-.77a19.907,19.907,0,0,0,2.269-.783l.309.737A20.95,20.95,0,0,1,11393.464,5613.512Zm-17.074-1.312c-.763-.3-1.528-.631-2.273-.988l.343-.719c.729.348,1.477.672,2.223.964Zm21.681-.611-.4-.691c.319-.185.636-.381.941-.584l.039-.029c.342-.229.68-.473,1.006-.725l.49.631c-.333.257-.679.508-1.031.743l-.038.028C11398.752,5611.181,11398.413,5611.392,11398.07,5611.59Zm-26.153-1.523c-.713-.4-1.424-.841-2.112-1.3l.44-.666c.674.445,1.368.872,2.066,1.267Zm30.262-1.136-.39-.7c.7-.389,1.442-.767,2.208-1.126l.341.723C11403.588,5608.18,11402.861,5608.551,11402.179,5608.931Zm-34.393-1.6c-.653-.5-1.3-1.026-1.919-1.569l.526-.6c.607.531,1.237,1.047,1.876,1.536Zm38.78-.464-.294-.743c.755-.3,1.536-.583,2.326-.845l.251.757C11408.075,5606.3,11407.306,5606.578,11406.566,5606.872Zm50.486-.622c-.739,0-1.491-.021-2.241-.063l.045-.8c.811.045,1.629.066,2.427.061l0,.8Zm2.708-.1-.056-.8c.81-.058,1.621-.144,2.407-.256l.113.791C11461.418,5606.006,11460.588,5606.094,11459.761,5606.154Zm-7.415-.18c-.412-.047-.829-.1-1.246-.161-.354.024-.73.035-1.125.035h-.022v-.8h.023c.39,0,.766-.013,1.112-.037l.043,0,.041.006c.424.062.85.117,1.264.165Zm-4.881-.256c-.761-.074-1.587-.178-2.454-.312l.12-.789c.854.131,1.665.234,2.411.3Zm17.2-.262-.169-.779c.794-.172,1.581-.374,2.344-.6l.229.766C11466.287,5605.075,11465.477,5605.282,11464.666,5605.457Zm-53.491-.12-.21-.771c.783-.215,1.588-.417,2.395-.6l.176.778C11412.739,5604.925,11411.946,5605.124,11411.175,5605.336Zm31.406-.355-.119-.023c-.76-.149-1.53-.29-2.282-.418l.134-.787c.759.13,1.534.271,2.3.422l.116.023Zm-26.66-.713-.139-.786c.8-.142,1.619-.27,2.438-.379l.106.792C11417.518,5604,11416.709,5604.128,11415.921,5604.268Zm21.846-.106c-.807-.115-1.621-.219-2.42-.31l.09-.793c.806.092,1.63.2,2.441.313Zm-73.709-.088c-.582-.583-1.152-1.192-1.692-1.81l.6-.525c.527.6,1.087,1.2,1.657,1.77Zm105.358-.034-.286-.745c.754-.291,1.5-.616,2.217-.964l.348.718C11470.957,5603.408,11470.193,5603.741,11469.416,5604.04Zm-48.671-.417-.072-.795c.808-.074,1.637-.135,2.46-.178l.044.8C11422.362,5603.49,11421.544,5603.549,11420.745,5603.623Zm12.174-.009c-.814-.068-1.631-.124-2.433-.165l.041-.8c.808.042,1.637.1,2.457.166Zm-4.87-.25c-.433-.007-.866-.012-1.292-.012h-.007c-.379,0-.763,0-1.138.01l-.015-.8c.382-.006.775-.007,1.159-.009.43,0,.868,0,1.3.012Zm45.834-1.5-.41-.685c.69-.413,1.369-.86,2.016-1.328l.469.646C11475.292,5600.984,11474.594,5601.444,11473.883,5601.869Zm-113.085-1.524c-.5-.659-.983-1.339-1.432-2.023l.667-.439c.438.67.909,1.335,1.4,1.979Zm117.1-1.392-.523-.6c.605-.528,1.189-1.089,1.742-1.669l.578.55C11479.13,5597.83,11478.525,5598.408,11477.9,5598.953Zm-119.821-2.753c-.407-.726-.784-1.469-1.128-2.211l.727-.335c.333.724.7,1.449,1.1,2.157Zm123.247-.846-.626-.494c.5-.628.968-1.287,1.4-1.96l.672.434C11482.325,5594.028,11481.838,5594.707,11481.327,5595.354ZM11356,5591.7c-.291-.784-.545-1.58-.762-2.366l.77-.211c.21.765.459,1.539.741,2.3Zm128.029-.508-.706-.372c.373-.706.718-1.441,1.027-2.185l.737.307C11484.772,5589.705,11484.415,5590.462,11484.03,5591.188Zm-129.34-4.284c-.146-.823-.253-1.654-.315-2.469l.793-.062c.063.789.165,1.593.308,2.391Zm131.257-.3-.762-.243c.241-.759.455-1.543.636-2.332l.778.179C11486.415,5585.022,11486.193,5585.828,11485.947,5586.608Zm-130.841-4.641-.8-.022a22.042,22.042,0,0,1,.208-2.488l.012-.085.791.113-.012.083A21.161,21.161,0,0,0,11355.106,5581.968Zm131.949-.194-.79-.116c.115-.788.2-1.6.26-2.406l.8.057C11487.265,5580.136,11487.174,5580.965,11487.056,5581.773Zm-131.252-4.64-.771-.208a19.056,19.056,0,0,1,.812-2.367l.736.309A18.253,18.253,0,0,0,11355.8,5577.133Zm130.8-.3c0-.8-.034-1.613-.091-2.423l.8-.055c.058.828.09,1.661.09,2.477Zm-128.951-4.1-.687-.408a17.817,17.817,0,0,1,1.427-2.06l.622.5A17.107,17.107,0,0,0,11357.655,5572.727Zm128.615-.729c-.106-.792-.241-1.6-.4-2.39l.785-.156c.16.811.3,1.631.406,2.439Zm-125.934-3.369-.689-.4c.417-.708.843-1.417,1.269-2.107l.681.418C11361.175,5567.223,11360.75,5567.927,11360.337,5568.629Zm124.99-1.385c-.2-.772-.427-1.557-.676-2.329l.759-.245c.253.786.486,1.584.691,2.372Zm-122.426-2.771-.671-.435c.447-.69.905-1.379,1.361-2.049l.659.45C11363.8,5563.1,11363.345,5563.789,11362.9,5564.474Zm120.943-1.849c-.288-.749-.6-1.5-.931-2.246l.729-.325c.335.754.652,1.522.944,2.285Zm-118.194-2.186-.648-.465c.477-.666.968-1.333,1.457-1.981l.639.481C11366.61,5559.116,11366.124,5559.778,11365.65,5560.438Zm116.22-2.255c-.361-.715-.75-1.435-1.151-2.139l.694-.395c.409.715.8,1.446,1.169,2.172Zm-113.279-1.639-.624-.5c.511-.642,1.036-1.283,1.558-1.906l.611.514C11369.618,5555.271,11369.1,5555.907,11368.591,5556.544Zm110.878-2.582c-.432-.679-.885-1.359-1.352-2.021l.655-.459c.472.674.932,1.364,1.367,2.053Zm-107.74-1.155-.6-.529c.544-.615,1.1-1.227,1.658-1.819l.584.546C11372.822,5551.592,11372.271,5552.2,11371.729,5552.808Zm104.949-2.825c-.491-.638-1.006-1.274-1.526-1.892l.609-.516c.529.626,1.049,1.272,1.549,1.919Zm-101.609-.732-.566-.563c.576-.581,1.169-1.16,1.762-1.721l.548.58C11376.228,5548.1,11375.638,5548.676,11375.068,5549.25Zm98.474-2.983c-.546-.592-1.113-1.182-1.687-1.752l.563-.565c.581.578,1.156,1.176,1.712,1.777Zm-94.937-.373-.533-.6c.612-.546,1.239-1.088,1.865-1.611l.511.612C11379.83,5544.816,11379.211,5545.354,11378.605,5545.895Zm91.487-3.057c-.6-.543-1.213-1.082-1.834-1.6l.511-.613c.63.525,1.255,1.07,1.86,1.622Zm-87.751-.077-.5-.626c.646-.507,1.307-1.009,1.963-1.493l.472.644C11383.632,5541.764,11382.979,5542.259,11382.342,5542.761Zm3.926-2.888-.452-.659c.674-.462,1.366-.92,2.054-1.36l.431.672C11387.619,5538.96,11386.936,5539.413,11386.268,5539.873Zm80.089-.152c-.643-.491-1.3-.974-1.964-1.436l.455-.654c.671.468,1.343.958,2,1.455Zm-75.982-2.473-.405-.687c.7-.417,1.424-.828,2.141-1.219l.384.7C11391.784,5536.428,11391.072,5536.834,11390.374,5537.248Zm71.992-.309c-.686-.433-1.389-.855-2.086-1.256l.4-.693c.709.406,1.42.834,2.115,1.274Zm-67.717-2.033-.358-.712c.73-.369,1.477-.729,2.22-1.071l.333.724C11396.11,5534.185,11395.372,5534.542,11394.649,5534.905Zm63.491-.381c-.72-.371-1.457-.727-2.188-1.06l.332-.728c.743.339,1.49.7,2.221,1.077Zm-59.065-1.662-.312-.736c.755-.318,1.524-.626,2.289-.917l.283.746C11400.582,5532.242,11399.82,5532.548,11399.075,5532.862Zm54.64-.355c-.558-.223-1.128-.439-1.689-.641l-.594-.214.271-.75.592.212c.571.206,1.15.425,1.719.652Zm-50.086-1.381-.26-.756c.774-.265,1.564-.519,2.348-.757l.232.763C11405.175,5530.612,11404.393,5530.864,11403.629,5531.126Zm45.5-.3c-.9-.318-1.63-.569-2.312-.79l.247-.76c.688.224,1.429.478,2.329.8Zm-40.835-1.117-.206-.771c.791-.211,1.595-.412,2.391-.6l.183.777C11409.87,5529.3,11409.075,5529.5,11408.293,5529.706Zm36.2-.366c-.848-.225-1.618-.4-2.358-.526l.138-.787c.762.133,1.554.31,2.426.541Zm-31.445-.734-.153-.783c.8-.157,1.62-.3,2.427-.433l.127.788C11414.645,5528.306,11413.836,5528.451,11413.043,5528.606Zm26.656-.2c-.5-.1-1.322-.265-2.393-.43l.123-.789c1.089.168,1.924.331,2.434.438Zm-21.84-.58-.1-.792c.812-.1,1.635-.195,2.45-.271l.076.794C11419.476,5527.636,11418.66,5527.727,11417.859,5527.829Zm17.031-.17c-.794-.088-1.61-.165-2.426-.226l.061-.8c.824.063,1.651.138,2.456.229Zm-12.175-.286-.049-.8c.818-.05,1.647-.086,2.465-.108l.021.8C11424.344,5527.286,11423.525,5527.323,11422.716,5527.373Zm7.313-.078c-.806-.034-1.626-.052-2.437-.057l0-.8c.82.006,1.648.025,2.465.057Z" transform="translate(-11354.309 -5526.438)" fill="#accaf0"/>
            </g>
          </g>
          <g id="Group_1734-3" data-name="Group 1734" transform="translate(19.255 21.694)" opacity="0.97" style="isolation: isolate">
            <path id="Path_570-6" data-name="Path 570" d="M11360.179,5638.443a3.335,3.335,0,1,1,3.332-3.335A3.337,3.337,0,0,1,11360.179,5638.443Zm0-5.872a2.537,2.537,0,1,0,2.534,2.537A2.538,2.538,0,0,0,11360.179,5632.571Z" transform="translate(-11356.847 -5631.772)" fill="#accaf0"/>
          </g>
          <g id="Group_1735-3" data-name="Group 1735" transform="translate(148.748 7.455)" opacity="0.97" style="isolation: isolate">
            <path id="Path_571-5" data-name="Path 571" d="M12940.621,5465.4l-3.689-3.691,3.689-3.69,3.691,3.69Zm-2.561-3.691,2.561,2.563,2.564-2.562-2.564-2.561Z" transform="translate(-12936.932 -5458.021)" fill="#accaf0"/>
          </g>
          <g id="Group_1738-2" data-name="Group 1738" transform="translate(121.825 43.868)">
            <g id="Group_1736-2" data-name="Group 1736" transform="translate(0)">
              <path id="Path_572-2" data-name="Path 572" d="M12631.6,5941.446l5.113,5.333a53.343,53.343,0,0,0,5.08-5.88,56.612,56.612,0,0,0,7.113-12.966l-5.264-2.719,6.422-.452a73.108,73.108,0,0,0,3.838-22.419s-18.506,5.183-31.154,19.962l1.906,4.759-3.6-2.671c-.182.237-.363.476-.541.716-12.566,16.935-12.109,38.558-12.109,38.558a73.071,73.071,0,0,0,25.615-14.352Z" transform="translate(-12608.399 -5902.342)" fill="#573ccb"/>
            </g>
            <g id="Group_1737-2" data-name="Group 1737" transform="translate(12.832 0.543)">
              <path id="Path_573-2" data-name="Path 573" d="M12765.34,5953.583a.355.355,0,0,1-.148-.032.366.366,0,0,1-.189-.486c5.445-12.373,18.967-31.283,31.455-43.984a.368.368,0,1,1,.525.516c-12.432,12.648-25.893,31.462-31.307,43.766A.366.366,0,0,1,12765.34,5953.583Z" transform="translate(-12764.97 -5908.97)" fill="#fff"/>
            </g>
          </g>
          <g id="Group_1743-2" data-name="Group 1743" transform="translate(5.291 47.033)">
            <g id="Group_1741-2" data-name="Group 1741">
              <g id="Group_1739-2" data-name="Group 1739" transform="translate(0.654 0.49)">
                <path id="Path_574-2" data-name="Path 574" d="M11234,5968.475l5.232-5.216a53.423,53.423,0,0,0-5.979-4.966,56.631,56.631,0,0,0-13.1-6.856l-2.617,5.314-.577-6.412a73.11,73.11,0,0,0-22.49-3.395s5.546,18.4,20.57,30.756l4.721-2-2.6,3.652q.36.267.728.527c17.176,12.23,38.787,11.35,38.787,11.35a73.065,73.065,0,0,0-14.852-25.328Z" transform="translate(-11194.461 -5946.93)" fill="#fff"/>
              </g>
              <g id="Group_1740-2" data-name="Group 1740">
                <path id="Path_575-2" data-name="Path 575" d="M11248.41,5986.252a73.147,73.147,0,0,1-12.106-1.108,72.266,72.266,0,0,1-12.616-3.352,57.273,57.273,0,0,1-13.42-6.994c-.237-.169-.478-.343-.734-.533l-.387-.287,1.869-2.631-3.393,1.437-.23-.188a60.383,60.383,0,0,1-9.632-10.1,74.023,74.023,0,0,1-6.408-10.06,67.3,67.3,0,0,1-4.688-10.834l-.184-.608.634-.025a74.387,74.387,0,0,1,22.66,3.418l.312.1.45,4.994,2.037-4.143.419.155a57.286,57.286,0,0,1,13.217,6.917,54.4,54.4,0,0,1,6.031,5.012l.363.349-4.119,4.108,6.152-2.024.216.234a72.91,72.91,0,0,1,11.53,17.163,63.047,63.047,0,0,1,3.428,8.357l.184.608-.634.026C11249.345,5986.239,11249.015,5986.252,11248.41,5986.252Zm-37.9-12.492c.112.081.219.159.33.238,8.788,6.259,18.777,8.985,25.608,10.173a71.6,71.6,0,0,0,12.221,1.1,67.434,67.434,0,0,0-3.177-7.61,72.167,72.167,0,0,0-11.15-16.673l-9.484,3.119,6.342-6.322a53.114,53.114,0,0,0-5.561-4.573,55.884,55.884,0,0,0-12.574-6.641l-3.192,6.487-.705-7.83a74.719,74.719,0,0,0-21.355-3.286,69.99,69.99,0,0,0,4.424,10.056,66.411,66.411,0,0,0,15.554,19.651l6.048-2.56Z" transform="translate(-11186.48 -5940.956)" fill="#3c58a4"/>
              </g>
            </g>
            <g id="Group_1742-2" data-name="Group 1742" transform="translate(1.126 1.002)">
              <path id="Path_576-2" data-name="Path 576" d="M11245.232,5984.76a.534.534,0,0,1-.2-.041c-12.5-5.208-31.687-18.371-44.645-30.619a.533.533,0,0,1,.731-.774c12.877,12.172,31.931,25.246,44.319,30.41a.532.532,0,0,1-.2,1.024Z" transform="translate(-11200.217 -5953.181)" fill="#accaf0"/>
            </g>
          </g>
          <g id="Group_1746-2" data-name="Group 1746" transform="translate(35.352 81.291)">
            <g id="Group_1744-2" data-name="Group 1744" transform="translate(0.492 0.492)">
              <rect id="Rectangle_2054-2" data-name="Rectangle 2054" width="115.152" height="30.174" rx="4" fill="#fff"/>
            </g>
            <g id="Group_1745-2" data-name="Group 1745" transform="translate(0 0)">
              <path id="Path_577-2" data-name="Path 577" d="M11665.406,6390.122h-108.155a3.993,3.993,0,0,1-3.991-3.988v-23.179a4,4,0,0,1,3.991-3.989h108.155a3.994,3.994,0,0,1,3.989,3.989v23.179A3.993,3.993,0,0,1,11665.406,6390.122Zm-108.155-30.173a3.01,3.01,0,0,0-3.008,3.006v23.179a3.009,3.009,0,0,0,3.008,3h108.155a3.009,3.009,0,0,0,3.006-3v-23.179a3.01,3.01,0,0,0-3.006-3.006Z" transform="translate(-11553.26 -6358.965)" fill="#3c58a4"/>
            </g>
          </g>
          <g id="Group_1749-2" data-name="Group 1749" transform="translate(43.008 51.055)">
            <g id="Group_1747-2" data-name="Group 1747" transform="translate(0.492 0.492)">
              <rect id="Rectangle_2055-2" data-name="Rectangle 2055" width="99.838" height="30.174" rx="3" fill="#fff"/>
            </g>
            <g id="Group_1748-2" data-name="Group 1748" transform="translate(0 0)">
              <path id="Path_578-2" data-name="Path 578" d="M11743.767,6021.2h-93.324a3.753,3.753,0,0,1-3.748-3.749v-23.659a3.753,3.753,0,0,1,3.748-3.749h93.324a3.754,3.754,0,0,1,3.749,3.749v23.659A3.754,3.754,0,0,1,11743.767,6021.2Zm-93.324-30.174a2.769,2.769,0,0,0-2.766,2.766v23.659a2.768,2.768,0,0,0,2.766,2.765h93.324a2.769,2.769,0,0,0,2.766-2.765v-23.659a2.77,2.77,0,0,0-2.766-2.766Z" transform="translate(-11646.694 -5990.046)" fill="#3c58a4"/>
            </g>
          </g>
          <g id="Group_1752-2" data-name="Group 1752" transform="translate(59.293 30.774)">
            <g id="Group_1750-2" data-name="Group 1750" transform="translate(0.492 0.492)">
              <rect id="Rectangle_2056-2" data-name="Rectangle 2056" width="67.267" height="20.573" rx="2" fill="#fff"/>
            </g>
            <g id="Group_1751-2" data-name="Group 1751" transform="translate(0 0)">
              <path id="Path_579-2" data-name="Path 579" d="M11910.971,5767.087h-62.878a2.706,2.706,0,0,1-2.687-2.718v-16.123a2.7,2.7,0,0,1,2.687-2.716h62.878a2.705,2.705,0,0,1,2.687,2.716v16.123A2.707,2.707,0,0,1,11910.971,5767.087Zm-62.878-20.562a1.713,1.713,0,0,0-1.7,1.721v16.123a1.714,1.714,0,0,0,1.7,1.722h62.878a1.715,1.715,0,0,0,1.7-1.722v-16.123a1.714,1.714,0,0,0-1.7-1.721Z" transform="translate(-11845.406 -5745.53)" fill="#3c58a4"/>
            </g>
          </g>
          <g id="Group_1753-2" data-name="Group 1753" transform="translate(35.986 25.28)">
            <g id="Path_174-4" data-name="Path 174" transform="translate(0 2.023)">
              <path id="Path_580-2" data-name="Path 580" d="M11576.1,5714.154a57.707,57.707,0,0,1,3.4,7.05s-2.493,1.494-2.994,1.8c-2.016,1.233-5.465-.728-7.7-4.381s-2.421-7.619-.405-8.854c.492-.3,3.033-1.827,3.033-1.827A59.165,59.165,0,0,1,11576.1,5714.154Z" transform="translate(-11566.506 -5707.312)" fill="#fff"/>
              <path id="Path_581-2" data-name="Path 581" d="M11569.615,5716.759a5.387,5.387,0,0,1-2.629-.793,13.129,13.129,0,0,1-5.983-9.762c-.085-1.859.493-3.266,1.628-3.961.487-.3,2.935-1.766,3.039-1.829l.354-.213.271.314a59.76,59.76,0,0,1,4.707,6.258l.016.026a58.028,58.028,0,0,1,3.431,7.109l.154.389-.358.216c-.024.015-2.494,1.5-2.991,1.8A3.1,3.1,0,0,1,11569.615,5716.759Zm-3.8-15.288c-.718.431-2.3,1.381-2.676,1.611-1.75,1.072-1.489,4.817.569,8.177a11.09,11.09,0,0,0,3.76,3.853c1.293.735,2.453.865,3.269.366.39-.24,1.927-1.163,2.637-1.59a57.113,57.113,0,0,0-3.206-6.587A58.833,58.833,0,0,0,11565.818,5701.471Z" transform="translate(-11560.995 -5700.201)" fill="#e9b640"/>
            </g>
            <g id="Ellipse_315-4" data-name="Ellipse 315" transform="translate(1.909 0)">
              <ellipse id="Ellipse_426-2" data-name="Ellipse 426" cx="4.279" cy="7.761" rx="4.279" ry="7.761" transform="matrix(0.853, -0.522, 0.522, 0.853, 0, 4.472)" fill="#fff"/>
              <path id="Path_582-2" data-name="Path 582" d="M11614.258,5707.226a5.4,5.4,0,0,1-2.627-.793,12.059,12.059,0,0,1-4.111-4.194c-2.42-3.945-2.525-8.131-.244-9.529,1.135-.694,2.65-.571,4.268.349a12.106,12.106,0,0,1,4.113,4.194h0a12.1,12.1,0,0,1,1.867,5.568c.088,1.859-.49,3.267-1.625,3.962A3.1,3.1,0,0,1,11614.258,5707.226Zm-5.338-13.977a2.127,2.127,0,0,0-1.131.3c-1.75,1.072-1.49,4.817.566,8.177a11.14,11.14,0,0,0,3.76,3.854c1.293.734,2.455.864,3.27.365s1.225-1.593,1.158-3.077a12.155,12.155,0,0,0-5.486-8.953A4.438,4.438,0,0,0,11608.92,5693.249Z" transform="translate(-11603.883 -5690.893)" fill="#e9b640"/>
            </g>
          </g>
          <g id="Group_1754-2" data-name="Group 1754" transform="translate(121.856 44.775)">
            <g id="Path_174-5" data-name="Path 174" transform="translate(0 0)">
              <path id="Path_583-2" data-name="Path 583" d="M12622.51,5927.188a48.161,48.161,0,0,1-4.578,4.668s-1.879-1.534-2.264-1.842c-1.543-1.234-.979-4.5,1.262-7.295s5.3-4.059,6.844-2.825c.373.3,2.291,1.868,2.291,1.868A49.1,49.1,0,0,1,12622.51,5927.188Z" transform="translate(-12614.307 -5918.928)" fill="#fff"/>
              <path id="Path_584-2" data-name="Path 584" d="M12612.427,5926.972l-.324-.264c-.021-.016-1.883-1.537-2.262-1.841a3.533,3.533,0,0,1-.963-3.529,10.168,10.168,0,0,1,2.148-4.456c2.447-3.052,5.754-4.326,7.533-2.9.375.3,2.219,1.808,2.3,1.872l.324.262-.207.362a50.271,50.271,0,0,1-3.592,5.48l-.02.023a48.684,48.684,0,0,1-4.621,4.713Zm4.352-12.592c-1.441,0-3.439,1.19-4.986,3.117a9.175,9.175,0,0,0-1.945,4.009,2.633,2.633,0,0,0,.607,2.594c.289.23,1.387,1.125,1.943,1.58a47.848,47.848,0,0,0,4.209-4.328,48.98,48.98,0,0,0,3.307-5c-.562-.458-1.691-1.381-1.967-1.6A1.826,1.826,0,0,0,12616.778,5914.379Z" transform="translate(-12608.787 -5913.397)" fill="#e9b640"/>
            </g>
            <g id="Ellipse_315-5" data-name="Ellipse 315" transform="translate(1.375 0.977)">
              <ellipse id="Ellipse_427-2" data-name="Ellipse 427" cx="6.482" cy="3.575" rx="6.482" ry="3.575" transform="translate(0 10.119) rotate(-51.306)" fill="#fff"/>
              <path id="Path_585-2" data-name="Path 585" d="M12645.815,5952.839a2.8,2.8,0,0,1-1.781-.583c-1.779-1.426-1.26-4.933,1.188-7.985a10.158,10.158,0,0,1,3.879-3.07,3.544,3.544,0,0,1,3.656.169c1.779,1.426,1.258,4.934-1.187,7.985h0C12649.8,5951.561,12647.583,5952.839,12645.815,5952.839Zm5.16-11.069a3.987,3.987,0,0,0-1.5.34,9.175,9.175,0,0,0-3.488,2.776c-2.029,2.534-2.645,5.558-1.34,6.6s4.121-.215,6.152-2.748,2.643-5.559,1.34-6.6A1.833,1.833,0,0,0,12650.976,5941.77Z" transform="translate(-12641.551 -5939.519)" fill="#e9b640"/>
            </g>
          </g>
          <g id="Group_1756-2" data-name="Group 1756" transform="translate(51.084 81.954)" opacity="0.15" style="isolation: isolate">
            <g id="Group_1755-2" data-name="Group 1755" transform="translate(0 0)">
              <path id="Path_586-2" data-name="Path 586" d="M11835.16,6392.855l-85.67,0c-2.351,0-4.258-.571-4.258-1.274v-23.251c0-.705,1.907-1.276,4.258-1.276l85.67.164c2.353,0,4.258.57,4.258,1.273v23.084C11839.418,6392.285,11837.513,6392.855,11835.16,6392.855Z" transform="translate(-11745.232 -6367.059)" fill="#accaf0"/>
            </g>
          </g>
          <g id="Group_1758-2" data-name="Group 1758" transform="translate(55.023 55.228)" opacity="0.15" style="isolation: isolate">
            <g id="Group_1757-2" data-name="Group 1757" transform="translate(0 0)">
              <path id="Path_587-2" data-name="Path 587" d="M11872.5,6066.737l-75.456,0c-2.074,0-3.752-.57-3.752-1.274v-23.252c0-.7,1.678-1.274,3.752-1.274l75.456.161c2.071,0,3.748.57,3.748,1.276v23.083C11876.249,6066.167,11874.572,6066.737,11872.5,6066.737Z" transform="translate(-11793.293 -6040.941)" fill="#accaf0"/>
            </g>
          </g>
          <g id="Group_1760-2" data-name="Group 1760" transform="translate(69.601 33.36)" opacity="0.15" style="isolation: isolate">
            <g id="Group_1759-2" data-name="Group 1759">
              <path id="Path_588-2" data-name="Path 588" d="M12021.22,5790.891l-47.676,0c-1.308,0-2.368-.369-2.368-.827v-15.119c0-.458,1.061-.829,2.368-.829l47.676.105c1.308,0,2.367.371,2.367.829v15.009C12023.587,5790.52,12022.527,5790.891,12021.22,5790.891Z" transform="translate(-11971.176 -5774.118)" fill="#accaf0"/>
            </g>
          </g>
          <g id="Group_1763-2" data-name="Group 1763" transform="translate(86.291 13.272)">
            <g id="Group_1761-2" data-name="Group 1761" transform="translate(0.492 0.492)">
              <rect id="Rectangle_2057-2" data-name="Rectangle 2057" width="5.554" height="17.702" fill="#fff"/>
            </g>
            <g id="Group_1762-2" data-name="Group 1762">
              <path id="Path_589-2" data-name="Path 589" d="M12181.36,5547.686h-6.536V5529h6.536Zm-5.554-.983h4.57v-16.719h-4.57Z" transform="translate(-12174.824 -5529)" fill="#3c58a4"/>
            </g>
          </g>
          <g id="Group_1766-2" data-name="Group 1766" transform="translate(97.745 10.369)">
            <g id="Group_1764-2" data-name="Group 1764" transform="translate(0.492 0.492)">
              <rect id="Rectangle_2058-2" data-name="Rectangle 2058" width="5.554" height="20.604" fill="#fff"/>
            </g>
            <g id="Group_1765-2" data-name="Group 1765" transform="translate(0 0)">
              <path id="Path_590-2" data-name="Path 590" d="M12321.125,5515.176h-6.537v-21.588h6.537Zm-5.553-.983h4.568v-19.621h-4.568Z" transform="translate(-12314.588 -5493.588)" fill="#3c58a4"/>
            </g>
          </g>
          <g id="Group_1767-2" data-name="Group 1767" transform="translate(87.303 3.775)">
            <path id="Path_591-2" data-name="Path 591" d="M12191.3,5419.173c-.644,2.556-1.634,2.373-1.956,2.333-1.158-.145-2.17-1.251-2.17-3.568a5.531,5.531,0,0,1,2.17-4.819C12188.909,5416.2,12192.159,5415.768,12191.3,5419.173Z" transform="translate(-12187.176 -5413.118)" fill="#e9b640"/>
          </g>
          <g id="Group_1768-2" data-name="Group 1768" transform="translate(98.356 0)">
            <path id="Path_592-2" data-name="Path 592" d="M12322.2,5373.115c.642,2.557,1.633,2.374,1.957,2.333,1.157-.146,2.169-1.25,2.169-3.568a5.533,5.533,0,0,0-2.169-4.82C12324.594,5370.145,12321.344,5369.71,12322.2,5373.115Z" transform="translate(-12322.058 -5367.061)" fill="#e9b640"/>
          </g>
          <g id="Group_1769-2" data-name="Group 1769" transform="translate(139.128 95.015)">
            <g id="Path_174-6" data-name="Path 174" transform="translate(0 0)">
              <path id="Path_593-2" data-name="Path 593" d="M12834.63,6541.664a56.985,56.985,0,0,1-4.637,6.307s-2.486-1.5-3-1.8c-2.033-1.2-1.918-5.166.262-8.858s5.6-5.709,7.631-4.507c.5.293,3.035,1.825,3.035,1.825A59.379,59.379,0,0,1,12834.63,6541.664Z" transform="translate(-12825.054 -6531.965)" fill="#fff"/>
              <path id="Path_594-2" data-name="Path 594" d="M12824.588,6543.074l-.357-.217c-.023-.016-2.492-1.5-2.992-1.8-1.145-.676-1.746-2.073-1.689-3.935a13.1,13.1,0,0,1,5.82-9.859c1.6-.946,3.113-1.1,4.258-.418.5.29,2.936,1.764,3.041,1.827l.355.213-.15.386a60.011,60.011,0,0,1-3.324,7.093l-.014.025a58.289,58.289,0,0,1-4.676,6.361Zm3.457-15.658c-1.8,0-4.234,1.834-5.873,4.612-2,3.393-2.2,7.141-.434,8.186.393.231,1.93,1.156,2.641,1.584a57.151,57.151,0,0,0,4.316-5.919,59.359,59.359,0,0,0,3.109-6.576l-2.674-1.609A2.126,2.126,0,0,0,12828.045,6527.416Z" transform="translate(-12819.545 -6526.43)" fill="#e9b640"/>
            </g>
            <g id="Ellipse_315-6" data-name="Ellipse 315" transform="translate(1.964 0.85)">
              <ellipse id="Ellipse_428-2" data-name="Ellipse 428" cx="7.761" cy="4.279" rx="7.761" ry="4.279" transform="matrix(0.508, -0.861, 0.861, 0.508, 0, 13.366)" fill="#fff"/>
              <path id="Path_595-2" data-name="Path 595" d="M12867.939,6568.125a3.064,3.064,0,0,1-1.592-.418c-2.3-1.36-2.268-5.547.086-9.531s6-6.042,8.3-4.682,2.268,5.547-.084,9.532h0C12872.787,6566.18,12870.115,6568.125,12867.939,6568.125Zm5.213-14.062c-1.8,0-4.232,1.833-5.873,4.612-2,3.394-2.2,7.141-.432,8.185s4.953-.94,6.955-4.334,2.2-7.142.434-8.186A2.1,2.1,0,0,0,12873.152,6554.063Z" transform="translate(-12862.912 -6551.742)" fill="#e9b640"/>
            </g>
          </g>
          <g id="Group_1772-2" data-name="Group 1772" transform="translate(59.785 31.508)">
            <g id="Group_1771-2" data-name="Group 1771" transform="translate(0 0)" clip-path="url(#clip-path)">
              <g id="Group_1770-2" data-name="Group 1770" transform="translate(-2.94 -7.868)">
                <path id="Path_596-2" data-name="Path 596" d="M11915.961,5663.631h-.092a3.956,3.956,0,0,1-3.957-3.958v-.187a3.959,3.959,0,0,0-3.959-3.958h-.279a3.959,3.959,0,0,0-3.959,3.958v.187a3.956,3.956,0,0,1-7.859.648,4,4,0,0,0,.039-.555v-.279a3.957,3.957,0,0,0-3.957-3.958h-.373a3.956,3.956,0,0,0-3.957,3.958v.279a3.72,3.72,0,0,0,.039.555,3.958,3.958,0,0,1-7.863-.648v-.187a3.957,3.957,0,0,0-3.955-3.958h-.279a3.959,3.959,0,0,0-3.959,3.958v.187a3.866,3.866,0,1,1-7.73,0v-.187a3.957,3.957,0,0,0-3.957-3.958h-.279a3.957,3.957,0,0,0-3.957,3.958v.187a3.958,3.958,0,0,1-7.863.648,3.72,3.72,0,0,0,.041-.555v-.279a3.958,3.958,0,0,0-3.959-3.958h-.373a3.959,3.959,0,0,0-3.957,3.958v.279a4.325,4.325,0,0,0,.039.555,3.957,3.957,0,0,1-7.861-.648v-.187a3.958,3.958,0,0,0-3.959-3.958h-.277a3.956,3.956,0,0,0-3.957,3.958v.187a3.959,3.959,0,0,1-3.959,3.958h-.092a3.958,3.958,0,0,0-3.959,3.958v.279a3.958,3.958,0,0,0,3.959,3.958h.277a3.959,3.959,0,0,0,3.959-3.958v-.187a3.957,3.957,0,1,1,7.914,0v.187a3.959,3.959,0,0,0,3.959,3.958h.279a3.956,3.956,0,0,0,3.957-3.958v-.187a3.865,3.865,0,1,1,7.729,0v.187a3.959,3.959,0,0,0,3.959,3.958h.279a3.959,3.959,0,0,0,3.959-3.958v-.187a3.956,3.956,0,0,1,7.859-.648,4.346,4.346,0,0,0-.039.556v.279a3.958,3.958,0,0,0,3.959,3.958h.371a3.958,3.958,0,0,0,3.959-3.958v-.279a4.346,4.346,0,0,0-.039-.556,3.956,3.956,0,0,1,7.859.648v.187a3.959,3.959,0,0,0,3.959,3.958h.279a3.959,3.959,0,0,0,3.959-3.958v-.187a3.866,3.866,0,1,1,7.73,0v.187a3.956,3.956,0,0,0,3.955,3.958h.281a3.959,3.959,0,0,0,3.957-3.958v-.187a3.957,3.957,0,1,1,7.914,0v.187a3.959,3.959,0,0,0,3.959,3.958h.277a3.958,3.958,0,0,0,3.959-3.958v-.279A3.958,3.958,0,0,0,11915.961,5663.631Z" transform="translate(-11815.529 -5655.529)" fill="#573ccb"/>
              </g>
            </g>
          </g>
        </g>
        <text id="Happy_Birthday_2" data-name="Happy 
Birthday!" transform="translate(38 94.15)" fill="#fff" font-size="26" font-family="Rubik-Medium, Rubik" font-weight="500"><tspan x="0" y="0">Happy </tspan><tspan x="0" y="31">Birthday!</tspan></text>
      </g>
    </g>
    <text id="It_is_a_long_established_fact_that_a_reader_will_be_distracted_by_the_readable_content._It_is_a_long_established_fact_that_a_reader_will_be_distracted_by_the_readable_content.-2" data-name="It is a long established fact that a reader will be distracted by the readable content. It is a long established fact that a reader will be distracted by the readable content." transform="translate(113 789)" fill="#fff" font-size="13" font-family="Rubik-Regular, Rubik"><tspan x="0" y="12">It is a long established fact that a reader will be distracted </tspan><tspan x="0" y="32">by the readable content. It is a long established fact that a </tspan><tspan x="0" y="52">reader will be distracted by the readable content.</tspan></text>
    <g id="Group_2486" data-name="Group 2486" transform="translate(76.681 479.265)">
      <g id="Group_1734-4" data-name="Group 1734" transform="translate(418.954 105.138)" opacity="0.97" style="isolation: isolate">
        <path id="Path_570-7" data-name="Path 570" d="M11360.179,5638.443a3.335,3.335,0,1,1,3.332-3.335A3.337,3.337,0,0,1,11360.179,5638.443Zm0-5.872a2.537,2.537,0,1,0,2.534,2.537A2.538,2.538,0,0,0,11360.179,5632.571Z" transform="translate(-11356.847 -5631.772)" fill="none" stroke="#4070f4" stroke-width="1"/>
      </g>
      <g id="Group_1815-2" data-name="Group 1815" transform="translate(41.004 93.245)" opacity="0.97" style="isolation: isolate">
        <path id="Path_570-8" data-name="Path 570" d="M11360.179,5638.443a3.335,3.335,0,1,1,3.332-3.335A3.337,3.337,0,0,1,11360.179,5638.443Zm0-5.872a2.537,2.537,0,1,0,2.534,2.537A2.538,2.538,0,0,0,11360.179,5632.571Z" transform="translate(-11356.847 -5631.772)" fill="none" stroke="#4070f4" stroke-width="1"/>
      </g>
      <g id="Group_1816-2" data-name="Group 1816" transform="translate(44.968 295.435)" opacity="0.97" style="isolation: isolate">
        <path id="Path_570-9" data-name="Path 570" d="M11360.179,5638.443a3.335,3.335,0,1,1,3.332-3.335A3.337,3.337,0,0,1,11360.179,5638.443Zm0-5.872a2.537,2.537,0,1,0,2.534,2.537A2.538,2.538,0,0,0,11360.179,5632.571Z" transform="translate(-11356.847 -5631.772)" fill="none" stroke="#4070f4" stroke-width="1"/>
      </g>
      <g id="Group_1819-2" data-name="Group 1819" transform="translate(141.438 369.439)" opacity="0.97" style="isolation: isolate">
        <path id="Path_570-10" data-name="Path 570" d="M11360.179,5638.443a3.335,3.335,0,1,1,3.332-3.335A3.337,3.337,0,0,1,11360.179,5638.443Zm0-5.872a2.537,2.537,0,1,0,2.534,2.537A2.538,2.538,0,0,0,11360.179,5632.571Z" transform="translate(-11356.847 -5631.772)" fill="none" stroke="#4070f4" stroke-width="1"/>
      </g>
      <g id="Group_1735-4" data-name="Group 1735" transform="translate(0.023 283.838)" opacity="0.97" style="isolation: isolate">
        <path id="Path_571-6" data-name="Path 571" d="M12940.621,5465.4l-3.689-3.691,3.689-3.69,3.691,3.69Zm-2.561-3.691,2.561,2.563,2.564-2.562-2.564-2.561Z" transform="translate(-12936.932 -5458.021)" fill="none" stroke="#4070f4" stroke-width="1"/>
      </g>
      <g id="Group_1814-2" data-name="Group 1814" transform="translate(409.689 291.767)" opacity="0.97" style="isolation: isolate">
        <path id="Path_571-7" data-name="Path 571" d="M12940.621,5465.4l-3.689-3.691,3.689-3.69,3.691,3.69Zm-2.561-3.691,2.561,2.563,2.564-2.562-2.564-2.561Z" transform="translate(-12936.932 -5458.021)" fill="none" stroke="#4070f4" stroke-width="1"/>
      </g>
      <g id="Group_1820-2" data-name="Group 1820" transform="translate(334.363 127.466)" opacity="0.97" style="isolation: isolate">
        <path id="Path_571-8" data-name="Path 571" d="M12940.621,5465.4l-3.689-3.691,3.689-3.69,3.691,3.69Zm-2.561-3.691,2.561,2.563,2.564-2.562-2.564-2.561Z" transform="translate(-12936.932 -5458.021)" fill="none" stroke="#4070f4" stroke-width="1"/>
      </g>
      <rect id="Rectangle_2067-2" data-name="Rectangle 2067" width="5.286" height="14.537" transform="translate(7.41 457.578) rotate(-140)" fill="#4070f4"/>
      <rect id="Rectangle_2077-2" data-name="Rectangle 2077" width="5.286" height="14.537" transform="translate(86.616 440.368) rotate(-40)" fill="#4070f4"/>
      <rect id="Rectangle_2075-2" data-name="Rectangle 2075" width="5.286" height="14.537" transform="translate(119.653 268.238) rotate(-40)" fill="#573ccb"/>
      <rect id="Rectangle_2068-2" data-name="Rectangle 2068" width="5.286" height="14.537" transform="matrix(0.602, 0.799, -0.799, 0.602, 216.462, 162.545)" fill="#573ccb"/>
      <rect id="Rectangle_2069-2" data-name="Rectangle 2069" width="5.286" height="14.537" transform="matrix(0.602, 0.799, -0.799, 0.602, 269.322, 266.944)" fill="#eaba4b"/>
      <rect id="Rectangle_2076-2" data-name="Rectangle 2076" width="5.286" height="14.537" transform="matrix(0.602, 0.799, -0.799, 0.602, 298.395, 110)" fill="#eaba4b"/>
      <rect id="Rectangle_2070-2" data-name="Rectangle 2070" width="5.286" height="14.537" transform="translate(7.703 324.01) rotate(32)" fill="#eaba4b"/>
      <rect id="Rectangle_2074-2" data-name="Rectangle 2074" width="5.286" height="14.537" transform="translate(447.764 300.223) rotate(32)" fill="#eaba4b"/>
      <rect id="Rectangle_2073-2" data-name="Rectangle 2073" width="5.286" height="14.537" transform="matrix(-0.848, 0.53, -0.53, -0.848, 395.422, 399.789)" fill="#eaba4b"/>
      <rect id="Rectangle_2071-2" data-name="Rectangle 2071" width="5.286" height="14.537" transform="matrix(-0.848, 0.53, -0.53, -0.848, 446.96, 234.582)" fill="#eaba4b"/>
      <rect id="Rectangle_2072-2" data-name="Rectangle 2072" width="5.286" height="14.537" transform="translate(174.828 128.662) rotate(59)" fill="#eaba4b"/>
    </g>
  </g>
</svg>
