<svg xmlns="http://www.w3.org/2000/svg" width="23.973" height="23.973" viewBox="0 0 23.973 23.973">
  <g id="Group_2493" data-name="Group 2493" transform="translate(-384.026 -1199.522)">
    <path id="Icon_awesome-linkedin-in" data-name="Icon awesome-linkedin-in" d="M5.366,23.974H.4V7.968h4.97ZM2.878,5.785A2.892,2.892,0,1,1,5.757,2.879,2.9,2.9,0,0,1,2.878,5.785Zm21.09,18.189h-4.96V16.182c0-1.857-.037-4.238-2.584-4.238-2.584,0-2.98,2.017-2.98,4.1v7.925H8.48V7.968h4.767v2.183h.07a5.223,5.223,0,0,1,4.7-2.585c5.03,0,5.955,3.312,5.955,7.615v8.792Z" transform="translate(384.026 1199.521)" fill="#fff"/>
  </g>
</svg>
