<svg xmlns="http://www.w3.org/2000/svg" width="23.987" height="23.981" viewBox="0 0 23.987 23.981">
  <g id="Group_2491" data-name="Group 2491" transform="translate(-231.814 -1199.522)">
    <path id="Icon_awesome-instagram" data-name="Icon awesome-instagram" d="M11.991,8.08a6.149,6.149,0,1,0,6.149,6.149A6.139,6.139,0,0,0,11.991,8.08Zm0,10.146a4,4,0,1,1,4-4,4,4,0,0,1-4,4Zm7.834-10.4a1.434,1.434,0,1,1-1.434-1.434A1.431,1.431,0,0,1,19.825,7.828ZM23.9,9.284A7.1,7.1,0,0,0,21.96,4.259a7.144,7.144,0,0,0-5.025-1.937c-1.98-.112-7.914-.112-9.894,0A7.134,7.134,0,0,0,2.016,4.254,7.12,7.12,0,0,0,.079,9.279c-.112,1.98-.112,7.914,0,9.894A7.1,7.1,0,0,0,2.016,24.2a7.153,7.153,0,0,0,5.025,1.937c1.98.112,7.914.112,9.894,0A7.1,7.1,0,0,0,21.96,24.2,7.144,7.144,0,0,0,23.9,19.173c.112-1.98.112-7.909,0-9.889ZM21.339,21.3a4.047,4.047,0,0,1-2.28,2.28c-1.579.626-5.324.482-7.069.482s-5.5.139-7.069-.482a4.047,4.047,0,0,1-2.28-2.28c-.626-1.579-.482-5.324-.482-7.069s-.139-5.5.482-7.069a4.047,4.047,0,0,1,2.28-2.28C6.5,4.254,10.246,4.4,11.991,4.4s5.5-.139,7.069.482a4.047,4.047,0,0,1,2.28,2.28c.626,1.579.482,5.324.482,7.069S21.965,19.724,21.339,21.3Z" transform="translate(231.819 1197.284)" fill="#fff"/>
  </g>
</svg>
