<svg xmlns="http://www.w3.org/2000/svg" width="907.123" height="907.122" viewBox="0 0 907.123 907.122">
  <g id="Group_1950" data-name="Group 1950" transform="translate(-164.596 -860.293)">
    <g id="Group_1948" data-name="Group 1948" transform="translate(841 1180.482)">
      <g id="Shape" transform="translate(230 61.502) rotate(135)" opacity="0.08" style="isolation: isolate">
        <path id="Path_15" data-name="Path 15" d="M14.593,252.514c-33.849,78.37-6.81,181.154,60.392,229.577,36.981,26.648,80.427,32.236,118.066,15.187l.1-.063q4.091-1.854,8.065-4.049c26.178-11.882,113.929-42.032,238.123,16.879,19.015,9.024,33.587,13.762,44.563,15.2,111.985,45.19,224.9-26.55,252.192-160.236C759.1,252.337,713.946,128.29,627.179,65.792,608.984,52.685,590.328,38.317,571.245,32c0,0-247.293-140.4-517.264,166.941C37.4,212.494,23.917,230.825,14.593,252.514Z" fill="#accaf0" stroke="rgba(0,0,0,0)" stroke-width="1"/>
      </g>
      <g id="Shape-2" data-name="Shape" transform="matrix(0.996, -0.087, 0.087, 0.996, -603.601, 80.37)" opacity="0.08" style="isolation: isolate">
        <path id="Path_15-2" data-name="Path 15" d="M10.495,181.6c-24.343,56.362-4.9,130.281,43.433,165.107,26.6,19.164,57.841,23.183,84.911,10.922l.072-.045q2.942-1.333,5.8-2.912c18.826-8.545,81.935-30.229,171.252,12.139,13.675,6.49,24.155,9.9,32.049,10.929,80.537,32.5,161.74-19.094,181.37-115.238,16.545-81.029-15.928-170.241-78.33-215.189-13.085-9.426-26.5-19.759-40.226-24.3,0,0-177.847-100.969-372,120.06C26.894,152.82,17.2,166,10.495,181.6Z" fill="#accaf0" stroke="rgba(0,0,0,0)" stroke-width="1"/>
      </g>
    </g>
  </g>
</svg>
