<svg xmlns="http://www.w3.org/2000/svg" width="322.226" height="196.553" viewBox="0 0 322.226 196.553">
  <g id="Group_1986" data-name="Group 1986" transform="translate(-6763.769 -1238.059)">
    <path id="Shape" d="M6768.577,1335.26c-12.94,28.028,1.129,64.028,31.42,80.414,16.663,9.018,35.666,10.532,51.635,4.116l.04-.025q1.74-.7,3.414-1.515c11.1-4.471,48.55-16.043,103.835,3.445,8.464,2.984,14.9,4.5,19.7,4.894,49.675,14.771,97.1-11.75,105.95-59.236,7.448-40.02-14.968-83.339-54.072-104.488-8.2-4.435-16.632-9.31-25.064-11.337,0,0-110.6-46.954-220.956,64.4A48.724,48.724,0,0,0,6768.577,1335.26Z" transform="translate(0.002 3.446)" fill="#accaf0" opacity="0.29" style="isolation: isolate"/>
    <path id="Shape-2" data-name="Shape" d="M6766.069,1341.938c-2.363,19.9,9.974,42.342,27.553,50.128,9.679,4.284,19.422,3.355,26.479-2.523l.019-.018c.509-.427,1.008-.877,1.488-1.351,4.9-4.095,21.965-15.576,52.53-8.276a34.34,34.34,0,0,0,10.591,1.243c27.058,4.744,46.928-17.666,44.383-50.052-2.144-27.3-19.739-53.74-42.44-63.787-4.76-2.106-9.7-4.483-14.223-4.969,0,0-62.314-19.888-101.25,65.172A32.085,32.085,0,0,0,6766.069,1341.938Z" transform="translate(2.083 39.304)" fill="none" stroke="#accaf0" stroke-miterlimit="10" stroke-width="0.764" stroke-dasharray="2.352" opacity="0.97" style="isolation: isolate"/>
    <path id="Path_724" data-name="Path 724" d="M6794.518,1308.063l41.406-37.477,41.405,19.944,39.2-39.2" transform="translate(86.501 13.406)" fill="none" stroke="#3c58a4" stroke-miterlimit="10" stroke-width="1.333"/>
    <circle id="Ellipse_456" data-name="Ellipse 456" cx="5.306" cy="5.306" r="5.306" transform="translate(6904.654 1282.655)" fill="#fff" stroke="#3c58a4" stroke-miterlimit="10" stroke-width="1.098"/>
    <circle id="Ellipse_457" data-name="Ellipse 457" cx="5.306" cy="5.306" r="5.306" transform="translate(6845.539 1323.823)" fill="#fff" stroke="#3c58a4" stroke-miterlimit="10" stroke-width="1.098"/>
    <circle id="Ellipse_458" data-name="Ellipse 458" cx="5.306" cy="5.306" r="5.306" transform="translate(6963.771 1304.563)" fill="#fff" stroke="#3c58a4" stroke-miterlimit="10" stroke-width="1.098"/>
    <circle id="Ellipse_459" data-name="Ellipse 459" cx="5.306" cy="5.306" r="5.306" transform="translate(7019.743 1259.426)" fill="#fff" stroke="#3c58a4" stroke-miterlimit="10" stroke-width="1.098"/>
    <g id="Group_1983" data-name="Group 1983" transform="translate(7042.927 1346.7)">
      <path id="Path_174" data-name="Path 174" d="M6870.079,1301.416a93.85,93.85,0,0,1-8.909,9.084s-3.66-2.987-4.411-3.588c-3-2.4-1.9-8.759,2.459-14.2s10.322-7.9,13.318-5.5c.735.588,4.467,3.637,4.467,3.637A96.5,96.5,0,0,1,6870.079,1301.416Z" transform="translate(-6855.07 -1286.296)" fill="#fff" stroke="#e9b640" stroke-miterlimit="10" stroke-width="0.941"/>
      <ellipse id="Ellipse_315" data-name="Ellipse 315" cx="12.618" cy="6.958" rx="12.618" ry="6.958" transform="translate(1.719 20.637) rotate(-51.306)" fill="#fff" stroke="#e9b640" stroke-miterlimit="10" stroke-width="0.941"/>
    </g>
    <circle id="Ellipse_460" data-name="Ellipse 460" cx="5.709" cy="5.709" r="5.709" transform="translate(6839.007 1238.373)" fill="none" stroke="#3c58a4" stroke-miterlimit="10" stroke-width="0.627" opacity="0.31"/>
    <circle id="Ellipse_461" data-name="Ellipse 461" cx="5.709" cy="5.709" r="5.709" transform="translate(6936.798 1324.666)" fill="none" stroke="#3c58a4" stroke-miterlimit="10" stroke-width="0.627" opacity="0.31"/>
    <rect id="Rectangle_2209" data-name="Rectangle 2209" width="8.607" height="8.607" transform="translate(6995.354 1330.372) rotate(-45)" fill="none" stroke="#3c58a4" stroke-miterlimit="10" stroke-width="0.627" opacity="0.31"/>
    <g id="Group_1984" data-name="Group 1984" transform="translate(6766.612 1309.174)">
      <path id="Path_174-2" data-name="Path 174" d="M6783.116,1283.529a111.079,111.079,0,0,1,8.138,12.877s-4.48,3.445-5.387,4.154c-3.621,2.837-10.729-.192-15.871-6.76s-6.376-14.194-2.751-17.031c.886-.694,5.463-4.206,5.463-4.206A115.423,115.423,0,0,1,6783.116,1283.529Z" transform="translate(-6765.165 -1266.472)" fill="#fff" stroke="#e9b640" stroke-miterlimit="10" stroke-width="0.941"/>
      <ellipse id="Ellipse_315-2" data-name="Ellipse 315" cx="8.33" cy="15.106" rx="8.33" ry="15.106" transform="translate(2.111 10.27) rotate(-38.055)" fill="#fff" stroke="#e9b640" stroke-miterlimit="10" stroke-width="0.941"/>
    </g>
    <ellipse id="Ellipse_462" data-name="Ellipse 462" cx="150.731" cy="6.081" rx="150.731" ry="6.081" transform="translate(6783.799 1410.796)" fill="#4070f4"/>
    <g id="Group_1985" data-name="Group 1985" transform="translate(6866.143 1322.807)">
      <path id="Path_725" data-name="Path 725" d="M6830.007,1333.891h-37.842a2.86,2.86,0,0,1-2.8-3.445l5.164-24.8a2.861,2.861,0,0,1,2.8-2.28h27.511a2.867,2.867,0,0,1,2.8,2.28l5.163,24.8A2.862,2.862,0,0,1,6830.007,1333.891Z" transform="translate(-6789.304 -1238.938)" fill="#fff" stroke="#e9b640" stroke-miterlimit="10" stroke-width="1.3"/>
      <path id="Path_726" data-name="Path 726" d="M6852.6,1333.891h-37.842a2.862,2.862,0,0,1-2.8-3.445l5.164-24.8a2.865,2.865,0,0,1,2.8-2.28h27.512a2.858,2.858,0,0,1,2.8,2.28l5.167,24.8A2.863,2.863,0,0,1,6852.6,1333.891Z" transform="translate(-6765.921 -1238.938)" fill="#fff" stroke="#e9b640" stroke-miterlimit="10" stroke-width="1.3"/>
      <path id="Path_727" data-name="Path 727" d="M6873.771,1333.891h-37.84a2.86,2.86,0,0,1-2.8-3.445l5.165-24.8a2.86,2.86,0,0,1,2.8-2.28h27.511a2.862,2.862,0,0,1,2.8,2.28l5.166,24.8A2.863,2.863,0,0,1,6873.771,1333.891Z" transform="translate(-6744.009 -1238.938)" fill="#fff" stroke="#e9b640" stroke-miterlimit="10" stroke-width="1.3"/>
      <path id="Path_728" data-name="Path 728" d="M6841.563,1318.058h-37.84a2.86,2.86,0,0,1-2.8-3.445l5.166-24.8a2.861,2.861,0,0,1,2.8-2.278H6836.4a2.86,2.86,0,0,1,2.8,2.278l5.165,24.8A2.862,2.862,0,0,1,6841.563,1318.058Z" transform="translate(-6777.342 -1255.323)" fill="#fff" stroke="#e9b640" stroke-miterlimit="10" stroke-width="1.3"/>
      <path id="Path_729" data-name="Path 729" d="M6863.3,1318.058H6825.46a2.86,2.86,0,0,1-2.8-3.445l5.166-24.8a2.861,2.861,0,0,1,2.8-2.278h27.513a2.861,2.861,0,0,1,2.8,2.278l5.163,24.8A2.859,2.859,0,0,1,6863.3,1318.058Z" transform="translate(-6754.841 -1255.323)" fill="#fff" stroke="#e9b640" stroke-miterlimit="10" stroke-width="1.3"/>
      <path id="Path_730" data-name="Path 730" d="M6852.365,1302.227h-37.844a2.863,2.863,0,0,1-2.8-3.445l5.165-24.8a2.86,2.86,0,0,1,2.8-2.277h27.51a2.86,2.86,0,0,1,2.8,2.277l5.165,24.8A2.861,2.861,0,0,1,6852.365,1302.227Z" transform="translate(-6766.166 -1271.708)" fill="#fff" stroke="#e9b640" stroke-miterlimit="10" stroke-width="1.3"/>
    </g>
  </g>
</svg>
