<svg xmlns="http://www.w3.org/2000/svg" width="256.265" height="181.816" viewBox="0 0 256.265 181.816">
  <g id="Group_1952" data-name="Group 1952" transform="translate(-2999.251 -513.819)">
    <path id="Path_597" data-name="Path 597" d="M3257.773,676.338a4.027,4.027,0,0,0,.9,1.978q-.432-1-.9-1.978m-211.759-19.161a40.959,40.959,0,0,0-3.223,5.262l2.24,2.239,4.242-4.243-3.259-3.258m7.026-7.546q-.382.32-.757.651a41.542,41.542,0,0,0-5.64,6.047l3.738,3.738.369.369-5.72,5.72-2.73-2.73a41.408,41.408,0,0,0,2.58,40.422c1.952-.2,4-.335,6.121-.39l.522-.014,2.089,4.66.59-4.667.708.018a65.683,65.683,0,0,1,16.957,2.572,61.888,61.888,0,0,1,8.435,3.189l.728.336-2.623,5.358,5.285-4.013.444.24q.821.444,1.62.9v-.52a79.031,79.031,0,0,1-14.284-13.789q-.394-.495-.776-.994l4.926-3.919-7.145.864c-11.235-16.334-14.495-35.027-15.437-44.05m32.716-14.958q-8.292,2.957-17.01,6.756a41.179,41.179,0,0,0-10.508,4.487,106.7,106.7,0,0,1,23.45,11.59l-.2,1.019q.268-.436.552-.859.19-.424.382-.844l1.157.527q-.2.442-.4.888l-.022.049-.031.046a25.069,25.069,0,0,0-1.454,2.449l-.562-.292-1.135,5.894,5.593-6.156.184.136v-7.613q-.263.536-.525,1.08l-1.146-.551q.828-1.721,1.671-3.378V634.673m145.177,24.391q-.249-1.915-.6-3.819l1.251-.231q.357,1.935.612,3.885l-1.261.164m-1.4-7.6q-.449-1.88-.993-3.738l1.221-.357q.552,1.888,1.009,3.8l-1.237.3m-47.389-26.208v40.733q1.841-.923,3.829-1.742l1.046-.43-.206,1.112a63.486,63.486,0,0,0-1.047,11.191,38.469,38.469,0,0,0,.3,5.016,15.726,15.726,0,0,0,.92,3.81,4.949,4.949,0,0,0,.923,1.531,2.131,2.131,0,0,0,.585.447,1.6,1.6,0,0,0,.733.172,2.055,2.055,0,0,0,.433-.048h0a1.15,1.15,0,0,0,.531-.267,1.987,1.987,0,0,0,.446-.6,7.637,7.637,0,0,0,.621-2.328c.093-.659.159-1.4.213-2.2.072-1.064.119-2.232.182-3.458.083-1.634.19-3.371.413-5.108a23.69,23.69,0,0,1,1.739-6.716,12.887,12.887,0,0,1,2.092-3.281,10.971,10.971,0,0,1,3.771-2.746l.07-.031.074-.013a86.079,86.079,0,0,1,14.92-1.244q2.319,0,4.737.111l1.09.05-.606.907a22.98,22.98,0,0,0-1.818,3.268,16.48,16.48,0,0,0-1.062,3.048,7.455,7.455,0,0,0-.209,1.615,2.981,2.981,0,0,0,.088.772,1.1,1.1,0,0,0,.21.434.552.552,0,0,0,.172.137.824.824,0,0,0,.379.077h0a2.159,2.159,0,0,0,.593-.1h0a2.266,2.266,0,0,0,.8-.441,4.974,4.974,0,0,0,.786-.843,26.936,26.936,0,0,0,1.59-2.536c.374-.634.772-1.292,1.224-1.925a9.813,9.813,0,0,1,2.174-2.28,6.646,6.646,0,0,1,1.672-.889,6.971,6.971,0,0,1,2.363-.394h0a8.776,8.776,0,0,1,1.019.061h0c.168.02.347.044.534.078q5.03.7,10.426,1.878l.824.18-.422.73a72.332,72.332,0,0,0-6.126,13.868l-.022.067-.037.061a12.691,12.691,0,0,1-2.3,2.824,10.95,10.95,0,0,1-1.438,1.1q-.167.733-.354,1.453l-1.231-.319q.042-.164.084-.328a16.158,16.158,0,0,1-4.825,1.18c-1.076.12-2.069.183-2.9.3a7.853,7.853,0,0,0-1.253.258,2.445,2.445,0,0,0-.93.486,1.459,1.459,0,0,0-.293.367,1.894,1.894,0,0,0-.2.563h0a1.683,1.683,0,0,0-.035.33.923.923,0,0,0,.138.515,1.225,1.225,0,0,0,.439.39,2.708,2.708,0,0,0,.511.22,5.429,5.429,0,0,0,.925.2,11.359,11.359,0,0,0,1.545.094H3223a31.064,31.064,0,0,0,5.024-.515q.285-.049.558-.1c.033-.092.065-.185.1-.278l.482.167c1.076-.211,1.938-.414,2.375-.52l.3-.076.99-.247-.243.992c-1.017,4.144-1.882,8.2-2.895,12.158l-.019.075-.033.061a5.691,5.691,0,0,1-1.381,1.854,6.545,6.545,0,0,1-1.939,1.168,13.173,13.173,0,0,1-4.82.758c-.526,0-1.06-.018-1.6-.049q-.307.291-.619.573l-.6-.665c-.779-.07-1.558-.162-2.327-.263-1.7-.223-3.352-.488-4.8-.663a22.121,22.121,0,0,0-2.552-.192H3209a6.182,6.182,0,0,0-1.177.095,1.8,1.8,0,0,0-.687.259.619.619,0,0,0-.191.209h0a1.324,1.324,0,0,0-.183.646,1.128,1.128,0,0,0,.068.382,1.7,1.7,0,0,0,.222.412,3.812,3.812,0,0,0,.97.888,13.2,13.2,0,0,0,3.679,1.566c.417.118.851.228,1.3.329q1.258-.722,2.447-1.561l.733,1.04q-.644.454-1.309.877l.075.012a30.677,30.677,0,0,0,4.612.361,22.21,22.21,0,0,0,3.156-.21,11.918,11.918,0,0,0,2.6-.643,5.6,5.6,0,0,0,1.248-.659l1.593-1.156-.649,1.858a50.406,50.406,0,0,1-4.031,8.888,41.276,41.276,0,0,1-6.318,8.242l-.113.114-.154.044a22.773,22.773,0,0,1-6.385.935h0a23.673,23.673,0,0,1-7.187-1.17c-2.119-.668-3.977-1.5-5.605-2.163a20.183,20.183,0,0,0-2.947-1.012,6.241,6.241,0,0,0-1.4-.179h0a3.652,3.652,0,0,0-1.078.153,3.337,3.337,0,0,0-.989.5h0a.8.8,0,0,0-.255.286.766.766,0,0,0-.077.354,1.82,1.82,0,0,0,.16.684,4.544,4.544,0,0,0,.523.906,11.4,11.4,0,0,0,2.067,2.1,22.351,22.351,0,0,0,7.009,3.731,18.657,18.657,0,0,0,5.684.95h0q.6,0,1.192-.047l.183-.015,1.108.606-.919.554a29.946,29.946,0,0,1-15.278,4.686h-.008a19.61,19.61,0,0,1-10.544-2.94V741.1a10.373,10.373,0,0,1-1.174,4.8c12.457.733,20.205,1.762,20.205,2.9,0,1.711-17.463,3.173-42.1,3.759a34.209,34.209,0,0,0,4.556,2.424,63.349,63.349,0,0,0,95.853-74.725,5.1,5.1,0,0,1-2.64-5.806,63.486,63.486,0,0,0-8.711-12.738c-4.081-4.643-8.179-9.619-13.149-12.771a62.733,62.733,0,0,0-6.836-5.178l-.782.271q-.18-.517-.366-1.033c-8.459-5.523-23.557-13.517-44.852-17.751" transform="translate(-24.912 -71.223)" fill="#e7f0fb"/>
    <path id="Path_598" data-name="Path 598" d="M3377.921,584.052l-1.18.475q.517,1.287.99,2.592c.4.26.78.513,1.149.762l.419-.145q-.645-1.858-1.378-3.683m-3.279-7.146-1.129.585q.889,1.716,1.7,3.479l1.156-.53q-.821-1.79-1.725-3.534m-3.948-6.8-1.068.691q1.048,1.622,2.024,3.3l1.1-.638q-.989-1.7-2.055-3.354m-4.592-6.39-.995.793q1.2,1.509,2.337,3.087l1.033-.742q-1.152-1.6-2.375-3.138m-5.216-5.888-.906.893q1.351,1.371,2.639,2.826l.952-.843q-1.31-1.479-2.685-2.876m-5.831-5.286-.8.991q1.5,1.205,2.936,2.512l.855-.942q-1.466-1.33-2.992-2.56m-6.431-4.549-.665,1.084q1.633,1,3.219,2.127l.736-1.038q-1.618-1.145-3.289-2.173m-71.193-.551q-1.673.96-3.359,2.04l.688,1.07q1.658-1.064,3.3-2.007l-.633-1.1m64.215-3.1-.526,1.158.8.362q1.355.612,2.686,1.307l.589-1.128q-1.362-.711-2.752-1.339l-.8-.361m-57.2-.455q-1.764.779-3.553,1.684l.575,1.135q1.758-.89,3.493-1.655l-.514-1.164m49.98-2.625-.433,1.2c1.18.426,2.377.921,3.58,1.445l.509-1.166h0c-1.218-.531-2.439-1.036-3.655-1.476m-42.624-.157q-1.836.581-3.716,1.291l.45,1.189q1.845-.7,3.65-1.268l-.384-1.212m35.007-1.8-.289,1.238c.653.153,1.155.286,1.491.381.168.048.3.085.379.111l.093.029.022.007h.005l.062.02.064.007c.557.064,1.125.16,1.7.283l.267-1.243c-.591-.127-1.178-.227-1.762-.3-.207-.065-.906-.276-2.033-.539m-27.386-.153q-1.883.374-3.838.873l.316,1.232q1.918-.493,3.769-.857l-.247-1.247h0m19.6-1.066-.115,1.267c1.415.128,2.7.291,3.833.466l.194-1.257c-1.159-.179-2.469-.346-3.912-.476m-11.8-.028h0q-1.9.159-3.913.438l.177,1.26q1.975-.278,3.841-.43l-.105-1.268m5.768-.241q-.9,0-1.836.025l.034,1.271q.92-.024,1.8-.024,1.06,0,2.063.032l.039-1.272h0q-1.021-.031-2.1-.032" transform="translate(-175.65 -15.337)" fill="#afccf0"/>
    <path id="Path_599" data-name="Path 599" d="M3291.406,735.531q-1.188.838-2.447,1.561c.6.136,1.232.256,1.871.356q.665-.422,1.309-.877l-.734-1.04m3.236-2.107.6.665q.312-.282.619-.573-.607-.035-1.219-.092m10-16.249q-.048.139-.1.278.3-.055.58-.111l-.482-.167m2.7-4.817a10.964,10.964,0,0,1-1.14.638c-.12.058-.24.114-.361.167-.028.11-.056.219-.084.328l1.232.319q.186-.72.354-1.453m-148.949-24.1q-.192.421-.382.844-.283.422-.552.859l-.378,1.964.562.292a24.922,24.922,0,0,1,1.454-2.449l.031-.046.022-.049q.2-.446.4-.888l-1.158-.527m149.156-1.807-1.251.231q.351,1.9.6,3.819l1.261-.164q-.254-1.949-.612-3.885m-145.826-5.116q-.842,1.657-1.67,3.378l1.146.551q.262-.543.524-1.08v-2.85m144-2.532-1.221.357q.543,1.857.992,3.739l1.238-.3q-.456-1.912-1.009-3.8m-2.765-4.362q.187.515.366,1.033l.782-.271c-.369-.249-.75-.5-1.148-.762" transform="translate(-100.871 -102.662)" fill="#aecbf0"/>
    <path id="Path_600" data-name="Path 600" d="M3255.667,960.485c0,2.227-29.589,4.033-66.089,4.033s-66.088-1.805-66.088-4.033,29.589-4.033,66.088-4.033,66.089,1.806,66.089,4.033" transform="translate(-79.406 -282.905)" fill="#4070f4"/>
    <path id="Path_601" data-name="Path 601" d="M3405.336,780.385c-3.179,2.3,7.147,10.852,16.715,10.077l.005,0c-13.779,8.3-28.092,5.47-33.82-9.355-14.682-5.034-18.544-21.783-10.26-36.384-1.523,8.124,5.5,24.784,8.46,22.839s-8.647-21.807-2.222-31.028l0-.005a49.045,49.045,0,0,1,16.393-10.755c-1.9,10.244-1.542,23.926,3.577,22.834s-1.488-21.555,10.131-26.742a89,89,0,0,1,19.522-1.124c-3.385,5.065-4.638,11.261-.961,10.186,3.594-1.042,4.04-10.077,11.391-9.227.167.02.34.043.515.075q5.01.7,10.388,1.87a72.95,72.95,0,0,0-6.178,13.984c-5.323,8.734-14.822,3.534-15.722,8.083-.947,4.753,12.684,1.259,13.122,1.149-1.02,4.156-1.884,8.212-2.893,12.153l-.006.011c-2.063,4.418-8.725,3.616-14.326,2.813-4.07-.583-7.58-1.166-8.357.254-2.617,4.794,15.4,7.945,20.513,4.232a43.6,43.6,0,0,1-10.206,16.9c-6.89,2-12.141.324-16.291-1.35-4.046-1.633-7.044-3.266-9.49-1.493" transform="translate(-239.316 -132.184)" fill="#fff"/>
    <path id="Path_602" data-name="Path 602" d="M3404.245,779.294l-.361-.5a2.025,2.025,0,0,0-.632.727,1.99,1.99,0,0,0-.21.91,2.756,2.756,0,0,0,.117.771,5.056,5.056,0,0,0,.729,1.442,12.629,12.629,0,0,0,2.51,2.556,23.379,23.379,0,0,0,5.942,3.358,20.571,20.571,0,0,0,7.378,1.477q.645,0,1.291-.051l-.05-.614-.295.54,0,0,.3-.541-.318-.528a28.728,28.728,0,0,1-14.642,4.509,18.248,18.248,0,0,1-10.782-3.346,21.912,21.912,0,0,1-7.5-10.213l-.1-.268-.272-.093a20.353,20.353,0,0,1-10.555-7.944,22.233,22.233,0,0,1-3.581-12.434,30.84,30.84,0,0,1,4.212-15.119l-.536-.3-.605-.113a14.612,14.612,0,0,0-.224,2.663,30.234,30.234,0,0,0,.889,6.745,43.594,43.594,0,0,0,3.5,9.646,17.3,17.3,0,0,0,2.1,3.263,5.55,5.55,0,0,0,1.076.992,2.739,2.739,0,0,0,.575.3,1.835,1.835,0,0,0,.629.117,1.541,1.541,0,0,0,.444-.065,1.586,1.586,0,0,0,.412-.192,1.472,1.472,0,0,0,.385-.371,1.933,1.933,0,0,0,.308-.711,3.676,3.676,0,0,0,.081-.807,9.805,9.805,0,0,0-.213-1.822c-.232-1.188-.629-2.6-1.093-4.18-.7-2.364-1.543-5.091-2.215-7.893a36.64,36.64,0,0,1-1.165-8.318,15.93,15.93,0,0,1,.428-3.85,9.75,9.75,0,0,1,1.43-3.24l.017-.025.019-.032-.538-.3.439.433a48.413,48.413,0,0,1,16.188-10.617l-.234-.57-.606-.112a64.719,64.719,0,0,0-1.068,11.415,41.363,41.363,0,0,0,.232,4.558,23.177,23.177,0,0,0,.5,2.941,12.658,12.658,0,0,0,.593,1.841,5.782,5.782,0,0,0,1.331,2.043,3.181,3.181,0,0,0,.931.607,2.839,2.839,0,0,0,1.1.217,3.313,3.313,0,0,0,.689-.075h0a2.4,2.4,0,0,0,1.111-.568,3.227,3.227,0,0,0,.7-.941,8.164,8.164,0,0,0,.7-2.428c.129-.818.211-1.727.275-2.7.111-1.708.166-3.623.308-5.588a28.809,28.809,0,0,1,1.677-8.6,12.044,12.044,0,0,1,2.1-3.488,9.718,9.718,0,0,1,3.377-2.468l-.251-.563.106.607a84.908,84.908,0,0,1,14.707-1.225q2.289,0,4.68.11l.029-.615-.512-.342a23.643,23.643,0,0,0-2.391,4.579,16,16,0,0,0-.666,2.147,8.661,8.661,0,0,0-.24,1.889,4.327,4.327,0,0,0,.1.981,2.658,2.658,0,0,0,.237.651,1.893,1.893,0,0,0,.7.752,2.009,2.009,0,0,0,1.04.267,3.367,3.367,0,0,0,.939-.147h0a3.6,3.6,0,0,0,1.411-.819,7.032,7.032,0,0,0,.97-1.113c.52-.721.987-1.549,1.478-2.382.367-.625.747-1.253,1.16-1.838a8.335,8.335,0,0,1,2.157-2.211,5.3,5.3,0,0,1,1.385-.654,5.846,5.846,0,0,1,1.711-.242,7.583,7.583,0,0,1,.876.052h0c.162.019.322.041.479.07l.012,0,.013,0q4.984.7,10.341,1.862l.132-.6-.533-.309a73.576,73.576,0,0,0-6.231,14.1l.585.192-.526-.32a11.44,11.44,0,0,1-2.055,2.533,10.038,10.038,0,0,1-4.042,2.225,18.1,18.1,0,0,1-3.111.577c-.759.084-1.492.139-2.183.212-.518.055-1.011.118-1.476.214a6.179,6.179,0,0,0-.994.284,3.245,3.245,0,0,0-1.245.814,2.676,2.676,0,0,0-.436.641,3.18,3.18,0,0,0-.259.784h0a2.9,2.9,0,0,0-.059.571,2.261,2.261,0,0,0,.117.733,2.069,2.069,0,0,0,.289.555,2.518,2.518,0,0,0,.808.7,5.009,5.009,0,0,0,1.623.527,11.847,11.847,0,0,0,1.952.143,25.761,25.761,0,0,0,3.028-.2c1.525-.184,3-.46,4.124-.7.562-.118,1.035-.226,1.381-.308l.418-.1.194-.049-.149-.6-.6-.147c-1.022,4.168-1.887,8.222-2.892,12.147l.6.153-.541-.3-.007.011-.009.017-.009.018a4.449,4.449,0,0,1-1.09,1.471,5.969,5.969,0,0,1-2.537,1.254,14,14,0,0,1-3.405.362,48.41,48.41,0,0,1-6.648-.623c-1.1-.157-2.156-.315-3.142-.434a23.166,23.166,0,0,0-2.7-.2,6.257,6.257,0,0,0-1.84.225,2.634,2.634,0,0,0-.745.36,1.854,1.854,0,0,0-.556.62h0a2.567,2.567,0,0,0-.334,1.236,2.339,2.339,0,0,0,.112.711,3.117,3.117,0,0,0,.7,1.16,7.423,7.423,0,0,0,2.275,1.556,21.465,21.465,0,0,0,5.059,1.549,32.02,32.02,0,0,0,5.879.561,21.6,21.6,0,0,0,4.353-.4,11.683,11.683,0,0,0,1.846-.536,6.784,6.784,0,0,0,1.523-.809l-.361-.5-.582-.2a49.235,49.235,0,0,1-3.932,8.673,40.063,40.063,0,0,1-6.131,8l.438.433-.172-.591a21.541,21.541,0,0,1-6.042.887,25.7,25.7,0,0,1-9.847-2.217c-1.389-.56-2.667-1.127-3.867-1.562a15.213,15.213,0,0,0-1.749-.533,7.431,7.431,0,0,0-1.676-.21,4.881,4.881,0,0,0-1.439.207,4.582,4.582,0,0,0-1.35.68h0l.361.5.362.5a3.338,3.338,0,0,1,.988-.5,3.643,3.643,0,0,1,1.079-.153,6.253,6.253,0,0,1,1.4.179,20.186,20.186,0,0,1,2.947,1.012c1.629.664,3.486,1.5,5.605,2.163a23.683,23.683,0,0,0,7.188,1.17,22.769,22.769,0,0,0,6.385-.935l.154-.044.113-.114a41.249,41.249,0,0,0,6.318-8.242,50.407,50.407,0,0,0,4.032-8.888l.649-1.858-1.592,1.156a5.606,5.606,0,0,1-1.248.659,11.912,11.912,0,0,1-2.6.643,22.207,22.207,0,0,1-3.156.21,30.682,30.682,0,0,1-4.612-.361,27.155,27.155,0,0,1-3.244-.7,13.2,13.2,0,0,1-3.679-1.566,3.813,3.813,0,0,1-.97-.888,1.69,1.69,0,0,1-.222-.412,1.117,1.117,0,0,1-.068-.383,1.331,1.331,0,0,1,.182-.646h0a.619.619,0,0,1,.192-.209,1.8,1.8,0,0,1,.687-.26,6.168,6.168,0,0,1,1.181-.095,22.024,22.024,0,0,1,2.555.192c1.442.175,3.091.44,4.794.663a40.415,40.415,0,0,0,5.144.4,13.174,13.174,0,0,0,4.82-.758,6.528,6.528,0,0,0,1.938-1.168,5.689,5.689,0,0,0,1.389-1.871l-.558-.261.54.3.006-.011.037-.068.019-.075c1.013-3.958,1.878-8.014,2.9-12.158l.242-.992-.99.247-.3.076c-.581.142-1.918.455-3.512.731a31.028,31.028,0,0,1-5.03.515,11.368,11.368,0,0,1-1.545-.094,5.415,5.415,0,0,1-.925-.2,2.714,2.714,0,0,1-.511-.22,1.225,1.225,0,0,1-.439-.39.921.921,0,0,1-.138-.515,1.717,1.717,0,0,1,.035-.33h0a1.888,1.888,0,0,1,.2-.563,1.45,1.45,0,0,1,.293-.367,2.448,2.448,0,0,1,.93-.486,7.854,7.854,0,0,1,1.253-.258c.834-.114,1.827-.177,2.9-.3a15.63,15.63,0,0,0,5.186-1.348,10.905,10.905,0,0,0,2.578-1.74,12.687,12.687,0,0,0,2.3-2.824l.037-.061.022-.068a72.33,72.33,0,0,1,6.126-13.868l.423-.73-.824-.18q-5.4-1.184-10.434-1.879l-.085.61.11-.606c-.193-.035-.378-.06-.551-.081h0a8.779,8.779,0,0,0-1.019-.061,6.961,6.961,0,0,0-2.367.394,6.635,6.635,0,0,0-1.672.889,9.818,9.818,0,0,0-2.174,2.28c-.452.633-.85,1.29-1.224,1.925a26.9,26.9,0,0,1-1.59,2.536,4.98,4.98,0,0,1-.786.843,2.263,2.263,0,0,1-.8.441h0a2.163,2.163,0,0,1-.594.1.825.825,0,0,1-.379-.077.561.561,0,0,1-.173-.137,1.1,1.1,0,0,1-.21-.435,2.993,2.993,0,0,1-.087-.772,7.412,7.412,0,0,1,.209-1.615,16.445,16.445,0,0,1,1.062-3.048,22.943,22.943,0,0,1,1.818-3.268l.606-.907-1.09-.051q-2.419-.112-4.737-.111a86.081,86.081,0,0,0-14.92,1.244l-.074.013-.07.031a10.965,10.965,0,0,0-3.77,2.746,12.871,12.871,0,0,0-2.092,3.281,23.681,23.681,0,0,0-1.739,6.716c-.223,1.737-.33,3.473-.413,5.108-.062,1.226-.11,2.394-.182,3.458-.053.8-.119,1.538-.213,2.2a7.649,7.649,0,0,1-.622,2.328,1.986,1.986,0,0,1-.446.6,1.152,1.152,0,0,1-.531.267h0a2.059,2.059,0,0,1-.433.048,1.6,1.6,0,0,1-.733-.172,2.124,2.124,0,0,1-.585-.448,4.93,4.93,0,0,1-.923-1.531,15.73,15.73,0,0,1-.919-3.81,38.38,38.38,0,0,1-.3-5.016,63.511,63.511,0,0,1,1.047-11.191l.206-1.112-1.046.43a49.66,49.66,0,0,0-16.6,10.892l-.059.059-.044.079.538.3-.506-.352a10.955,10.955,0,0,0-1.613,3.646,17.173,17.173,0,0,0-.466,4.149,33.535,33.535,0,0,0,.745,6.553c.667,3.3,1.661,6.552,2.484,9.324.411,1.385.779,2.65,1.042,3.733.131.541.236,1.036.307,1.475a7.228,7.228,0,0,1,.108,1.129,2.048,2.048,0,0,1-.083.651.571.571,0,0,1-.071.145.241.241,0,0,1-.062.061.347.347,0,0,1-.09.043.308.308,0,0,1-.09.013.716.716,0,0,1-.3-.082,2.177,2.177,0,0,1-.441-.292,6.6,6.6,0,0,1-1.041-1.15,21.466,21.466,0,0,1-2.015-3.505,43.309,43.309,0,0,1-2.627-7.3,30.645,30.645,0,0,1-1.115-7.5,13.359,13.359,0,0,1,.2-2.436l.679-3.624-1.82,3.207a32.06,32.06,0,0,0-4.373,15.727,23.461,23.461,0,0,0,3.787,13.118,21.588,21.588,0,0,0,11.181,8.425l.2-.583-.574.222a23.148,23.148,0,0,0,7.937,10.771,19.485,19.485,0,0,0,11.5,3.575,29.946,29.946,0,0,0,15.277-4.686l.919-.553-1.109-.606-.183.015q-.594.048-1.191.047a18.65,18.65,0,0,1-5.687-.951,22.346,22.346,0,0,1-7.009-3.731,11.4,11.4,0,0,1-2.067-2.1,4.579,4.579,0,0,1-.523-.906,1.826,1.826,0,0,1-.16-.684.77.77,0,0,1,.077-.354.8.8,0,0,1,.256-.285h0l-.362-.5" transform="translate(-238.225 -131.092)" fill="#3c58a4"/>
    <path id="Path_603" data-name="Path 603" d="M3378.014,833.565a184.246,184.246,0,0,1,14.25-17.206c5.026-5.408,10.262-10.517,15.629-15.368s22.236-17.622,16.745-13.124-26.3,24.477-31.1,29.946a180.284,180.284,0,0,0-13.406,17.164l-2.12-1.412" transform="translate(-242.083 -174.552)" fill="#3c58a4"/>
    <path id="Path_604" data-name="Path 604" d="M3123.207,722.139l9.083-5.007a74.934,74.934,0,0,0-6.139-9.021,79.533,79.533,0,0,0-15.021-14.339l-5.593,6.156,1.709-8.876a102.68,102.68,0,0,0-29.031-13.312s.34,26.984,15.819,49.487l7.145-.864-4.926,3.919q.382.5.776.994c18.432,23.17,47.934,30.371,47.934,30.371a102.566,102.566,0,0,0-10.209-39.943l-11.549.434" transform="translate(-50.47 -104.769)" fill="#eaba4b"/>
    <path id="Path_605" data-name="Path 605" d="M3073.186,670.7a269.216,269.216,0,0,0,23.162,32.662c8.639,10.507,17.6,19.89,25.157,25.94a.588.588,0,1,0,.735-.917c-7.453-5.964-16.384-15.306-24.984-25.769A268.238,268.238,0,0,1,3074.2,670.1a.588.588,0,1,0-1.012.6h0" transform="translate(-47.203 -99.7)" fill="#fff"/>
    <path id="Path_606" data-name="Path 606" d="M3053.513,857.422l3.722-7.6a61.168,61.168,0,0,0-8.329-3.149,64.9,64.9,0,0,0-16.754-2.539l-.851,6.733-3.018-6.73a83.793,83.793,0,0,0-25.632,4.712s12.873,17.867,33.76,25.646l4.369-3.926-1.455,4.927q.49.154.985.3c23.172,6.84,46.255-2.176,46.255-2.176a83.7,83.7,0,0,0-25.54-21.9l-7.511,5.7" transform="translate(-2.173 -211.117)" fill="#fff"/>
    <path id="Path_607" data-name="Path 607" d="M3051.34,856l.7.345,4.074-8.322-.728-.336a61.9,61.9,0,0,0-8.435-3.189A65.677,65.677,0,0,0,3030,841.93l-.708-.018-.59,4.667-2.089-4.66-.522.014a87.5,87.5,0,0,0-18.432,2.521,65.693,65.693,0,0,0-7.464,2.246l-.942.368.591.82a82.143,82.143,0,0,0,34.122,25.922l.444.165,2.662-2.392-.888,3.01.734.231q.5.156,1,.3a66.6,66.6,0,0,0,18.841,2.6,86.549,86.549,0,0,0,19.813-2.391,67.459,67.459,0,0,0,8.108-2.4l.941-.368-.591-.82a71.61,71.61,0,0,0-6.854-7.8,83.138,83.138,0,0,0-18.948-14.328l-.444-.24-7.914,6.008.474.624.7.345-.7-.345.474.624,7.511-5.7-.474-.624-.372.689a81.6,81.6,0,0,1,18.584,14.057c2.174,2.177,3.851,4.087,4.983,5.448.565.681,1,1.225,1.282,1.6.143.186.251.329.322.425l.08.107.019.026,0,.006h0l.635-.458-.285-.73h0a66.617,66.617,0,0,1-8.016,2.364,84.953,84.953,0,0,1-19.334,2.32,65.039,65.039,0,0,1-18.4-2.531q-.487-.144-.971-.3l-.235.747.752.222,2.238-7.582-6.427,5.776.524.583.273-.734a75.071,75.071,0,0,1-24.452-15.579,85.419,85.419,0,0,1-6.647-6.928c-.759-.889-1.336-1.608-1.722-2.1-.193-.248-.339-.44-.435-.568l-.108-.145-.026-.036-.006-.008v0l-.636.458.285.73h0a65.047,65.047,0,0,1,7.375-2.21,85.947,85.947,0,0,1,17.992-2.449l-.021-.783-.715.32,4.161,9.278,1.2-9.5-.777-.1-.019.783A64.1,64.1,0,0,1,3046.511,846a60.338,60.338,0,0,1,8.222,3.108l.329-.711-.7-.345-5.173,10.566,2.628-2-.474-.624" transform="translate(0 -209.698)" fill="#3c58a4"/>
    <path id="Path_608" data-name="Path 608" d="M3004.877,858.525a220.093,220.093,0,0,0,30.834,10.984c5.355,1.488,10.635,2.75,15.564,3.7a109.044,109.044,0,0,0,13.474,1.849.849.849,0,1,0,.107-1.694,107.372,107.372,0,0,1-13.258-1.822,223.55,223.55,0,0,1-46.02-14.566.849.849,0,1,0-.7,1.546Z" transform="translate(-3.277 -219.279)" fill="#accaf0"/>
    <path id="Path_609" data-name="Path 609" d="M3222.91,513.819h0a5.089,5.089,0,0,0,0,10.179h0a5.087,5.087,0,0,0,5.084-5.089h-1.045a4.042,4.042,0,1,1-1.183-2.86,4.034,4.034,0,0,1,1.183,2.86h1.045a5.087,5.087,0,0,0-5.083-5.09" transform="translate(-139.699)" fill="#c3cbe3"/>
    <path id="Path_610" data-name="Path 610" d="M3654.044,756.072H3653a4.039,4.039,0,0,1-6.9,2.86q-.124-.124-.236-.258.419.967.805,1.944a5.06,5.06,0,0,0,2.286.543h0a5.086,5.086,0,0,0,5.084-5.089m-5.083-5.089h0a5.09,5.09,0,0,0-4.928,3.829q.485.936.936,1.884a4.136,4.136,0,0,1-.048-.624,4.04,4.04,0,1,1,8.08,0h1.045a5.086,5.086,0,0,0-5.083-5.089" transform="translate(-412.107 -151.581)" fill="#c3cbe3"/>
    <path id="Path_611" data-name="Path 611" d="M3643.755,761.595a5.1,5.1,0,0,0,2.64,5.806q-.385-.978-.805-1.944a4.027,4.027,0,0,1-.9-1.978q-.451-.948-.936-1.884" transform="translate(-411.829 -158.364)" fill="#b2c1e0"/>
    <path id="Path_612" data-name="Path 612" d="M3046.945,706.9l-5.72,5.72,2.99,2.99q.239-.5.49-.987l-2-2,4.243-4.243.984.984q.308-.428.629-.848l-1.613-1.613" transform="translate(-26.827 -123.404)" fill="#c3cbe3"/>
    <path id="Path_613" data-name="Path 613" d="M3057.224,715.474l.369-.369-.369.369-.37-.369.37.369m-3.369-4.107q-.321.421-.629.848l3.259,3.259-4.242,4.243-2.24-2.239q-.252.491-.49.987l2.73,2.73,5.72-5.72-.37-.369-3.737-3.738" transform="translate(-32.124 -126.261)" fill="#b2c1e0"/>
    <path id="Path_614" data-name="Path 614" d="M3522.069,634.191a90.382,90.382,0,0,1,9.677-7.6s3.136,3.319,3.78,3.988c2.576,2.677.729,8.636-4.127,13.308s-10.88,6.289-13.456,3.612c-.631-.655-3.829-4.044-3.829-4.044A93.115,93.115,0,0,1,3522.069,634.191Z" transform="translate(-329.071 -72.078)" fill="#fff"/>
    <path id="Path_615" data-name="Path 615" d="M3520.258,632.379l.525.582a89.607,89.607,0,0,1,9.593-7.534l-.441-.647-.57.538,1.649,1.744,1.27,1.34c.385.406.7.739.866.91a3.151,3.151,0,0,1,.7,1.16,4.674,4.674,0,0,1,.241,1.547,10.269,10.269,0,0,1-1.294,4.561,20.265,20.265,0,0,1-8.675,8.422,10.71,10.71,0,0,1-4.52,1.2,4.924,4.924,0,0,1-1.685-.27,3.187,3.187,0,0,1-1.225-.782c-.154-.16-.472-.5-.86-.9-.582-.614-1.323-1.4-1.918-2.028l-.746-.789-.3-.317-.57.538.627.47a92.187,92.187,0,0,1,7.888-9.186l-.56-.549.525.582-.525-.582-.559-.548a93.822,93.822,0,0,0-8.022,9.342l-.4.528.453.48,1.679,1.777,1.287,1.36c.389.411.707.745.868.913a4.764,4.764,0,0,0,1.818,1.167,6.463,6.463,0,0,0,2.221.365,12.233,12.233,0,0,0,5.2-1.351,21.823,21.823,0,0,0,9.384-9.112,11.774,11.774,0,0,0,1.469-5.281,6.219,6.219,0,0,0-.33-2.066,4.722,4.722,0,0,0-1.052-1.727c-.157-.164-.475-.5-.859-.9l-1.89-2-.732-.775-.293-.31-.459-.485-.552.376a91.126,91.126,0,0,0-9.76,7.665l-.019.017-.016.017Z" transform="translate(-327.259 -70.265)" fill="#e9b640"/>
    <path id="Path_616" data-name="Path 616" d="M3513.8,625.471c4.855-4.672,10.88-6.289,13.457-3.612s.729,8.635-4.126,13.307-10.88,6.289-13.457,3.612S3508.941,630.144,3513.8,625.471Z" transform="translate(-325.486 -68.227)" fill="#fff"/>
    <path id="Path_617" data-name="Path 617" d="M3512.408,624.083l.543.565a19.4,19.4,0,0,1,4.919-3.49,10.708,10.708,0,0,1,4.52-1.2,4.923,4.923,0,0,1,1.685.27,3.19,3.19,0,0,1,1.225.782,3.155,3.155,0,0,1,.7,1.16,4.669,4.669,0,0,1,.241,1.548,10.26,10.26,0,0,1-1.294,4.56,20.261,20.261,0,0,1-8.675,8.422,10.707,10.707,0,0,1-4.519,1.2,4.929,4.929,0,0,1-1.685-.27,3.193,3.193,0,0,1-1.225-.782,3.15,3.15,0,0,1-.7-1.16,4.665,4.665,0,0,1-.242-1.547,10.267,10.267,0,0,1,1.294-4.56,19.277,19.277,0,0,1,3.756-4.932l-.543-.565-.543-.564a20.846,20.846,0,0,0-4.061,5.34,11.784,11.784,0,0,0-1.469,5.281,6.222,6.222,0,0,0,.33,2.067,4.66,4.66,0,0,0,2.869,2.9,6.478,6.478,0,0,0,2.222.365,12.229,12.229,0,0,0,5.2-1.351,21.823,21.823,0,0,0,9.384-9.112,11.784,11.784,0,0,0,1.469-5.281,6.233,6.233,0,0,0-.33-2.067,4.657,4.657,0,0,0-2.87-2.9,6.476,6.476,0,0,0-2.221-.365,12.233,12.233,0,0,0-5.2,1.351,20.961,20.961,0,0,0-5.323,3.772Z" transform="translate(-324.099 -66.839)" fill="#e9b640"/>
    <path id="Path_618" data-name="Path 618" d="M3669.906,652.444a70.571,70.571,0,0,1,3.486,8.96s-3.193,1.591-3.84,1.921c-2.585,1.318-6.622-1.415-9.013-6.106s-2.233-9.562.354-10.881c.633-.323,3.893-1.945,3.893-1.945A72.622,72.622,0,0,1,3669.906,652.444Z" transform="translate(-421.573 -83.455)" fill="#fff"/>
    <path id="Path_619" data-name="Path 619" d="M3668.518,650.68l-.709.333a69.871,69.871,0,0,1,3.447,8.861l.748-.233-.349-.7-1.678.837-1.291.645-.877.442a2.33,2.33,0,0,1-1.075.246,4.062,4.062,0,0,1-1.634-.391,9.051,9.051,0,0,1-2.765-2.056,15.2,15.2,0,0,1-2.486-3.562,15.711,15.711,0,0,1-1.212-3.16,11.563,11.563,0,0,1-.4-2.883,6.11,6.11,0,0,1,.447-2.456,3.105,3.105,0,0,1,.51-.81,2.241,2.241,0,0,1,.664-.518c.154-.078.476-.241.87-.438l1.951-.974.76-.379.3-.152-.349-.7-.632.463a71.991,71.991,0,0,1,5.066,7.964l.687-.376-.709.333.709-.333.687-.376a73.519,73.519,0,0,0-5.177-8.137l-.39-.533-.591.294-1.71.852-1.31.654c-.4.2-.717.36-.88.443a3.83,3.83,0,0,0-1.124.873,5.04,5.04,0,0,0-1.03,1.918,8.328,8.328,0,0,0-.322,2.39,13.123,13.123,0,0,0,.447,3.278,17.306,17.306,0,0,0,1.333,3.477,15.856,15.856,0,0,0,3.8,4.922,9.487,9.487,0,0,0,2.21,1.416,5.612,5.612,0,0,0,2.271.526,3.9,3.9,0,0,0,1.787-.417c.157-.08.478-.242.868-.437l1.922-.961.746-.372.3-.149.6-.3-.2-.637a71.444,71.444,0,0,0-3.525-9.059l-.01-.023-.011-.021Z" transform="translate(-420.186 -81.692)" fill="#3c58a4"/>
    <path id="Path_620" data-name="Path 620" d="M3682.945,648.648c2.392,4.691,2.233,9.562-.353,10.881s-6.622-1.415-9.013-6.106-2.233-9.562.353-10.881S3680.553,643.958,3682.945,648.648Z" transform="translate(-429.907 -82.061)" fill="#fff"/>
    <path id="Path_621" data-name="Path 621" d="M3681.557,647.26l-.7.356a15.689,15.689,0,0,1,1.213,3.159,11.55,11.55,0,0,1,.4,2.883,6.1,6.1,0,0,1-.447,2.456,3.11,3.11,0,0,1-.51.81,2.262,2.262,0,0,1-.664.519,2.334,2.334,0,0,1-1.075.246,4.066,4.066,0,0,1-1.634-.391,9.055,9.055,0,0,1-2.765-2.056,15.194,15.194,0,0,1-2.486-3.562,15.717,15.717,0,0,1-1.213-3.16,11.549,11.549,0,0,1-.4-2.883,6.1,6.1,0,0,1,.447-2.456,3.123,3.123,0,0,1,.51-.81,2.248,2.248,0,0,1,.664-.518,2.329,2.329,0,0,1,1.075-.246,4.064,4.064,0,0,1,1.634.39,9.066,9.066,0,0,1,2.764,2.056,15.153,15.153,0,0,1,2.486,3.563l.7-.356.7-.356a15.85,15.85,0,0,0-3.8-4.922,9.487,9.487,0,0,0-2.21-1.416,5.609,5.609,0,0,0-2.271-.526,3.9,3.9,0,0,0-1.787.417,3.829,3.829,0,0,0-1.123.873,5.051,5.051,0,0,0-1.03,1.917,8.322,8.322,0,0,0-.323,2.391,13.088,13.088,0,0,0,.448,3.278,17.233,17.233,0,0,0,1.333,3.477,15.849,15.849,0,0,0,3.8,4.922,9.477,9.477,0,0,0,2.21,1.416,5.609,5.609,0,0,0,2.271.526,3.9,3.9,0,0,0,1.787-.417,3.841,3.841,0,0,0,1.124-.873,5.054,5.054,0,0,0,1.03-1.917,8.323,8.323,0,0,0,.323-2.391,13.089,13.089,0,0,0-.448-3.278,17.248,17.248,0,0,0-1.333-3.477Z" transform="translate(-428.52 -80.673)" fill="#3c58a4"/>
    <path id="Path_622" data-name="Path 622" d="M3169.57,806.511l.482-16.584a.849.849,0,1,0-1.7-.049l-.482,16.584a.849.849,0,0,0,1.7.049" transform="translate(-107.773 -175.914)" fill="#accaf0"/>
    <path id="Path_623" data-name="Path 623" d="M3171.507,760.927l.137-4.7a.849.849,0,0,0-1.7-.049l-.136,4.7a.848.848,0,1,0,1.7.049" transform="translate(-109.011 -154.377)" fill="#accaf0"/>
    <path id="Path_624" data-name="Path 624" d="M3257.346,719.089h-75.574a9.6,9.6,0,0,1-9.6-9.6V585.4a9.6,9.6,0,0,1,9.6-9.6h75.574a9.6,9.6,0,0,1,9.6,9.6V709.492a9.6,9.6,0,0,1-9.6,9.6" transform="translate(-110.522 -39.619)" fill="#fff"/>
    <path id="Path_625" data-name="Path 625" d="M3255.916,717.658v-.808h-75.574a8.789,8.789,0,0,1-8.79-8.79V583.974a8.789,8.789,0,0,1,8.79-8.79h75.574a8.789,8.789,0,0,1,8.79,8.79V708.061a8.789,8.789,0,0,1-8.79,8.79v1.616a10.406,10.406,0,0,0,10.406-10.406V583.974a10.406,10.406,0,0,0-10.406-10.406h-75.574a10.405,10.405,0,0,0-10.405,10.406V708.061a10.405,10.405,0,0,0,10.405,10.406h75.574v-.808" transform="translate(-109.092 -38.188)" fill="#3c58a4"/>
    <path id="Path_626" data-name="Path 626" d="M3278.488,636.773H3216.18a8.051,8.051,0,0,0-8.051,8.051V750.569a8.042,8.042,0,0,0,3.554,6.679h68.643a8.753,8.753,0,0,0,3.656-.794,8.028,8.028,0,0,0,2.557-5.885V644.824a8.051,8.051,0,0,0-8.051-8.051" transform="translate(-133.503 -78.585)" fill="#f3f7fd"/>
    <path id="Path_627" data-name="Path 627" d="M3290.277,968.428a8.755,8.755,0,0,1-3.657.794h-68.643a8.011,8.011,0,0,0,4.5,1.372h62.309a8.024,8.024,0,0,0,5.494-2.166" transform="translate(-139.797 -290.56)" fill="#4d69af"/>
    <path id="Path_628" data-name="Path 628" d="M3387.863,575.807h-11.282a9.308,9.308,0,0,1,9.308,9.308V709.782a9.308,9.308,0,0,1-9.308,9.308h11.282a9.308,9.308,0,0,0,9.308-9.308V585.115A9.308,9.308,0,0,0,3387.863,575.807Z" transform="translate(-241.167 -39.619)" fill="#4070f4"/>
    <rect id="Rectangle_2414" data-name="Rectangle 2414" width="7.521" height="9.026" rx="3.761" transform="translate(3076.319 603.88)" fill="#accaf0"/>
    <rect id="Rectangle_2415" data-name="Rectangle 2415" width="7.521" height="9.026" rx="3.761" transform="translate(3087.13 603.88)" fill="#accaf0"/>
    <rect id="Rectangle_2416" data-name="Rectangle 2416" width="7.521" height="9.026" rx="3.761" transform="translate(3097.942 603.88)" fill="#accaf0"/>
    <rect id="Rectangle_2417" data-name="Rectangle 2417" width="7.521" height="9.026" rx="3.761" transform="translate(3108.755 603.88)" fill="#accaf0"/>
    <rect id="Rectangle_2418" data-name="Rectangle 2418" width="7.521" height="9.026" rx="3.761" transform="translate(3119.566 603.88)" fill="#accaf0"/>
  </g>
</svg>
