<svg xmlns="http://www.w3.org/2000/svg" width="262.954" height="189.458" viewBox="0 0 262.954 189.458">
  <g id="Group_2004" data-name="Group 2004" transform="translate(-4022.643 -1177.781)">
    <g id="Shape" transform="translate(4022.643 1221.296)" opacity="0.29" style="isolation: isolate">
      <path id="Path_629" data-name="Path 629" d="M4031.266,1405.252a44.345,44.345,0,0,0,47.227,69.1l.036-.014q1.414-.38,2.807-.853c9.053-2.438,38.972-8.063,76.794,10.705,5.792,2.875,10.325,4.5,13.835,5.171a67.93,67.93,0,0,0,67.1-117.124c-5.342-3.927-10.778-8.2-16.712-10.362,0,0-74.286-43.447-175.875,30.319A44.17,44.17,0,0,0,4031.266,1405.252Z" transform="translate(-4022.643 -1349.163)" fill="#accaf0"/>
    </g>
    <g id="Shape-2" data-name="Shape" transform="translate(4048.114 1202.054)" opacity="0.97" style="isolation: isolate">
      <g id="Group_1953" data-name="Group 1953" transform="translate(0)">
        <path id="Path_630" data-name="Path 630" d="M4150.706,1433.185c-.43,0-.868-.011-1.3-.031l.05-1.067c.417.02.839.03,1.252.03h0c.654,0,1.313-.025,1.956-.074l.081,1.065c-.67.051-1.355.077-2.037.077Zm-4.622-.379a32.013,32.013,0,0,1-3.257-.706l.278-1.03a31.082,31.082,0,0,0,3.149.682Zm9.974-.168-.219-1.045a23.48,23.48,0,0,0,3.082-.87l.36,1A24.458,24.458,0,0,1,4156.059,1432.638Zm-16.4-1.564c-.737-.277-1.482-.586-2.214-.916-.28-.127-.563-.258-.841-.392l.462-.963c.271.13.546.258.819.381.712.321,1.436.621,2.152.891Zm22.688-.693-.5-.945a23.1,23.1,0,0,0,2.722-1.684l.623.867A24.164,24.164,0,0,1,4162.349,1430.381Zm-28.678-2.171c-.941-.548-1.884-1.146-2.8-1.777l.6-.88c.9.616,1.815,1.2,2.734,1.734Zm34.1-1.726-.733-.776c.171-.161.341-.327.507-.492l.034-.031c.634-.533,1.323-1.069,2.049-1.595l.626.865c-.7.506-1.362,1.021-1.971,1.533C4168.12,1426.155,4167.946,1426.322,4167.774,1426.484Zm-39.568-2.026c-.852-.679-1.7-1.4-2.52-2.15l.719-.789c.8.732,1.633,1.44,2.467,2.1Zm44.747-1.8-.558-.91c.926-.568,1.9-1.118,2.885-1.634l.494.946C4174.807,1421.568,4173.857,1422.1,4172.952,1422.66ZM4123.309,1420c-.759-.785-1.509-1.608-2.229-2.447l.811-.7c.706.823,1.441,1.63,2.186,2.4Zm55.388-.346-.433-.976c1-.442,2.029-.861,3.067-1.246l.372,1C4180.685,1418.812,4179.674,1419.223,4178.7,1419.656Zm65.44-.079c-.393,0-.794-.005-1.19-.017l.031-1.067c1.081.03,2.17.018,3.233-.037l.056,1.066C4245.564,1419.558,4244.849,1419.577,4244.137,1419.577Zm-4.5-.238c-1.083-.113-2.188-.269-3.284-.463l.186-1.051c1.071.19,2.151.342,3.208.452Zm9.935-.128-.144-1.058c1.068-.146,2.136-.34,3.176-.577l.236,1.041C4251.77,1418.861,4250.671,1419.06,4249.572,1419.211Zm-16.431-.358c-1.012-.064-2.124-.19-3.306-.375l.165-1.055c1.149.18,2.228.3,3.208.364Zm-6.558-.989c-.639-.139-1.307-.295-1.984-.461-.406-.1-.814-.2-1.214-.292l.243-1.04c.4.094.815.193,1.227.295.668.164,1.326.318,1.955.455Zm29.46-.129-.329-1.015c1.02-.331,2.036-.713,3.019-1.135l.422.981C4258.142,1417,4257.1,1417.394,4256.043,1417.735Zm-71.265-.341-.313-1.021c1.043-.319,2.116-.615,3.19-.878l.254,1.037C4186.855,1416.791,4185.8,1417.081,4184.779,1417.394Zm35.419-.975c-1.07-.213-2.148-.41-3.207-.584l.173-1.054c1.071.176,2.161.375,3.243.591Zm-29.113-.576-.2-1.049c1.069-.2,2.168-.381,3.262-.53l.145,1.058C4193.217,1415.469,4192.138,1415.644,4191.085,1415.843Zm22.681-.478c-1.082-.138-2.171-.255-3.238-.35l.094-1.063c1.08.1,2.184.215,3.28.354Zm48.382-.249-.509-.938c.939-.51,1.869-1.07,2.764-1.666l.591.889C4264.073,1414.014,4263.115,1414.591,4262.148,1415.116ZM4119,1414.98c-.662-.869-1.313-1.773-1.933-2.687l.883-.6c.609.9,1.248,1.785,1.9,2.639Zm78.528-.017-.092-1.063c1.083-.094,2.192-.163,3.3-.207l.042,1.067C4199.683,1414.8,4198.591,1414.871,4197.524,1414.963Zm9.754-.17c-1.088-.052-2.184-.081-3.254-.088l.006-1.067c1.086.006,2.2.036,3.3.089Zm60.393-3.356-.669-.832c.832-.668,1.648-1.385,2.427-2.131l.739.771C4269.366,1410.011,4268.526,1410.749,4267.671,1411.436Zm-152.389-1.931c-.564-.938-1.112-1.907-1.629-2.88l.943-.5c.508.956,1.046,1.908,1.6,2.829Zm157.186-2.656-.8-.707c.7-.8,1.392-1.641,2.042-2.507l.854.641C4273.9,1405.165,4273.191,1406.031,4272.467,1406.85Zm-160.287-3.187c-.462-1-.9-2.019-1.312-3.036l.992-.4c.4,1,.834,2,1.289,2.984Zm164.271-2.113-.9-.575c.573-.9,1.125-1.837,1.641-2.791l.939.508C4277.6,1399.669,4277.038,1400.631,4276.452,1401.55Zm-166.729-4.025c-.354-1.044-.681-2.108-.975-3.161l1.029-.286c.287,1.033.61,2.078.957,3.1Zm169.884-1.8-.971-.443c.442-.97.862-1.977,1.248-2.992l1,.379C4280.489,1393.707,4280.06,1394.735,4279.607,1395.726Zm-171.654-4.573c-.234-1.079-.439-2.174-.607-3.252l1.055-.165c.165,1.058.365,2.131.6,3.19Zm174.008-1.612-1.019-.317c.316-1.018.61-2.07.874-3.127l1.036.258C4282.584,1387.432,4282.285,1388.5,4281.961,1389.541Zm-175.026-4.924c-.1-1.1-.171-2.216-.2-3.3l1.068-.03c.029,1.066.1,2.154.2,3.235Zm176.625-1.492-1.049-.2c.2-1.05.377-2.129.525-3.207l1.058.146C4283.945,1380.96,4283.765,1382.058,4283.561,1383.125Zm-175.743-5.081-1.067-.043c.045-1.11.128-2.223.25-3.307l.006-.057,1.06.119-.005.054C4107.944,1375.873,4107.861,1376.96,4107.818,1378.045Zm176.645-1.464-1.063-.093c.093-1.066.162-2.158.206-3.246l1.067.042C4284.628,1374.389,4284.558,1375.5,4284.463,1376.581Zm-175.91-5.022-1.048-.2c.211-1.1.469-2.187.765-3.233l1.027.29C4109.009,1369.431,4108.759,1370.489,4108.553,1371.558Zm175.107-1.57c-.006-1.072-.035-2.167-.088-3.254l1.067-.052c.054,1.1.083,2.213.089,3.3Zm-173.345-4.637-1-.384a33.207,33.207,0,0,1,1.353-3.043l.953.483A32.2,32.2,0,0,0,4110.315,1365.351Zm173.033-1.865c-.1-1.071-.216-2.16-.355-3.235l1.058-.138c.143,1.09.264,2.193.361,3.278Zm-170.113-3.864-.893-.587.182-.274c.392-.874.793-1.752,1.193-2.611l.968.45c-.4.868-.81,1.756-1.206,2.639l-.02.042-.025.038C4113.368,1359.421,4113.3,1359.521,4113.235,1359.623Zm169.273-2.592c-.18-1.062-.384-2.138-.608-3.2l1.044-.219c.227,1.074.433,2.165.617,3.24Zm-166.419-3.382-.961-.466c.478-.987.97-1.978,1.458-2.945l.953.481C4117.053,1351.682,4116.565,1352.667,4116.089,1353.649Zm165.082-2.993c-.261-1.045-.546-2.1-.847-3.147l1.025-.3c.305,1.055.593,2.126.857,3.184Zm-162.134-2.842-.944-.5c.512-.972,1.036-1.946,1.558-2.894l.935.514C4120.068,1345.88,4119.547,1346.848,4119.038,1347.815Zm160.325-3.419c-.336-1.024-.7-2.059-1.074-3.078l1-.369c.379,1.031.745,2.079,1.086,3.114Zm-157.175-2.307-.926-.531c.546-.954,1.107-1.908,1.664-2.835l.915.549C4123.287,1340.193,4122.731,1341.141,4122.187,1342.089Zm154.919-3.81c-.409-1-.844-2.008-1.289-3l.972-.44c.452,1,.89,2.018,1.3,3.03Zm-151.557-1.791-.9-.568c.584-.929,1.182-1.86,1.778-2.767l.891.587C4126.721,1334.641,4126.128,1335.565,4125.549,1336.488Zm148.873-4.154c-.479-.97-.982-1.946-1.5-2.9l.94-.507c.518.965,1.029,1.951,1.514,2.933Zm-145.285-1.3-.88-.606c.624-.9,1.261-1.809,1.9-2.687l.866.625C4130.388,1329.236,4129.754,1330.134,4129.137,1331.031Zm142.19-4.442c-.547-.937-1.119-1.875-1.7-2.788l.9-.572c.585.924,1.163,1.873,1.717,2.82Zm-138.365-.848-.851-.646c.666-.875,1.345-1.748,2.022-2.595l.834.666C4134.3,1324.007,4133.62,1324.873,4132.962,1325.741Zm134.871-4.666c-.614-.9-1.251-1.792-1.894-2.66l.858-.635c.649.879,1.294,1.784,1.916,2.692Zm-130.8-.432-.816-.687c.708-.841,1.432-1.678,2.153-2.489l.8.709C4138.456,1318.98,4137.738,1319.81,4137.036,1320.643Zm126.913-4.817c-.677-.847-1.376-1.691-2.08-2.507l.808-.7c.712.827,1.421,1.681,2.106,2.539Zm-122.579-.059-.778-.731c.752-.8,1.522-1.6,2.287-2.367l.757.753C4142.878,1314.185,4142.116,1314.974,4141.371,1315.767Zm4.6-4.622-.733-.775c.8-.756,1.614-1.505,2.425-2.227l.71.8C4147.57,1309.655,4146.761,1310.4,4145.971,1311.146Zm113.724-.253c-.741-.793-1.5-1.58-2.268-2.338l.751-.758c.775.768,1.548,1.565,2.3,2.369Zm-108.853-4.078-.684-.82c.845-.7,1.708-1.4,2.564-2.068l.656.842C4152.531,1305.429,4151.678,1306.117,4150.842,1306.814Zm104.224-.5c-.8-.732-1.626-1.453-2.45-2.143l.686-.819c.835.7,1.671,1.431,2.484,2.173Zm-99.083-3.5-.627-.864c.891-.646,1.8-1.281,2.7-1.888l.6.885C4157.761,1301.543,4156.863,1302.171,4155.983,1302.81Zm94.092-.677c-.864-.661-1.749-1.305-2.629-1.917l.608-.877c.894.62,1.792,1.275,2.669,1.945Zm-88.688-2.96-.564-.907c.932-.579,1.885-1.148,2.831-1.689l.529.927C4163.249,1298.039,4162.308,1298.6,4161.387,1299.173Zm83.343-.746c-.922-.576-1.864-1.132-2.8-1.653l.52-.933c.951.53,1.908,1.095,2.845,1.68Zm-77.689-2.486-.494-.946c.972-.508,1.965-1,2.951-1.471l.458.965C4168.982,1294.951,4168,1295.439,4167.041,1295.941Zm72.01-.672c-.556-.272-1.12-.537-1.678-.789q-.64-.288-1.283-.582l.442-.972q.642.292,1.279.58c.568.257,1.144.527,1.709.8Zm-66.126-2.118-.419-.981c1.009-.431,2.039-.847,3.059-1.235l.38,1C4174.936,1292.316,4173.92,1292.726,4172.924,1293.151Zm60.181-.6c-1.148-.509-2.1-.915-3-1.276l.4-.991c.91.366,1.875.776,3.034,1.29Zm-54.1-1.717-.34-1.012c1.041-.349,2.1-.681,3.148-.986l.3,1.025C4181.081,1290.162,4180.035,1290.49,4179.009,1290.834Zm48.052-.678a29,29,0,0,0-3.1-.845l.219-1.045a30.269,30.269,0,0,1,3.219.876Zm-41.8-1.141-.256-1.036c1.065-.263,2.148-.508,3.221-.726l.212,1.046C4187.379,1288.514,4186.311,1288.755,4185.26,1289.015Zm35.469-.39c-.971-.251-2.037-.489-3.168-.7l.2-1.049c1.154.22,2.243.462,3.235.72Zm-29.087-.912-.171-1.054c1.083-.175,2.182-.329,3.269-.459l.127,1.06C4193.793,1287.388,4192.708,1287.54,4191.641,1287.713Zm22.711-.319c-1.059-.147-2.147-.273-3.234-.373l.1-1.063c1.1.1,2.207.229,3.281.379Zm-16.246-.454-.083-1.065c1.094-.085,2.2-.148,3.3-.187l.039,1.067C4200.28,1286.793,4199.186,1286.856,4198.106,1286.94Zm9.764-.147c-1.075-.052-2.17-.082-3.254-.088l.005-1.068c1.1.007,2.209.037,3.3.089Z" transform="translate(-4106.733 -1285.637)" fill="#accaf0"/>
      </g>
    </g>
    <g id="Group_1954" data-name="Group 1954" transform="translate(4087.137 1358.884)">
      <ellipse id="Ellipse_431" data-name="Ellipse 431" cx="71.49" cy="4.178" rx="71.49" ry="4.178" transform="translate(0)" fill="#4070f4"/>
    </g>
    <g id="Group_1958" data-name="Group 1958" transform="translate(4194.788 1256.45)">
      <g id="Group_1956" data-name="Group 1956" transform="translate(0 0)">
        <g id="Group_1955" data-name="Group 1955">
          <path id="Path_631" data-name="Path 631" d="M4627.75,1532.75c-3.479,2.52,7.817,11.87,18.284,11.022l0,0c-15.071,9.077-30.729,5.983-36.993-10.233-16.061-5.507-20.285-23.828-11.223-39.8-1.667,8.887,6.014,27.11,9.253,24.982s-9.457-23.853-2.43-33.94l0-.006a53.643,53.643,0,0,1,17.93-11.763c-2.077,11.2-1.687,26.17,3.914,24.976s-1.629-23.578,11.081-29.251a97.328,97.328,0,0,1,21.354-1.23c-3.7,5.54-5.074,12.319-1.052,11.142,3.932-1.14,4.419-11.023,12.46-10.093.184.022.373.047.564.082q5.479.764,11.363,2.046a79.695,79.695,0,0,0-6.758,15.3c-5.823,9.553-16.213,3.865-17.2,8.842-1.035,5.2,13.875,1.377,14.354,1.257-1.115,4.546-2.062,8.982-3.165,13.293l-.007.012c-3.9,8.344-22.791-.337-24.812,3.355-2.862,5.244,16.845,8.69,22.438,4.629a47.7,47.7,0,0,1-11.165,18.487C4641.065,1540.179,4633.169,1528.82,4627.75,1532.75Z" transform="translate(-4592.472 -1466.735)" fill="#fff"/>
          <path id="Path_632" data-name="Path 632" d="M4628.177,1547.954a22.315,22.315,0,0,1-7.266-1.177c-6.238-2.136-11.03-7.052-13.876-14.224a24.258,24.258,0,0,1-8.886-5.446,23.056,23.056,0,0,1-5.491-8.427,28.062,28.062,0,0,1-1.505-12.98,35.9,35.9,0,0,1,4.59-13.792l1.943-3.426-.726,3.872c-.624,3.327.106,8.582,1.953,14.059,1.641,4.87,3.908,9.018,5.514,10.088.513.341.713.208.78.165.112-.073.445-.468.074-2.495-.292-1.593-.914-3.68-1.632-6.1-2.344-7.879-5.555-18.665-1.07-25.147l.027-.05.067-.07a54.2,54.2,0,0,1,18.148-11.91l1.117-.459-.221,1.187c-1.693,9.134-1.685,20.779,1.281,23.665a1.894,1.894,0,0,0,1.849.548c1.743-.373,1.926-4.174,2.138-8.575a49,49,0,0,1,1.511-11.632c1.345-4.464,3.732-7.408,7.3-9l.075-.033.08-.014a98.4,98.4,0,0,1,21.5-1.239l1.165.054-.648.969c-2.839,4.246-3.973,8.763-3.091,9.965.084.115.34.463,1.308.18,1.25-.362,2.164-1.926,3.224-3.736,1.825-3.12,4.1-7,9.5-6.379.162.02.372.047.592.086,3.712.518,7.547,1.209,11.4,2.053l.879.193-.451.779a79.138,79.138,0,0,0-6.7,15.172l-.024.072-.04.065c-3.526,5.785-8.678,6.256-12.439,6.6-2.86.262-4.367.471-4.674,2.026a1.11,1.11,0,0,0,.281,1.137c1.541,1.465,7.944.7,13.241-.64l1.083-.272-.259,1.06c-.484,1.975-.943,3.953-1.386,5.866-.594,2.567-1.156,4.992-1.781,7.433l-.02.077-.037.069c-2.551,5.421-10.554,4.267-16.984,3.34-3.4-.49-7.247-1.045-7.837.034-.251.46-.46,1.184.628,2.14,1.717,1.509,5.734,2.75,10.237,3.161,4.667.426,8.732-.157,10.609-1.52l1.7-1.235-.693,1.984a48.268,48.268,0,0,1-11.317,18.732l-.121.122-.165.047c-8.646,2.509-15.1-.179-19.811-2.143-3.561-1.484-6.133-2.555-8.187-1.066h0c-.16.116-.583.422-.237,1.357.631,1.709,3.208,4.01,6.412,5.726a22.021,22.021,0,0,0,11.669,2.751l.2-.016,1.18.643-.977.6A32.722,32.722,0,0,1,4628.177,1547.954Zm-32.751-52.557c-3.578,7.737-4.157,15.906-1.538,22.816a21.865,21.865,0,0,0,13.863,13.2l.29.1.11.285c2.687,6.954,7.247,11.7,13.187,13.739,6.155,2.108,13.413,1.18,20.653-2.6a24.721,24.721,0,0,1-9.808-2.924c-3.522-1.885-6.28-4.409-7.027-6.43a2.3,2.3,0,0,1,.7-2.878c2.651-1.922,5.658-.669,9.464.917,4.751,1.98,10.658,4.44,18.774,2.141a46.192,46.192,0,0,0,10.308-16.516,19.29,19.29,0,0,1-6.88,1.063c-5.438,0-11.525-1.443-14.018-3.634a2.889,2.889,0,0,1-.913-3.759c1.029-1.88,4.626-1.362,9.178-.705,5.992.864,13.443,1.939,15.6-2.575.615-2.4,1.17-4.8,1.757-7.339.366-1.579.742-3.2,1.135-4.835-1.226.282-3.215.7-5.3.967-4.265.55-6.927.257-8.14-.9a2.41,2.41,0,0,1-.666-2.347,3.148,3.148,0,0,1,2.176-2.462,14.812,14.812,0,0,1,3.668-.618c3.663-.335,8.217-.752,11.4-5.912a80.982,80.982,0,0,1,6.342-14.566c-3.528-.752-7.034-1.373-10.437-1.848l-.026,0c-.191-.034-.382-.059-.526-.076-4.544-.526-6.406,2.658-8.207,5.737-1.151,1.968-2.239,3.827-3.991,4.335a2.3,2.3,0,0,1-2.735-.665c-1.392-1.9.092-6.621,2.437-10.5a96.31,96.31,0,0,0-19.993,1.253c-7.184,3.266-7.615,12.244-7.961,19.462-.249,5.147-.443,9.213-3.177,9.8a3.229,3.229,0,0,1-3.042-.892c-3.3-3.215-3.42-14.331-1.866-23.652a52.46,52.46,0,0,0-16.563,11.107c-4.113,5.966-1.009,16.394,1.258,24.012,1.61,5.41,2.674,8.984,1.02,10.066a1.912,1.912,0,0,1-2.229-.17c-1.884-1.255-4.252-5.479-6.032-10.763A39.214,39.214,0,0,1,4595.426,1495.4Z" transform="translate(-4590.965 -1465.224)" fill="#3c58a4"/>
        </g>
      </g>
      <g id="Group_1957" data-name="Group 1957" transform="translate(2.364 26.823)">
        <path id="Path_633" data-name="Path 633" d="M4598.771,1604.8a201.382,201.382,0,0,1,15.587-18.821c5.5-5.915,11.226-11.5,17.1-16.81s24.323-19.276,18.316-14.356-28.773,26.775-34.016,32.756a197.087,197.087,0,0,0-14.665,18.775Z" transform="translate(-4598.771 -1553.776)" fill="#3c58a4"/>
      </g>
    </g>
    <g id="Group_1959" data-name="Group 1959" transform="translate(4071.884 1205.583)">
      <path id="Path_634" data-name="Path 634" d="M4213.867,1353.314l9.843-.856a71.382,71.382,0,0,0-1.865-10.224,75.757,75.757,0,0,0-7.548-18.283l-7.246,3.2,4.913-7.071a97.8,97.8,0,0,0-20.145-22.794s-10.117,23.63-5.32,49.2l6.556,2-5.8,1.512c.094.388.19.777.292,1.165,7.11,27.29,30.024,44.945,30.024,44.945a97.711,97.711,0,0,0,6.522-38.724Z" transform="translate(-4185.209 -1297.289)" fill="#e9b640"/>
    </g>
    <g id="Group_1960" data-name="Group 1960" transform="translate(4077.218 1200.975)">
      <path id="Path_635" data-name="Path 635" d="M4222.718,1352.547a.5.5,0,0,1-.439-.266c-8.328-16.047-16.693-45.993-19.458-69.655a.493.493,0,1,1,.979-.114c2.753,23.56,11.073,53.359,19.354,69.315a.493.493,0,0,1-.437.72Z" transform="translate(-4202.817 -1282.075)" fill="#fff"/>
    </g>
    <g id="Group_1965" data-name="Group 1965" transform="translate(4034.428 1265.598)">
      <g id="Group_1963" data-name="Group 1963" transform="translate(0 0)">
        <g id="Group_1961" data-name="Group 1961" transform="translate(0.752 0.766)">
          <path id="Path_636" data-name="Path 636" d="M4111.044,1535.568l8.11-5.642a71.317,71.317,0,0,0-6.707-7.939,75.748,75.748,0,0,0-15.648-12.1l-4.689,6.385.741-8.578a97.8,97.8,0,0,0-28.818-9.741s2.989,25.53,19.877,45.319l6.685-1.525-4.28,4.2q.412.435.833.865c19.752,20.129,48.413,24.034,48.413,24.034a97.7,97.7,0,0,0-13.619-36.832Z" transform="translate(-4064.033 -1497.953)" fill="#fff"/>
        </g>
        <g id="Group_1962" data-name="Group 1962">
          <path id="Path_637" data-name="Path 637" d="M4134.583,1569.849l-.84-.115a92.257,92.257,0,0,1-16.936-4.5,96.662,96.662,0,0,1-15.824-7.369,76.587,76.587,0,0,1-16.034-12.354c-.274-.279-.549-.564-.842-.874l-.444-.469,3.083-3.025-4.807,1.1-.258-.3a80.677,80.677,0,0,1-10.316-15.556,99.2,99.2,0,0,1-6.082-14.749,90.113,90.113,0,0,1-3.632-15.364l-.1-.843.841.115a99.453,99.453,0,0,1,29.034,9.81l.388.2-.577,6.68,3.654-4.976.513.3a76.438,76.438,0,0,1,15.782,12.205,72.316,72.316,0,0,1,6.771,8.012l.4.543-6.39,4.444,8.576-1.222.228.357a97.573,97.573,0,0,1,11.165,25.3,84.262,84.262,0,0,1,2.554,11.808Zm-49.074-25.651c.127.133.253.262.379.39,10.116,10.31,22.642,16.245,31.368,19.408a95.469,95.469,0,0,0,15.8,4.3,89.756,89.756,0,0,0-2.4-10.765,96.5,96.5,0,0,0-10.774-24.566l-13.22,1.884,9.83-6.838a70.568,70.568,0,0,0-6.248-7.324,74.817,74.817,0,0,0-15-11.691l-5.723,7.793.9-10.475a99.891,99.891,0,0,0-27.35-9.332,94.106,94.106,0,0,0,3.467,14.278c2.563,7.934,7.393,19.461,15.878,29.52l8.56-1.952Z" transform="translate(-4061.551 -1495.424)" fill="#3c58a4"/>
        </g>
      </g>
      <g id="Group_1964" data-name="Group 1964" transform="translate(1.12 1.647)">
        <path id="Path_638" data-name="Path 638" d="M4117.383,1552.889a.709.709,0,0,1-.385-.113c-15.23-9.784-37.417-31.614-51.608-50.779a.712.712,0,0,1,1.145-.848c14.1,19.045,36.128,40.724,51.234,50.428a.713.713,0,0,1-.386,1.312Z" transform="translate(-4065.25 -1500.86)" fill="#accaf0"/>
      </g>
    </g>
    <g id="Group_1968" data-name="Group 1968" transform="translate(4084.072 1254.147)">
      <g id="Group_1966" data-name="Group 1966" transform="translate(0.658 0.658)">
        <rect id="Rectangle_2419" data-name="Rectangle 2419" width="133.781" height="98.821" rx="11" fill="#fff"/>
      </g>
      <g id="Group_1967" data-name="Group 1967" transform="translate(0 0)">
        <path id="Path_639" data-name="Path 639" d="M4353.061,1557.756H4232.927a7.489,7.489,0,0,1-7.481-7.481V1465.1a7.49,7.49,0,0,1,7.481-7.481h120.134a7.49,7.49,0,0,1,7.481,7.481v85.174A7.49,7.49,0,0,1,4353.061,1557.756Zm-120.134-98.821a6.172,6.172,0,0,0-6.165,6.166v85.174a6.172,6.172,0,0,0,6.165,6.166h120.134a6.172,6.172,0,0,0,6.165-6.166V1465.1a6.173,6.173,0,0,0-6.165-6.166Z" transform="translate(-4225.445 -1457.62)" fill="#3c58a4"/>
      </g>
    </g>
    <g id="Group_1969" data-name="Group 1969" transform="translate(4200.219 1255.324)">
      <path id="Path_640" data-name="Path 640" d="M4620.036,1461.506h-11.142a6.533,6.533,0,0,1,6.571,6.494v84.69a6.533,6.533,0,0,1-6.571,6.495h11.142a6.533,6.533,0,0,0,6.571-6.495V1468A6.533,6.533,0,0,0,4620.036,1461.506Z" transform="translate(-4608.895 -1461.506)" fill="#4070f4"/>
    </g>
    <g id="Group_1972" data-name="Group 1972" transform="translate(4095.702 1353.099)">
      <g id="Group_1970" data-name="Group 1970" transform="translate(0.658 0.658)">
        <path id="Path_641" data-name="Path 641" d="M4266.013,1786.47v3.36c0,3.629,3.379,6.571,7.546,6.571h101c4.168,0,7.546-2.942,7.546-6.571v-3.36Z" transform="translate(-4266.013 -1786.47)" fill="#fff"/>
      </g>
      <g id="Group_1971" data-name="Group 1971">
        <path id="Path_642" data-name="Path 642" d="M4373.049,1795.546h-101c-4.523,0-8.2-3.243-8.2-7.228V1784.3h117.411v4.018C4381.253,1792.3,4377.573,1795.546,4373.049,1795.546Zm-107.892-9.931v2.7c0,3.26,3.09,5.913,6.888,5.913h101c3.8,0,6.889-2.652,6.889-5.913v-2.7Z" transform="translate(-4263.842 -1784.299)" fill="#3c58a4"/>
      </g>
    </g>
    <g id="Group_1975" data-name="Group 1975" transform="translate(4094.739 1265.903)">
      <g id="Group_1973" data-name="Group 1973" transform="translate(0.658 0.658)">
        <path id="Path_643" data-name="Path 643" d="M4355.554,1573.441l-88.333.015c-2.423,0-4.388-1.656-4.388-3.7V1502.3c0-2.042,1.965-3.7,4.388-3.7l88.333.471c2.424,0,4.389,1.656,4.389,3.7v66.971C4359.942,1571.785,4357.978,1573.441,4355.554,1573.441Z" transform="translate(-4262.833 -1498.602)" fill="#fff"/>
      </g>
      <g id="Group_1974" data-name="Group 1974" transform="translate(0 0)">
        <path id="Path_644" data-name="Path 644" d="M4265.708,1572.6c-2.783,0-5.047-1.954-5.047-4.356v-67.458c0-2.4,2.264-4.356,5.047-4.356l88.335.471c2.779,0,5.042,1.954,5.042,4.356v66.971c0,2.4-2.263,4.356-5.046,4.356h0Zm0-74.854c-2.054,0-3.727,1.364-3.727,3.04v67.458c0,1.677,1.673,3.041,3.731,3.041l88.332-.015c2.058,0,3.731-1.364,3.731-3.041v-66.971c0-1.676-1.674-3.04-3.731-3.04Z" transform="translate(-4260.661 -1496.43)" fill="#3c58a4"/>
      </g>
    </g>
    <g id="Group_1978" data-name="Group 1978" transform="translate(4100.113 1271.642)">
      <g id="Group_1976" data-name="Group 1976" transform="translate(0 10.211)">
        <path id="Path_645" data-name="Path 645" d="M4279.116,1564.438a.712.712,0,0,1-.712-.713V1549.8a.712.712,0,0,1,1.425,0v13.927A.713.713,0,0,1,4279.116,1564.438Z" transform="translate(-4278.403 -1549.086)" fill="#accaf0"/>
      </g>
      <g id="Group_1977" data-name="Group 1977" transform="translate(0 0)">
        <path id="Path_646" data-name="Path 646" d="M4279.116,1520.745a.712.712,0,0,1-.712-.712v-3.944a.712.712,0,1,1,1.425,0v3.944A.713.713,0,0,1,4279.116,1520.745Z" transform="translate(-4278.403 -1515.376)" fill="#accaf0"/>
      </g>
    </g>
    <g id="Group_1981" data-name="Group 1981" transform="translate(4130.871 1289.026)">
      <g id="Group_1979" data-name="Group 1979" transform="translate(0.658 0.658)">
        <ellipse id="Ellipse_432" data-name="Ellipse 432" cx="14.512" cy="14.532" rx="14.512" ry="14.532" fill="#fff"/>
      </g>
      <g id="Group_1980" data-name="Group 1980" transform="translate(0 0)">
        <path id="Path_647" data-name="Path 647" d="M4395.119,1603.149a15.189,15.189,0,1,1,15.17-15.189A15.2,15.2,0,0,1,4395.119,1603.149Zm0-29.063a13.874,13.874,0,1,0,13.854,13.874A13.879,13.879,0,0,0,4395.119,1574.086Z" transform="translate(-4379.949 -1572.77)" fill="#3c58a4"/>
      </g>
    </g>
    <g id="Group_1983" data-name="Group 1983" transform="translate(4041.283 1234.228)" opacity="0.31">
      <g id="Group_1982" data-name="Group 1982" transform="translate(0)">
        <path id="Path_648" data-name="Path 648" d="M4088.543,1400.588a4.366,4.366,0,1,1,4.361-4.365A4.369,4.369,0,0,1,4088.543,1400.588Zm0-7.854a3.489,3.489,0,1,0,3.484,3.489A3.49,3.49,0,0,0,4088.543,1392.734Z" transform="translate(-4084.181 -1391.857)" fill="#3c58a4"/>
      </g>
    </g>
    <g id="Group_1985" data-name="Group 1985" transform="translate(4037.078 1312.812)" opacity="0.31">
      <g id="Group_1984" data-name="Group 1984" transform="translate(0 0)">
        <path id="Path_649" data-name="Path 649" d="M4074.659,1660.026a4.365,4.365,0,1,1,4.361-4.365A4.368,4.368,0,0,1,4074.659,1660.026Zm0-7.854a3.489,3.489,0,1,0,3.484,3.489A3.49,3.49,0,0,0,4074.659,1652.172Z" transform="translate(-4070.298 -1651.295)" fill="#3c58a4"/>
      </g>
    </g>
    <g id="Group_1988" data-name="Group 1988" transform="translate(4188.856 1278.342)">
      <g id="Group_1986" data-name="Group 1986" transform="translate(0)">
        <rect id="Rectangle_2420" data-name="Rectangle 2420" width="6.714" height="17.737" rx="3.357" transform="translate(0.658 0.658)" fill="#fff"/>
        <path id="Path_650" data-name="Path 650" d="M4576.36,1556.547h-1.923a3.057,3.057,0,0,1-3.053-3.053v-12.947a3.056,3.056,0,0,1,3.053-3.053h1.923a3.056,3.056,0,0,1,3.053,3.053v12.947A3.056,3.056,0,0,1,4576.36,1556.547Zm-1.923-17.737a1.739,1.739,0,0,0-1.738,1.737v12.947a1.739,1.739,0,0,0,1.738,1.737h1.923a1.739,1.739,0,0,0,1.738-1.737v-12.947a1.739,1.739,0,0,0-1.738-1.737Z" transform="translate(-4571.384 -1537.495)" fill="#3c58a4"/>
      </g>
      <g id="Group_1987" data-name="Group 1987" transform="translate(0 32.696)">
        <rect id="Rectangle_2421" data-name="Rectangle 2421" width="6.714" height="17.737" rx="3.357" transform="translate(0.658 0.658)" fill="#fff"/>
        <path id="Path_651" data-name="Path 651" d="M4576.36,1664.491h-1.923a3.057,3.057,0,0,1-3.053-3.053v-12.947a3.056,3.056,0,0,1,3.053-3.052h1.923a3.056,3.056,0,0,1,3.053,3.052v12.947A3.056,3.056,0,0,1,4576.36,1664.491Zm-1.923-17.737a1.739,1.739,0,0,0-1.738,1.737v12.947a1.739,1.739,0,0,0,1.738,1.738h1.923a1.74,1.74,0,0,0,1.738-1.738v-12.947a1.739,1.739,0,0,0-1.738-1.737Z" transform="translate(-4571.384 -1645.438)" fill="#3c58a4"/>
      </g>
    </g>
    <g id="Group_1990" data-name="Group 1990" transform="translate(4120.069 1234.926)" opacity="0.31">
      <g id="Group_1989" data-name="Group 1989" transform="translate(0)">
        <path id="Path_652" data-name="Path 652" d="M4349.089,1403.767l-4.8-4.8,4.8-4.8,4.8,4.8Zm-3.562-4.8,3.562,3.562,3.562-3.562-3.562-3.562Z" transform="translate(-4344.287 -1394.164)" fill="#3c58a4"/>
      </g>
    </g>
    <g id="Group_1992" data-name="Group 1992" transform="translate(4226.636 1213.035)" opacity="0.31">
      <g id="Group_1991" data-name="Group 1991" transform="translate(0)">
        <path id="Path_653" data-name="Path 653" d="M4700.91,1331.494l-4.8-4.8,4.8-4.8,4.8,4.8Zm-3.561-4.8,3.561,3.562,3.561-3.562-3.561-3.562Z" transform="translate(-4696.107 -1321.891)" fill="#3c58a4"/>
      </g>
    </g>
    <g id="Group_1993" data-name="Group 1993" transform="translate(4140.086 1187.968)">
      <g id="Path_174" data-name="Path 174" transform="translate(3.842 4.015)">
        <path id="Path_654" data-name="Path 654" d="M4432.66,1261.692a76.812,76.812,0,0,1,8.232-6.465s2.667,2.824,3.215,3.393c2.191,2.277.62,7.346-3.511,11.321s-9.255,5.35-11.447,3.073c-.536-.557-3.257-3.44-3.257-3.44A78.973,78.973,0,0,1,4432.66,1261.692Z" transform="translate(-4425.033 -1254.368)" fill="#fff"/>
        <path id="Path_655" data-name="Path 655" d="M4430.121,1272.8a4.588,4.588,0,0,1-3.421-1.3c-.532-.553-3.15-3.327-3.262-3.445l-.38-.4.333-.443a80.015,80.015,0,0,1,6.824-7.947l.029-.028a77.79,77.79,0,0,1,8.3-6.52l.464-.315.385.407c.026.028,2.672,2.828,3.211,3.389,1.233,1.282,1.507,3.3.77,5.675a17.548,17.548,0,0,1-11.035,10.618A8.6,8.6,0,0,1,4430.121,1272.8Zm-5.345-5.247c.769.814,2.464,2.608,2.872,3.031,1.9,1.978,6.72.563,10.517-3.09s5.4-8.413,3.493-10.391c-.424-.44-2.072-2.183-2.834-2.989a76.59,76.59,0,0,0-7.685,6.079A78.736,78.736,0,0,0,4424.776,1267.549Z" transform="translate(-4423.058 -1252.391)" fill="#e9b640"/>
      </g>
      <g id="Ellipse_315" data-name="Ellipse 315" transform="translate(0 0)">
        <ellipse id="Ellipse_433" data-name="Ellipse 433" cx="10.379" cy="5.723" rx="10.379" ry="5.723" transform="translate(0 14.393) rotate(-43.898)" fill="#fff"/>
        <path id="Path_656" data-name="Path 656" d="M4422.626,1264.842a4.586,4.586,0,0,1-3.421-1.3c-1.234-1.282-1.508-3.3-.771-5.675a16.157,16.157,0,0,1,4.3-6.576c4.459-4.291,9.9-5.633,12.377-3.055,1.234,1.282,1.507,3.3.769,5.675a17.551,17.551,0,0,1-11.034,10.618A8.606,8.606,0,0,1,4422.626,1264.842Zm9.067-16.593c-2.3,0-5.418,1.457-8.049,3.986a14.828,14.828,0,0,0-3.954,6.018c-.588,1.9-.425,3.452.462,4.373s2.432,1.144,4.353.629a16.251,16.251,0,0,0,10.118-9.737c.59-1.9.426-3.452-.461-4.373A3.315,3.315,0,0,0,4431.694,1248.25Z" transform="translate(-4415.71 -1244.565)" fill="#e9b640"/>
      </g>
    </g>
    <g id="Group_1995" data-name="Group 1995" transform="translate(4098.217 1177.781)">
      <g id="Path_174-2" data-name="Path 174" transform="translate(0 0.96)">
        <path id="Path_660" data-name="Path 660" d="M4282.532,1217.724a52.89,52.89,0,0,1,2.033,6.935s-2.494.986-3,1.191c-2.021.821-4.868-1.487-6.356-5.154s-1.056-7.305.966-8.126c.495-.2,3.04-1.205,3.04-1.205A54.455,54.455,0,0,1,4282.532,1217.724Z" transform="translate(-4273.664 -1210.55)" fill="#fff"/>
        <path id="Path_661" data-name="Path 661" d="M4279.172,1224.8a4.744,4.744,0,0,1-2.919-1.209,11.357,11.357,0,0,1-3.174-4.523c-1.649-4.065-1.066-8.01,1.328-8.982.492-.2,2.942-1.167,3.047-1.208l.516-.2.288.473a55.346,55.346,0,0,1,3.356,6.436l.016.038a53.9,53.9,0,0,1,2.059,7.021l.121.547-.521.206c-.025.01-2.5.987-2.995,1.189A2.956,2.956,0,0,1,4279.172,1224.8Zm-1.754-14.495c-.771.3-2.167.857-2.516,1-1.654.672-1.931,4-.6,7.269a10.03,10.03,0,0,0,2.783,4,2.807,2.807,0,0,0,2.717.8c.363-.148,1.72-.685,2.481-.986a52.817,52.817,0,0,0-1.876-6.284A54.231,54.231,0,0,0,4277.418,1210.305Z" transform="translate(-4272.143 -1208.674)" fill="#3c58a4"/>
      </g>
      <g id="Ellipse_315-2" data-name="Ellipse 315" transform="translate(2.53 0)">
        <ellipse id="Ellipse_435" data-name="Ellipse 435" cx="3.951" cy="7.166" rx="3.951" ry="7.166" transform="translate(0 2.972) rotate(-22.092)" fill="#fff"/>
        <path id="Path_662" data-name="Path 662" d="M4291.324,1222.621a4.746,4.746,0,0,1-2.92-1.209,12.32,12.32,0,0,1-4.05-9.978,4.02,4.02,0,0,1,2.205-3.527c2.4-.972,5.563,1.451,7.213,5.516a11.364,11.364,0,0,1,.877,5.455,4.019,4.019,0,0,1-2.206,3.528A2.958,2.958,0,0,1,4291.324,1222.621ZM4287.693,1209a1.684,1.684,0,0,0-.639.121,2.808,2.808,0,0,0-1.394,2.464,11.024,11.024,0,0,0,3.572,8.8,2.279,2.279,0,0,0,4.112-1.668,10.036,10.036,0,0,0-.79-4.805C4291.389,1211.046,4289.3,1209,4287.693,1209Z" transform="translate(-4283.146 -1207.03)" fill="#3c58a4"/>
      </g>
    </g>
    <g id="Group_1996" data-name="Group 1996" transform="translate(4191.1 1220.779)">
      <g id="Path_174-3" data-name="Path 174" transform="translate(0.175 5.214)">
        <path id="Path_663" data-name="Path 663" d="M4590.6,1367.289a67.334,67.334,0,0,1,9.158-.432s.47,3.37.572,4.054c.407,2.738-3.289,5.557-8.255,6.3s-9.323-.883-9.729-3.621c-.1-.67-.577-4.109-.577-4.109A69.316,69.316,0,0,1,4590.6,1367.289Z" transform="translate(-4581.043 -1366.185)" fill="#fff"/>
        <path id="Path_664" data-name="Path 664" d="M4588,1376.533c-4.263,0-7.582-1.718-7.976-4.364-.1-.666-.559-3.975-.578-4.116l-.077-.549.528-.168a70.148,70.148,0,0,1,8.916-2.208l.04-.005a68.2,68.2,0,0,1,9.248-.437l.561.012.077.555c0,.034.47,3.375.57,4.049.233,1.572-.606,3.176-2.365,4.517a14.214,14.214,0,0,1-6.443,2.526A17.036,17.036,0,0,1,4588,1376.533Zm-7.175-8.109c.14,1,.426,3.056.5,3.552.348,2.336,4.46,3.74,8.982,3.068a12.905,12.905,0,0,0,5.84-2.27c1.36-1.037,2.021-2.2,1.86-3.278-.076-.516-.356-2.514-.494-3.5a66.954,66.954,0,0,0-8.489.435A69.042,69.042,0,0,0,4580.822,1368.424Z" transform="translate(-4579.367 -1364.672)" fill="#3c58a4"/>
      </g>
      <g id="Ellipse_315-3" data-name="Ellipse 315" transform="translate(0 0)">
        <ellipse id="Ellipse_436" data-name="Ellipse 436" cx="9.091" cy="5.013" rx="9.091" ry="5.013" transform="translate(0 2.674) rotate(-8.458)" fill="#fff"/>
        <path id="Path_665" data-name="Path 665" d="M4586.99,1360.7a12.809,12.809,0,0,1-4.426-.727c-2.072-.771-3.343-2.062-3.576-3.634-.468-3.145,3.4-6.239,8.808-7.043h0a14.231,14.231,0,0,1,6.9.541c2.073.771,3.343,2.062,3.576,3.634.467,3.146-3.4,6.239-8.808,7.043A16.844,16.844,0,0,1,4586.99,1360.7Zm1-10.1c-4.521.673-8.048,3.213-7.7,5.549.16,1.076,1.13,2,2.734,2.594a12.9,12.9,0,0,0,6.247.473c4.523-.673,8.049-3.213,7.7-5.548-.16-1.077-1.131-2-2.734-2.595a12.9,12.9,0,0,0-6.249-.473Z" transform="translate(-4578.901 -1348.608)" fill="#3c58a4"/>
      </g>
    </g>
    <g id="Group_1997" data-name="Group 1997" transform="translate(4139.052 1297.955)">
      <path id="Path_666" data-name="Path 666" d="M4406.958,1614.24l8.7,8.7a14.527,14.527,0,0,0,12.68-12.542l-8.148-8.149Z" transform="translate(-4406.958 -1602.248)" fill="#4070f4"/>
    </g>
    <g id="Group_2000" data-name="Group 2000" transform="translate(4136.993 1295.158)">
      <g id="Group_1998" data-name="Group 1998" transform="translate(0.658 0.658)">
        <ellipse id="Ellipse_437" data-name="Ellipse 437" cx="8.391" cy="8.4" rx="8.391" ry="8.4" fill="#fff"/>
      </g>
      <g id="Group_1999" data-name="Group 1999" transform="translate(0 0)">
        <path id="Path_667" data-name="Path 667" d="M4409.208,1611.129a9.057,9.057,0,1,1,9.048-9.057A9.063,9.063,0,0,1,4409.208,1611.129Zm0-16.8a7.742,7.742,0,1,0,7.734,7.742A7.746,7.746,0,0,0,4409.208,1594.329Z" transform="translate(-4400.16 -1593.014)" fill="#3c58a4"/>
      </g>
    </g>
    <g id="Group_2001" data-name="Group 2001" transform="translate(4141.695 1298.194)">
      <path id="Path_668" data-name="Path 668" d="M4416.4,1605.6a.713.713,0,0,1-.533-1.185,5.586,5.586,0,0,1,1.707-1.307.712.712,0,0,1,.634,1.276,4.161,4.161,0,0,0-1.273.975A.713.713,0,0,1,4416.4,1605.6Z" transform="translate(-4415.685 -1603.035)" fill="#accaf0"/>
    </g>
    <g id="Group_2002" data-name="Group 2002" transform="translate(4196.113 1354.435)">
      <path id="Path_669" data-name="Path 669" d="M4602.023,1788.711v2.932c0,3.166-2.991,5.733-6.681,5.733h9.006c3.69,0,6.682-2.567,6.682-5.733v-2.932Z" transform="translate(-4595.342 -1788.711)" fill="#4070f4"/>
    </g>
    <g id="Group_2003" data-name="Group 2003" transform="translate(4106.538 1278.321)" opacity="0.15" style="isolation: isolate">
      <path id="Path_670" data-name="Path 670" d="M4392.335,1612.266l-88.333.015c-2.423,0-4.389-1.656-4.389-3.7v-67.458c0-2.042,1.966-3.7,4.389-3.7l88.333.471c2.425,0,4.388,1.656,4.388,3.7v66.971C4396.724,1610.61,4394.76,1612.266,4392.335,1612.266Z" transform="translate(-4299.614 -1537.427)" fill="#accaf0"/>
    </g>
  </g>
</svg>
