<svg xmlns="http://www.w3.org/2000/svg" width="319.461" height="202.01" viewBox="0 0 319.461 202.01">
  <g id="Group_2478" data-name="Group 2478" transform="translate(-11260.477 -1075.637)">
    <path id="Shape" d="M11532.594,1188.262a44.208,44.208,0,0,1-47.081,68.885l-.035-.014q-1.411-.38-2.8-.851c-9.024-2.43-38.851-8.038-76.557,10.672-5.774,2.866-10.294,4.491-13.794,5.155a67.719,67.719,0,0,1-66.891-116.762c5.325-3.915,10.744-8.173,16.66-10.33,0,0,74.057-43.313,175.332,30.225A44.018,44.018,0,0,1,11532.594,1188.262Z" fill="#e7f0fb" style="isolation: isolate"/>
    <g id="Group_2009" data-name="Group 2009">
      <g id="Group_2008" data-name="Group 2008">
        <g id="Group_2007" data-name="Group 2007">
          <g id="Group_2006" data-name="Group 2006">
            <path id="Path_671" data-name="Path 671" d="M11516.039,1242.815c-3.623,1.256,3.482,12.265,12.593,14.281l0,0c-15.21,3.856-27.681-2.913-28.688-18.51-12.172-8.951-10.889-25.823,1.052-37.188-3.777,7.21-2.1,24.9,1.215,23.923s-1.688-23.005,6.959-29.841l0,0a47.616,47.616,0,0,1,18.353-5.417c-4.743,9.1-8.392,22.075-3.319,22.516s4.886-20.713,17.187-22.261a85.428,85.428,0,0,1,18.458,4.544c-4.617,3.8-7.583,9.269-3.855,9.311,3.641.051,6.682-8.325,13.263-5.415.149.067.3.139.456.219q4.449,2.1,9.1,4.741a72.426,72.426,0,0,0-9.806,11.389c-7.482,6.692-14.793-.928-16.951,3.1-2.262,4.2,11.413,4.824,11.853,4.847-2.156,3.619-4.139,7.187-6.222,10.607l-.01.008c-5.526,6.158-19.261-6.268-21.958-3.622-3.824,3.761,11.992,11.9,17.82,9.87a43.059,43.059,0,0,1-14.394,12.977C11525.369,1252.7,11521.685,1240.856,11516.039,1242.815Z" fill="#fff" stroke="#3c58a4" stroke-miterlimit="10" stroke-width="1.332"/>
          </g>
        </g>
        <path id="Path_672" data-name="Path 672" d="M11484.949,1244.357a180.9,180.9,0,0,1,18.239-12.105c6.239-3.647,12.59-6.953,18.984-9.978s25.775-10.205,19.367-7.547-31.548,15.488-37.59,19.26a177.306,177.306,0,0,0-17.442,12.307Z" fill="#3c58a4"/>
      </g>
    </g>
    <ellipse id="Ellipse_438" data-name="Ellipse 438" cx="4.024" cy="4.029" rx="4.024" ry="4.029" transform="translate(11516.641 1139.087)" fill="none" stroke="#3c58a4" stroke-miterlimit="10" stroke-width="1.108" opacity="0.31"/>
    <path id="Shape-2" data-name="Shape" d="M11444.562,1178.653c-3.93-28.108-22.369-54.693-45.684-65.213-5.149-2.323-10.494-4.941-15.377-5.5,0,0-67.358-22.041-108.838,70.328a34.759,34.759,0,0,0-5.444,15.683c-2.429,21.651,11.021,46.162,30.04,54.747,10.467,4.725,20.974,3.775,28.552-2.581l.02-.022q.823-.691,1.6-1.462c3.688-3.1,13.773-10.1,30.812-11.231" fill="none" stroke="#accaf0" stroke-miterlimit="10" stroke-width="1.201" stroke-dasharray="3.699" opacity="0.97" style="isolation: isolate"/>
    <g id="Group_2010" data-name="Group 2010">
      <path id="Path_673" data-name="Path 673" d="M11306.74,1217.792l7.173-5.617a65.827,65.827,0,0,0-6.59-6.96,69.876,69.876,0,0,0-15.037-10.324l-3.985,6.123.235-7.936a90.166,90.166,0,0,0-27.041-7.466s4.084,23.349,20.665,40.688l6.075-1.752-3.723,4.09c.269.252.539.5.813.753,19.234,17.5,45.828,19.6,45.828,19.6a90.115,90.115,0,0,0-14.461-33.2Z" fill="#fff" stroke="#3c58a4" stroke-miterlimit="10" stroke-width="1.687"/>
      <path id="Path_674" data-name="Path 674" d="M11262.574,1187.022c13.694,16.461,35.279,35.6,49.981,43.909" fill="none" stroke="#accaf0" stroke-linecap="round" stroke-miterlimit="10" stroke-width="1.827"/>
    </g>
    <g id="Group_2011" data-name="Group 2011">
      <path id="Path_675" data-name="Path 675" d="M11302.715,1184.722l-6.783,5.434a62.631,62.631,0,0,1-5.022-7.639,66.63,66.63,0,0,1-6.3-16.219l6.557-2.363-7.422-1.515a86.052,86.052,0,0,1-1.028-26.742s20.792,8.892,33.272,28.076l-2.954,5.258,4.61-2.562q.265.456.522.919c12.053,21.685,8.2,46.838,8.2,46.838a85.955,85.955,0,0,1-27.674-20.679Z" fill="#e9b640"/>
      <path id="Path_676" data-name="Path 676" d="M11283.41,1136.752c13.933,18.486,28.731,45.937,33.837,63.464" fill="none" stroke="#fff" stroke-linecap="round" stroke-miterlimit="10" stroke-width="1.11"/>
    </g>
    <ellipse id="Ellipse_439" data-name="Ellipse 439" cx="98.568" cy="5.052" rx="98.568" ry="5.052" transform="translate(11286.18 1253.144)" fill="#4070f4"/>
    <path id="Path_677" data-name="Path 677" d="M11408.434,1144.216s7.853-15.28,5.161-27.807-11.707-22.2.9-34.084c15.243-14.361,34.093-1.126,34.093-1.126s14.8-2.568,17,29.453c1.917,27.927,25.329,26.548,28.458,41.575s-8.956,26.428-8.956,26.428Z" fill="#4070f4"/>
    <path id="Path_678" data-name="Path 678" d="M11437.521,1131.852c27.12,3.165,44.14,7.35,52.8,21.357s-5.592,59.749-5.592,59.749l-5.659,37.91-90.327,4.639s-9.046-82.445,11.688-106.987C11408.982,1138.405,11421.313,1135.936,11437.521,1131.852Z" fill="#fff" stroke="#3c58a4" stroke-miterlimit="10" stroke-width="1.7"/>
    <ellipse id="Ellipse_440" data-name="Ellipse 440" cx="109.393" cy="5.052" rx="109.393" ry="5.052" transform="translate(11320.861 1253.144)" fill="#4070f4"/>
    <path id="Path_679" data-name="Path 679" d="M11417.71,1113.439c1.109,9.185,4.619,13.978,14.09,14.172s17.35-9.4,17.6-21.43-7.233-21.806-16.7-22.136C11416.04,1083.462,11416.273,1101.536,11417.71,1113.439Z" fill="#d0e2f4" style="isolation: isolate"/>
    <path id="Path_680" data-name="Path 680" d="M11448.631,1107.864c-1.137,10.642-.795,19.184,4.424,27.091,0,0-32.684,20.038-28.916.966,5.118-10.3,2.224-23.894,2.224-23.894" fill="#d0e2f4" style="isolation: isolate"/>
    <circle id="Ellipse_441" data-name="Ellipse 441" cx="4.314" cy="4.314" r="4.314" transform="translate(11445.088 1102.717)" fill="#ccd9ed"/>
    <path id="Path_681" data-name="Path 681" d="M11491.532,1238.367l-27.021-71.56c-5.113-23.256,13.976-29.591,25.5-14.669,8.32,12.529,26.629,73.87,26.022,88.858,2.607,7.986-3.526,19.239-11.922,18.939-24.731.649-40.095,1.584-68.9-.744l-19.581-6.281C11442.493,1245.2,11466.442,1236.87,11491.532,1238.367Z" fill="#d0e2f4" style="isolation: isolate"/>
    <path id="Path_682" data-name="Path 682" d="M11370.54,1240.948c-.607-14.988,17.7-76.329,26.021-88.857a21.577,21.577,0,0,1,8.52-6.87,23.512,23.512,0,0,0-4.528,6.18c-5.944,13.815-12.987,77.441-9.71,92.079-1.137,8.324,6.91,18.3,15.117,16.5,20.6-3.19,34.7-4.99,55.338-9.932q4.768,1.4,9.649,2.813l-19.581,6.28c-28.811,2.328-44.172,1.393-68.9.744C11374.066,1260.187,11367.933,1248.934,11370.54,1240.948Z" fill="#d0e2f4" style="isolation: isolate"/>
    <rect id="Rectangle_2424" data-name="Rectangle 2424" width="5.895" height="5.895" transform="translate(11320.605 1104.166) rotate(-135)" fill="none" stroke="#3c58a4" stroke-miterlimit="10" stroke-width="0.986" opacity="0.31"/>
    <rect id="Rectangle_2425" data-name="Rectangle 2425" width="5.895" height="5.895" transform="translate(11380.887 1149.389) rotate(-135)" fill="none" stroke="#3c58a4" stroke-miterlimit="10" stroke-width="0.986" opacity="0.31"/>
    <path id="Path_683" data-name="Path 683" d="M11437.605,1251.217h-111.255a7.085,7.085,0,0,1-6.994-5.956l-10.521-65.078a7.085,7.085,0,0,1,7-8.217h111.253a7.087,7.087,0,0,1,7,5.955L11444.6,1243A7.085,7.085,0,0,1,11437.605,1251.217Z" fill="#4070f4"/>
    <path id="Path_684" data-name="Path 684" d="M11430.647,1251.217h-111.255a7.085,7.085,0,0,1-6.994-5.956l-10.521-65.078a7.085,7.085,0,0,1,7-8.217h111.254a7.086,7.086,0,0,1,7,5.955l10.52,65.079A7.085,7.085,0,0,1,11430.647,1251.217Z" fill="#fff" stroke="#3c58a4" stroke-miterlimit="10" stroke-width="1.7"/>
    <path id="Rectangle_2426" data-name="Rectangle 2426" d="M8.892,0H152.509A8.892,8.892,0,0,1,161.4,8.892v.387a0,0,0,0,1,0,0H0a0,0,0,0,1,0,0V8.892A8.892,8.892,0,0,1,8.892,0Z" transform="translate(11477.529 1260.146) rotate(-180)" fill="#fff" stroke="#3c58a4" stroke-miterlimit="10" stroke-width="1.769"/>
    <path id="Rectangle_2427" data-name="Rectangle 2427" d="M7.351,0H32.739a7.351,7.351,0,0,1,7.351,7.351v.32a0,0,0,0,1,0,0H0a0,0,0,0,1,0,0v-.32A7.351,7.351,0,0,1,7.351,0Z" transform="translate(11476.632 1259.343) rotate(-180)" fill="#4070f4"/>
    <path id="Path_685" data-name="Path 685" d="M11467.8,1176.41l13.594,53.337,1.923-13.13Z" fill="#4070f4"/>
    <path id="Path_686" data-name="Path 686" d="M11416.056,1084.239s1.286,8.405,13.813,14.52,22.513,3.319,22.513,3.319l.5-15.646-26.71-7.059Z" fill="#4070f4"/>
    <path id="Path_687" data-name="Path 687" d="M11509.727,1207.805" fill="#fff" stroke="#3c58a4" stroke-miterlimit="10" stroke-width="1.7"/>
    <path id="Path_688" data-name="Path 688" d="M11433.281,1126.992l-6.553.156-.5,2.717Z" fill="#4070f4"/>
    <ellipse id="Ellipse_442" data-name="Ellipse 442" cx="4.354" cy="5.94" rx="4.354" ry="5.94" transform="translate(11444.17 1101.091)" fill="#fff" stroke="#3c58a4" stroke-miterlimit="10" stroke-width="1.7"/>
    <path id="Path_689" data-name="Path 689" d="M11447.323,1112.255q-4.756,7.295-11.241,7.992" fill="none" stroke="#3c58a4" stroke-miterlimit="10" stroke-width="1.7"/>
    <circle id="Ellipse_443" data-name="Ellipse 443" cx="1.645" cy="1.645" r="1.645" transform="translate(11434.264 1118.435)" fill="#3c58a4"/>
    <ellipse id="Ellipse_444" data-name="Ellipse 444" cx="2.613" cy="3.564" rx="2.613" ry="3.564" transform="translate(11446.876 1103.422)" fill="#e7f0fb" style="isolation: isolate"/>
    <circle id="Ellipse_445" data-name="Ellipse 445" cx="3.564" cy="3.564" r="3.564" transform="translate(11364.557 1182.704)" fill="#4070f4"/>
    <path id="Path_690" data-name="Path 690" d="M11437.905,1258.346h-94.429a6.275,6.275,0,0,1-5.937-5.684l-11.887-65.292c-.593-4.112,2.231-7.842,5.937-7.842h94.427a6.274,6.274,0,0,1,5.938,5.684l11.887,65.291C11444.433,1254.615,11441.609,1258.346,11437.905,1258.346Z" fill="#accaf0" opacity="0.15" style="isolation: isolate"/>
  </g>
</svg>
