<svg xmlns="http://www.w3.org/2000/svg" width="253.958" height="188.998" viewBox="0 0 253.958 188.998">
  <g id="Group_2042" data-name="Group 2042" transform="translate(-7452.091 -1149.58)">
    <path id="Shape" d="M7688.013,1208.6a46.1,46.1,0,0,1-32.567,80.68l-.04-.006q-1.522-.07-3.04-.242c-9.735-.46-41.366.491-75.593,27.971-5.241,4.209-9.482,6.874-12.9,8.332a70.615,70.615,0,0,1-94.212-103.987c4.549-5.177,9.119-10.725,14.66-14.24,0,0,65.753-60.658,185.334-8.379A45.914,45.914,0,0,1,7688.013,1208.6Z" fill="#e7f0fb" style="isolation: isolate"/>
    <path id="Shape-2" data-name="Shape" d="M7504.084,1236.182c-2.336,17.615,10.606,37.559,28.908,44.544,10.071,3.845,20.181,3.072,27.474-2.1l.018-.018q.794-.562,1.536-1.189c5.07-3.6,22.715-13.686,54.49-7.065a41.7,41.7,0,0,0,11,1.154c28.12,4.339,48.618-15.412,45.782-44.115-2.39-24.19-20.816-47.7-44.445-56.72-4.954-1.89-10.1-4.02-14.8-4.474,0,0-64.817-17.933-104.732,57.222A25.61,25.61,0,0,0,7504.084,1236.182Z" fill="none" stroke="#accaf0" stroke-miterlimit="10" stroke-width="1.284" stroke-dasharray="3.956" opacity="0.97" style="isolation: isolate"/>
    <ellipse id="Ellipse_464" data-name="Ellipse 464" cx="70.115" cy="4.012" rx="70.115" ry="4.012" transform="translate(7514.468 1312.111)" fill="#4070f4"/>
    <g id="Group_2037" data-name="Group 2037">
      <g id="Group_2036" data-name="Group 2036">
        <g id="Group_2035" data-name="Group 2035">
          <path id="Path_1167" data-name="Path 1167" d="M7635.163,1291.309c-4.039,1.4,3.883,13.675,14.042,15.923l0,.005c-16.96,4.3-30.866-3.248-31.99-20.64-13.573-9.981-12.141-28.8,1.173-41.466-4.212,8.038-2.343,27.768,1.355,26.675s-1.883-25.652,7.76-33.274l.005-.005a53.114,53.114,0,0,1,20.463-6.041c-5.288,10.143-9.356,24.615-3.7,25.108s5.449-23.1,19.163-24.823a95.238,95.238,0,0,1,20.582,5.067c-5.149,4.232-8.455,10.335-4.3,10.383,4.061.056,7.452-9.283,14.789-6.039.167.075.338.155.509.244q4.962,2.337,10.151,5.287a80.7,80.7,0,0,0-10.933,12.7c-8.344,7.462-16.5-1.035-18.9,3.452-2.522,4.685,12.727,5.38,13.216,5.405-2.4,4.035-4.614,8.014-6.937,11.827l-.01.01c-6.163,6.866-21.477-6.99-24.485-4.039-4.265,4.193,13.372,13.265,19.871,11.005a48.028,48.028,0,0,1-16.05,14.47C7645.567,1302.331,7641.459,1289.124,7635.163,1291.309Z" fill="#fff" stroke="#3c58a4" stroke-miterlimit="10" stroke-width="1.049"/>
        </g>
      </g>
      <path id="Path_1168" data-name="Path 1168" d="M7600.5,1293.027a201.672,201.672,0,0,1,20.337-13.5c6.958-4.067,14.038-7.753,21.169-11.127s28.741-11.378,21.6-8.415-35.178,17.271-41.915,21.476a197.613,197.613,0,0,0-19.449,13.724Z" fill="#fff" stroke="#3c58a4" stroke-miterlimit="10" stroke-width="1.049"/>
    </g>
    <g id="Group_2038" data-name="Group 2038">
      <path id="Path_1169" data-name="Path 1169" d="M7527.087,1279.7l8.036-6.292a73.813,73.813,0,0,0-7.382-7.8,78.228,78.228,0,0,0-16.845-11.565l-4.464,6.859.264-8.891a101.031,101.031,0,0,0-30.291-8.363s4.574,26.156,23.148,45.579l6.8-1.963-4.169,4.581q.45.424.91.844c21.548,19.607,51.336,21.96,51.336,21.96a100.927,100.927,0,0,0-16.2-37.191Z" fill="#e9b640"/>
      <path id="Path_1170" data-name="Path 1170" d="M7477.613,1245.234c15.341,18.44,57.242,58.956,73.711,68.264" fill="none" stroke="#fff" stroke-linecap="round" stroke-miterlimit="10" stroke-width="1"/>
    </g>
    <circle id="Ellipse_465" data-name="Ellipse 465" cx="3.135" cy="3.135" r="3.135" transform="translate(7524.57 1161.193)" fill="none" stroke="#3c58a4" stroke-miterlimit="10" stroke-width="0.718" opacity="0.31"/>
    <circle id="Ellipse_466" data-name="Ellipse 466" cx="3.135" cy="3.135" r="3.135" transform="translate(7586.609 1207.182)" fill="none" stroke="#3c58a4" stroke-miterlimit="10" stroke-width="0.718" opacity="0.31"/>
    <rect id="Rectangle_2661" data-name="Rectangle 2661" width="4.841" height="4.841" transform="translate(7458.552 1211.141) rotate(-45)" fill="none" stroke="#3c58a4" stroke-miterlimit="10" stroke-width="0.718" opacity="0.31"/>
    <rect id="Rectangle_2662" data-name="Rectangle 2662" width="4.841" height="4.841" transform="translate(7670.135 1178.413) rotate(-45)" fill="none" stroke="#3c58a4" stroke-miterlimit="10" stroke-width="0.718" opacity="0.31"/>
    <g id="Group_2039" data-name="Group 2039">
      <path id="Path_174" data-name="Path 174" d="M7579.111,1166.68a108.976,108.976,0,0,1,11.669-9.163s3.781,4,4.558,4.809c3.106,3.228.878,10.413-4.976,16.046s-13.12,7.584-16.226,4.355c-.76-.79-4.617-4.876-4.617-4.876A112.187,112.187,0,0,1,7579.111,1166.68Z" fill="#fff" stroke="#e9b640" stroke-miterlimit="10" stroke-width="1.455"/>
      <ellipse id="Ellipse_315" data-name="Ellipse 315" cx="14.712" cy="8.112" rx="14.712" ry="8.112" transform="translate(7562.856 1171.01) rotate(-43.898)" fill="#fff" stroke="#e9b640" stroke-miterlimit="10" stroke-width="1.455"/>
    </g>
    <g id="Group_2041" data-name="Group 2041">
      <g id="Group_2040" data-name="Group 2040">
        <path id="Path_174-2" data-name="Path 174" d="M7501.032,1191.656a85.223,85.223,0,0,1,4.2,10.8s-3.85,1.919-4.63,2.317c-3.118,1.59-7.985-1.707-10.868-7.362s-2.693-11.531.426-13.121c.763-.389,4.694-2.345,4.694-2.345A87.746,87.746,0,0,1,7501.032,1191.656Z" fill="#fff" stroke="#3c58a4" stroke-miterlimit="10" stroke-width="1.5"/>
        <ellipse id="Ellipse_315-2" data-name="Ellipse 315" cx="6.339" cy="11.495" rx="6.339" ry="11.495" transform="translate(7490.189 1184.278) rotate(-27.013)" fill="#fff" stroke="#3c58a4" stroke-miterlimit="10" stroke-width="1.5"/>
      </g>
    </g>
    <path id="Union_3" data-name="Union 3" d="M7614.446,1317.7a5.242,5.242,0,0,1-5.244-5.243v-13.293a58.2,58.2,0,0,1-51.7.246v13.047a5.244,5.244,0,0,1-5.247,5.243h-7.4a5.242,5.242,0,0,1-5.243-5.243v-26.7a58.088,58.088,0,0,1,73.672-88.133l2.98-.758,13.391-3.284a3.5,3.5,0,0,1,4.215,4.332l-3.489,12.709-.519,2.177a57.943,57.943,0,0,1,7.9,14.767h7.7a6.5,6.5,0,0,1,6.5,6.5v14.96a6.5,6.5,0,0,1-6.5,6.5H7640.6a57.828,57.828,0,0,1-13.516,29.661v27.26a5.244,5.244,0,0,1-5.245,5.243Z" fill="#fff" stroke="#3c58a4" stroke-miterlimit="10" stroke-width="1.5"/>
    <circle id="Ellipse_468" data-name="Ellipse 468" cx="3.329" cy="3.329" r="3.329" transform="translate(7620.158 1219.091)" fill="#3c58a4"/>
    <line id="Line_1" data-name="Line 1" x1="22.324" transform="translate(7571.94 1205.177)" fill="none" stroke="#3c58a4" stroke-linecap="round" stroke-linejoin="round" stroke-width="4.699"/>
    <circle id="Ellipse_469" data-name="Ellipse 469" cx="52.214" cy="52.214" r="52.214" transform="translate(7542.05 1205.819)" fill="#accaf0" opacity="0.15" style="isolation: isolate"/>
    <path id="Path_1172" data-name="Path 1172" d="M7530.344,1222.21a6.3,6.3,0,1,1-7.178-8.606" fill="none" stroke="#3c58a4" stroke-miterlimit="10" stroke-width="1.5"/>
  </g>
</svg>
