<svg xmlns="http://www.w3.org/2000/svg" width="27.398" height="22.252" viewBox="0 0 27.398 22.252">
  <g id="Group_2492" data-name="Group 2492" transform="translate(-279.762 -1200.283)">
    <path id="Icon_awesome-twitter" data-name="Icon awesome-twitter" d="M24.582,8.926c.017.243.017.487.017.73,0,7.423-5.65,15.976-15.976,15.976A15.868,15.868,0,0,1,0,23.112a11.616,11.616,0,0,0,1.356.07,11.246,11.246,0,0,0,6.971-2.4,5.625,5.625,0,0,1-5.25-3.894,7.081,7.081,0,0,0,1.061.087,5.939,5.939,0,0,0,1.478-.191,5.616,5.616,0,0,1-4.5-5.511V11.2a5.655,5.655,0,0,0,2.538.713,5.624,5.624,0,0,1-1.738-7.51A15.961,15.961,0,0,0,13.49,10.282,6.339,6.339,0,0,1,13.351,9a5.621,5.621,0,0,1,9.718-3.842A11.055,11.055,0,0,0,26.633,3.8a5.6,5.6,0,0,1-2.469,3.094A11.257,11.257,0,0,0,27.4,6.023a12.071,12.071,0,0,1-2.816,2.9Z" transform="translate(279.762 1196.902)" fill="#fff"/>
  </g>
</svg>
