<svg xmlns="http://www.w3.org/2000/svg" width="29.225" height="20.549" viewBox="0 0 29.225 20.549">
  <g id="Group_2494" data-name="Group 2494" transform="translate(-330.752 -1201.805)">
    <path id="Icon_awesome-youtube" data-name="Icon awesome-youtube" d="M29.664,7.715a3.672,3.672,0,0,0-2.584-2.6C24.8,4.5,15.662,4.5,15.662,4.5s-9.139,0-11.418.615a3.672,3.672,0,0,0-2.584,2.6A38.522,38.522,0,0,0,1.05,14.8a38.522,38.522,0,0,0,.611,7.08,3.617,3.617,0,0,0,2.584,2.559c2.279.615,11.418.615,11.418.615s9.139,0,11.418-.615a3.617,3.617,0,0,0,2.584-2.559,38.522,38.522,0,0,0,.611-7.08,38.522,38.522,0,0,0-.611-7.08ZM12.673,19.14V10.45L20.312,14.8,12.673,19.14Z" transform="translate(329.702 1197.305)" fill="#fff"/>
  </g>
</svg>
